<?xml version="1.0" standalone="no"?>
<!DOCTYPE svg PUBLIC "-//W3C//DTD SVG 20010904//EN"
 "http://www.w3.org/TR/2001/REC-SVG-20010904/DTD/svg10.dtd">
<svg version="1.0" xmlns="http://www.w3.org/2000/svg"
 width="600.000000pt" height="600.000000pt" viewBox="0 0 600.000000 600.000000"
 preserveAspectRatio="xMidYMid meet">
<g transform="translate(0.000000,600.000000) scale(0.100000,-0.100000)"
fill="#000000" stroke="none">
<path d="M623 5838 c-31 -7 -56 -23 -97 -65 l-56 -55 0 34 c0 19 -5 39 -12 46
-17 17 -47 15 -54 -3 -4 -10 -10 -12 -18 -7 -13 11 -59 23 -106 28 -31 3 -38
-1 -59 -31 -21 -32 -22 -38 -11 -84 6 -27 18 -52 27 -55 12 -5 11 -11 -6 -35
-12 -16 -18 -36 -15 -45 6 -16 40 -32 62 -28 19 4 14 -5 -24 -42 -65 -63 -84
-125 -54 -172 17 -24 17 -31 4 -73 -20 -66 -17 -165 6 -250 14 -51 18 -77 10
-85 -5 -7 -7 -16 -3 -19 3 -4 -2 -7 -12 -7 -15 0 -17 -6 -11 -46 7 -51 47
-100 73 -90 8 3 12 2 9 -3 -3 -5 9 -8 27 -7 30 1 32 -1 35 -34 2 -19 -4 -44
-12 -55 -14 -20 -14 -20 -38 2 -19 18 -27 20 -43 11 -11 -7 -25 -19 -32 -27
-11 -15 -11 -24 2 -83 7 -34 67 -68 117 -68 34 0 49 6 73 30 67 66 82 106 68
179 -8 41 -7 51 3 52 46 4 69 19 87 55 21 44 22 68 0 105 -22 37 -64 55 -92
39 -12 -6 -21 -15 -21 -19 0 -5 -8 -8 -17 -6 -10 2 -22 4 -27 4 -5 1 -7 4 -3
7 3 4 1 12 -6 20 -32 35 -37 45 -37 64 0 11 -3 20 -8 20 -9 0 -9 156 1 166 11
11 16 2 19 -33 1 -18 6 -29 10 -27 4 3 8 -2 8 -10 0 -21 70 -85 93 -86 9 0 17
4 17 9 0 5 18 5 42 -1 32 -7 45 -6 53 4 5 7 17 14 25 16 18 4 49 42 50 60 0
16 15 15 29 -2 9 -11 18 -12 39 -4 23 9 37 6 85 -16 57 -27 92 -31 92 -9 0 6
3 14 7 18 8 8 2 43 -17 97 -12 36 -12 44 2 65 14 22 14 25 -2 43 -17 18 -14
25 8 21 5 -1 6 3 3 8 -4 5 2 12 12 15 32 11 51 65 48 139 -3 60 -7 71 -32 96
-17 16 -51 34 -82 42 -47 12 -51 14 -30 22 66 26 228 -3 279 -49 19 -17 19
-18 -1 -39 -29 -31 -21 -80 20 -115 17 -15 41 -26 53 -26 28 2 99 38 97 50 -1
5 3 12 10 16 6 4 12 16 13 28 1 18 6 20 32 16 63 -11 125 -12 125 -3 0 5 6 9
14 9 21 0 74 47 91 81 8 15 13 43 11 61 -3 18 -5 38 -5 45 -1 7 -16 26 -33 42
-40 37 -86 41 -113 11 -22 -24 -29 -56 -15 -65 14 -9 12 -42 -3 -48 -7 -2 -30
-2 -52 2 -39 6 -40 7 -41 50 0 36 -6 49 -32 72 -40 36 -71 37 -110 4 -34 -28
-54 -31 -75 -11 -36 37 -244 52 -325 25 -20 -7 -41 -12 -45 -11 -5 1 -6 -2 -2
-8 3 -5 2 -10 -3 -10 -6 0 -12 6 -15 14 -10 25 -40 33 -84 24z m67 -35 c0 -5
-16 -18 -34 -30 -82 -53 -128 -172 -92 -241 15 -30 15 -32 -3 -42 -17 -8 -22
-4 -41 35 -42 87 -36 162 18 227 14 17 40 37 57 44 33 14 95 19 95 7z m363
-14 c34 -11 77 -29 95 -40 18 -10 42 -19 52 -19 33 0 32 19 -1 36 l-33 16 25
14 c34 19 47 17 74 -11 29 -28 32 -57 9 -80 -19 -19 -21 -17 34 -38 52 -21 85
-21 121 -2 45 23 48 60 8 82 -18 9 -18 11 -2 26 26 26 70 21 95 -10 47 -60 2
-161 -82 -184 -51 -13 -101 -3 -167 33 -29 16 -55 27 -57 25 -10 -10 10 -36
29 -39 18 -2 22 -9 20 -38 -2 -42 -41 -80 -81 -80 -77 0 -101 88 -28 101 18 4
16 8 -14 42 -42 48 -74 65 -162 83 -117 25 -231 -6 -296 -81 -24 -27 -32 -31
-32 -18 0 14 -2 15 -9 4 -12 -18 6 -93 27 -109 14 -11 19 -9 33 9 19 25 46 22
66 -8 14 -20 13 -24 -12 -48 -26 -27 -40 -28 -90 -9 -13 6 -16 1 -13 -22 4
-39 75 -82 162 -97 51 -8 66 -15 64 -27 -2 -8 -13 -16 -26 -18 -27 -4 -27 -7
-3 -34 18 -19 48 -114 39 -123 -8 -8 -113 37 -135 58 l-23 20 0 -20 c0 -11 -6
-25 -13 -32 -11 -8 -17 4 -31 63 -22 94 -56 146 -96 146 -28 0 -29 -2 -19 -24
25 -54 -18 -109 -67 -87 -31 14 -33 60 -4 68 27 7 25 19 -5 39 -28 18 -105 11
-105 -10 0 -7 -11 -23 -25 -36 -62 -58 -80 -217 -36 -315 27 -61 77 -115 107
-115 25 0 40 15 24 25 -15 9 -2 25 21 25 56 0 78 -82 33 -126 -26 -27 -60 -29
-109 -9 -19 8 -19 7 -4 -11 87 -103 13 -282 -108 -259 -64 12 -95 72 -57 110
15 15 18 14 31 -5 33 -47 93 -7 93 63 -1 53 -34 131 -45 105 -10 -25 -60 -23
-86 3 -14 14 -19 30 -17 51 3 36 23 48 30 20 4 -15 57 -52 74 -52 1 0 -18 34
-41 76 -24 42 -49 99 -54 126 -16 70 -13 176 4 235 19 64 91 147 141 163 46
16 129 8 152 -14 26 -22 29 -20 24 13 -3 23 1 33 21 45 13 9 29 16 33 15 23
-4 24 3 5 27 -47 60 -18 174 61 237 84 68 254 88 381 46z m-689 -28 c9 -7 16
-20 16 -27 0 -22 18 -16 22 7 2 12 14 29 27 37 22 15 23 15 18 -3 -7 -23 7
-181 18 -208 6 -15 4 -16 -19 -7 -14 5 -52 9 -83 9 -32 0 -65 1 -73 2 -8 1
-23 -2 -32 -6 -12 -5 -18 -3 -18 6 0 20 31 49 54 49 19 1 18 2 -6 16 -37 19
-48 43 -48 101 l0 49 54 -6 c30 -3 61 -12 70 -19z m536 -156 c14 -7 34 -23 45
-36 l20 -22 -22 5 c-27 7 -27 8 -8 -28 19 -37 19 -58 -1 -99 -17 -36 -65 -65
-108 -65 -26 0 -100 32 -109 47 -3 5 15 8 40 8 35 0 49 5 64 24 26 32 24 48
-10 82 -30 29 -83 40 -96 19 -9 -15 -25 -12 -25 4 0 24 34 56 75 71 43 16 92
12 135 -10z m-409 -100 c34 -18 49 -38 40 -53 -6 -10 -15 -9 -44 3 -48 20 -83
19 -132 -4 -40 -18 -125 -103 -125 -125 0 -6 -5 -3 -11 6 -15 27 7 94 44 134
56 61 153 77 228 39z m-15 -198 c-8 -41 10 -94 34 -107 54 -29 104 5 105 71 0
21 4 39 8 39 14 0 37 -68 37 -108 0 -87 -105 -148 -169 -98 -11 9 -13 7 -6
-13 l7 -24 -30 21 c-75 54 -84 201 -15 241 30 17 36 13 29 -22z"/>
<path d="M5014 5839 c-64 -8 -124 -28 -124 -40 0 -17 -32 -9 -62 16 -33 28
-54 31 -93 13 -30 -14 -59 -72 -51 -104 4 -15 0 -24 -12 -30 -24 -10 -86 -11
-93 -1 -9 12 1 47 12 47 18 0 9 37 -14 58 -59 56 -157 -1 -157 -91 0 -23 7
-53 15 -67 8 -14 18 -33 21 -42 3 -10 10 -15 15 -12 5 3 12 -1 15 -9 6 -17 48
-31 79 -28 17 2 17 0 5 -8 -20 -14 -15 -14 50 4 68 18 70 18 70 1 0 -8 7 -22
16 -30 8 -9 13 -16 9 -16 -16 0 25 -27 64 -42 47 -19 65 -15 108 25 24 21 23
62 -3 103 -11 19 -11 24 4 37 20 17 57 37 80 42 9 3 33 8 52 13 19 4 50 7 68
6 17 -1 42 -2 55 -3 13 0 31 -7 41 -14 17 -12 16 -13 -10 -14 -55 -2 -88 -14
-117 -43 -26 -25 -30 -36 -32 -97 -3 -81 4 -103 45 -141 32 -31 38 -48 18 -55
-10 -3 -10 -9 0 -28 13 -25 12 -45 -7 -109 -14 -45 -14 -52 2 -74 10 -14 21
-16 50 -11 20 4 35 11 32 15 -2 4 13 12 35 19 30 9 45 9 61 1 16 -9 24 -8 39
5 17 15 19 14 39 -19 18 -29 44 -47 71 -51 3 0 10 -3 15 -6 6 -4 35 -7 66 -7
54 0 57 1 85 39 16 22 34 46 40 52 11 13 14 20 14 37 0 22 19 8 24 -17 12 -51
-32 -213 -56 -213 -5 0 -8 -6 -8 -14 0 -8 -7 -16 -15 -20 -8 -3 -15 -1 -15 4
0 5 -14 16 -30 25 -34 18 -51 12 -89 -29 -20 -21 -23 -32 -18 -67 6 -44 40
-89 67 -89 9 0 25 -7 36 -16 10 -8 13 -13 7 -9 -10 5 -13 -9 -13 -53 0 -70 29
-134 72 -160 16 -9 28 -20 28 -24 0 -15 91 -9 107 7 8 8 18 13 22 11 9 -6 44
52 48 80 4 26 -33 74 -57 74 -9 0 -23 -7 -30 -15 -13 -16 -39 -21 -41 -7 0 4
-2 14 -4 22 -18 67 -11 80 43 80 50 0 78 19 95 64 8 19 -2 91 -10 82 -3 -3
-11 1 -18 7 -12 12 -12 19 2 55 9 24 8 19 22 101 12 69 11 125 -4 196 -3 16
-8 32 -11 34 -2 2 3 15 11 28 25 38 14 96 -28 154 -21 27 -42 49 -47 49 -6 0
-10 5 -10 11 0 7 9 9 22 6 36 -10 65 52 38 79 -7 7 -6 22 5 47 24 58 20 112
-11 136 -30 24 -80 27 -109 8 -28 -19 -57 -29 -50 -17 5 9 -15 15 -37 11 -5 0
-8 4 -8 9 0 6 -10 2 -21 -9 -17 -16 -21 -27 -16 -56 l6 -35 -27 32 c-41 50
-50 58 -62 58 -6 0 -9 4 -6 9 7 11 -47 31 -84 31 -15 0 -40 -6 -55 -14 -23
-12 -32 -12 -62 0 -40 17 -145 23 -219 13z m-208 -43 c10 -8 17 -16 14 -18 -3
-2 -14 -8 -24 -14 -11 -6 -22 -16 -24 -22 -6 -19 44 -14 80 8 92 56 266 77
376 45 140 -42 222 -185 162 -282 -18 -31 -18 -33 -2 -33 39 0 60 -28 67 -90
5 -41 11 -60 21 -60 18 0 36 -37 29 -60 -7 -22 -37 -34 -64 -25 -28 9 -47 60
-32 91 15 33 15 32 -14 26 -14 -2 -37 -19 -49 -36 -25 -32 -56 -123 -56 -163
0 -32 -16 -29 -31 6 -12 27 -14 28 -28 10 -14 -15 -111 -59 -133 -59 -11 0 22
103 42 132 20 27 20 27 -3 30 -12 2 -23 10 -25 19 -2 13 8 18 50 24 98 13 159
51 173 107 l7 28 -34 -14 c-27 -12 -39 -12 -59 -3 -46 23 -29 98 19 82 19 -5
36 -37 33 -60 -1 -5 7 1 18 15 29 37 46 106 33 133 -10 21 -11 21 -11 -7 l-1
-29 -23 34 c-45 67 -123 101 -232 102 -109 1 -226 -50 -254 -110 -9 -19 -8
-23 7 -23 42 0 55 -47 22 -80 -26 -26 -83 -27 -110 0 -38 38 -39 103 -2 93 23
-5 35 8 26 30 -4 12 -16 9 -66 -16 -99 -52 -207 -37 -243 33 -35 69 -2 154 58
148 42 -4 59 -33 30 -53 -42 -30 1 -85 67 -85 19 0 54 9 78 20 40 18 42 21 28
36 -24 23 -19 60 10 83 31 25 44 26 70 7z m627 -19 c72 -55 93 -160 49 -249
-25 -50 -29 -53 -50 -39 -11 7 -11 17 4 58 15 43 16 56 5 96 -13 44 -51 95
-51 68 0 -7 -4 -9 -10 -6 -5 3 -10 15 -10 25 0 10 -17 33 -37 50 l-38 32 52
-4 c36 -4 63 -13 86 -31z m165 -37 c4 -23 4 -23 26 5 19 23 33 30 80 35 l56 6
0 -42 c0 -58 -14 -90 -47 -108 -22 -12 -24 -15 -9 -16 23 0 56 -28 56 -46 0
-10 -6 -11 -22 -5 -13 4 -34 5 -48 1 -14 -4 -42 -5 -62 -2 -20 2 -50 0 -67 -6
-34 -12 -36 -10 -21 17 5 10 10 62 12 114 2 95 3 96 23 83 11 -7 22 -24 23
-36z m-333 -136 c23 -15 50 -63 40 -72 -3 -3 -11 0 -17 6 -29 29 -100 5 -119
-39 -9 -24 -9 -33 5 -53 16 -25 75 -44 95 -31 6 3 11 1 11 -5 0 -14 -77 -49
-108 -50 -93 -1 -154 107 -100 175 l22 28 -22 -5 c-47 -13 -11 30 48 57 40 17
110 12 145 -11z m387 -84 c77 -22 129 -90 127 -167 0 -34 -2 -36 -12 -19 -29
46 -85 101 -122 117 -51 24 -92 24 -138 0 -20 -10 -37 -15 -37 -11 0 5 -2 14
-5 22 -8 21 76 65 130 67 11 1 37 -4 57 -9z m-28 -100 c44 -16 103 -78 126
-133 31 -70 38 -182 16 -266 -9 -35 -41 -106 -71 -160 -79 -137 -89 -186 -47
-233 21 -25 62 -23 69 2 6 24 11 25 35 3 23 -21 23 -44 -2 -76 -40 -51 -137
-41 -176 18 -34 52 -27 184 11 199 8 3 15 13 15 22 0 16 -1 16 -18 1 -28 -25
-78 -21 -107 8 -45 44 -24 125 32 125 20 0 22 -4 17 -25 -5 -22 -3 -25 21 -25
39 0 98 65 120 131 25 75 23 172 -4 234 -27 61 -74 112 -113 120 -34 8 -64 45
-45 57 17 11 91 10 121 -2z m-56 -113 c28 -30 38 -92 23 -139 -13 -41 -87
-117 -79 -82 5 21 5 22 -29 8 -32 -14 -38 -13 -77 6 -24 11 -49 31 -56 44 -18
35 -16 96 6 136 l18 35 6 -42 c11 -75 69 -107 120 -65 23 19 30 75 15 121 -7
21 -6 22 11 13 10 -6 29 -21 42 -35z m75 -90 c3 -8 -1 -14 -8 -14 -7 0 -11 6
-8 14 3 7 6 13 8 13 2 0 5 -6 8 -13z m131 -343 c11 -29 6 -54 -14 -74 -19 -19
-69 -27 -83 -14 -11 11 13 45 40 55 14 5 27 18 30 29 6 24 19 26 27 4z"/>
<path d="M2962 5800 c-12 -16 -22 -34 -22 -40 0 -5 -4 -10 -10 -10 -16 0 -12
-60 4 -66 19 -7 29 -34 18 -48 -5 -6 -24 -57 -43 -113 l-33 -103 -146 -1
c-157 -1 -157 -1 -182 -13 -30 -14 -20 -42 28 -82 25 -22 50 -41 55 -43 6 -1
22 -13 36 -26 51 -45 63 -55 71 -55 5 0 17 -9 27 -20 17 -19 17 -22 0 -82 -33
-122 -57 -188 -65 -183 -5 3 -11 23 -15 45 -4 22 -11 38 -16 34 -5 -3 -9 1 -9
9 0 8 -6 27 -14 43 -8 15 -12 40 -9 55 4 20 -1 34 -17 51 -15 16 -24 19 -27
11 -3 -7 -11 -13 -19 -13 -8 0 -14 -4 -14 -10 0 -18 -38 -10 -66 13 -19 17
-25 28 -18 38 4 8 9 20 10 26 3 20 -60 83 -83 83 -21 0 -90 -41 -83 -50 2 -3
-2 -15 -9 -27 -9 -18 -9 -23 0 -23 7 0 10 -2 7 -5 -2 -3 -24 5 -49 16 -25 13
-70 23 -103 25 -71 5 -133 -22 -177 -76 -25 -29 -29 -43 -29 -94 0 -56 2 -62
36 -93 46 -41 85 -44 119 -7 53 57 8 137 -55 99 -11 -6 -10 -2 3 12 21 24 80
44 98 32 8 -5 26 -9 41 -9 32 0 37 -13 26 -62 -14 -64 27 -125 57 -84 12 15
13 15 19 0 3 -8 6 -24 6 -33 0 -29 59 -72 89 -64 56 13 74 49 46 90 -15 21
-14 23 7 27 38 7 69 5 63 -4 -3 -5 9 -11 26 -15 23 -5 39 -21 65 -61 33 -51
55 -66 69 -44 10 16 22 12 28 -10 5 -21 47 -29 47 -9 0 5 14 15 30 20 17 6 30
15 30 19 0 7 59 48 85 59 6 2 27 17 48 33 20 16 37 27 37 23 0 -4 6 -2 13 4
10 8 19 6 34 -9 12 -10 37 -27 57 -38 19 -11 33 -22 30 -25 -3 -3 11 -10 30
-17 20 -6 39 -16 42 -22 5 -7 2 -8 -6 -3 -9 5 -11 4 -6 -4 4 -6 11 -9 15 -6 5
2 16 -4 26 -15 10 -11 24 -16 33 -13 10 4 13 2 8 -5 -5 -8 0 -12 13 -12 11 0
24 8 30 18 8 14 13 15 30 5 17 -11 23 -9 40 14 12 14 21 30 21 35 0 35 100 89
149 81 34 -5 37 -10 18 -31 -23 -25 -21 -48 5 -66 52 -37 114 -9 124 55 4 23
10 37 13 32 14 -19 50 -13 67 12 14 21 15 32 6 67 -6 23 -10 43 -9 44 14 12
94 30 102 23 5 -5 19 -9 31 -9 12 0 28 -7 35 -16 12 -15 11 -16 -9 -10 -55 18
-86 -71 -40 -114 36 -33 83 -27 124 16 31 34 34 42 34 100 0 46 -4 63 -12 61
-7 -1 -12 3 -11 10 4 17 -55 62 -103 80 -55 21 -129 16 -182 -11 -31 -16 -42
-13 -42 14 0 28 -47 64 -85 65 -19 1 -35 -2 -35 -7 0 -5 -4 -7 -8 -4 -12 7
-44 -51 -42 -77 4 -38 0 -47 -17 -47 -9 0 -13 -3 -10 -7 4 -3 -3 -13 -15 -21
-19 -14 -22 -14 -32 0 -6 8 -22 21 -35 28 -22 11 -26 10 -42 -11 -12 -16 -15
-29 -8 -40 9 -17 -6 -73 -32 -121 -7 -13 -14 -27 -15 -33 -1 -5 -7 -21 -12
-35 l-11 -25 0 25 c-1 15 -6 31 -11 36 -6 6 -12 19 -14 30 -2 11 -11 43 -19
71 -9 28 -12 55 -9 59 4 4 1 4 -5 0 -9 -5 -13 2 -13 24 0 25 8 36 47 63 25 17
68 51 94 74 26 23 56 44 67 47 17 6 31 28 36 61 4 25 -35 32 -178 34 -83 1
-157 6 -165 11 -9 5 -13 10 -8 10 4 0 1 15 -7 34 -8 19 -12 37 -8 40 3 3 -1 6
-8 6 -7 0 -11 3 -8 6 3 3 -5 33 -18 66 l-24 61 20 27 c11 16 20 33 20 39 0 14
-22 54 -35 63 -5 4 -6 8 -1 8 5 0 -1 9 -14 20 -31 27 -42 25 -68 -10z m66 -39
l30 -48 -24 -25 -25 -24 49 -140 50 -139 171 0 c94 0 171 -2 171 -5 -1 -3 -55
-45 -121 -95 -66 -49 -126 -95 -134 -101 -12 -9 -7 -35 36 -173 28 -90 49
-164 47 -166 -2 -1 -52 33 -113 76 -60 43 -124 86 -140 95 l-31 16 -137 -95
c-75 -53 -137 -93 -137 -89 0 4 23 79 50 167 27 87 48 160 47 161 -1 1 -60 45
-132 99 -71 54 -131 101 -133 104 -1 3 75 6 169 6 l171 0 50 139 50 139 -25
25 -25 25 24 38 c13 21 24 43 24 49 0 18 8 10 38 -39z m-589 -518 c19 -23 20
-28 7 -48 -17 -25 -18 -24 78 -100 40 -31 47 -34 42 -17 -5 14 -1 27 14 42 25
25 45 18 28 -10 -10 -15 -10 -26 -1 -47 6 -16 23 -56 38 -91 20 -47 24 -71 19
-95 l-7 -32 -10 30 c-32 96 -143 158 -216 121 -46 -24 -55 -85 -10 -71 27 9
23 -12 -6 -31 -23 -15 -27 -15 -49 0 -32 20 -41 50 -26 86 28 69 134 79 217
21 25 -18 43 -26 41 -19 -7 20 -106 76 -149 83 -21 4 -52 4 -70 0 -35 -8 -99
-60 -99 -82 0 -29 -25 -6 -28 26 -4 40 17 67 73 92 34 15 36 18 15 18 -14 0
-34 -4 -45 -8 -12 -5 -34 -1 -60 10 -61 28 -136 25 -174 -7 -30 -25 -37 -47
-25 -78 8 -21 23 -20 40 2 13 16 15 16 29 -2 32 -42 -32 -83 -81 -52 -74 49
-46 163 50 207 76 35 147 22 266 -47 30 -18 73 -35 95 -38 l40 -7 -45 26 c-90
53 -114 97 -68 129 32 23 54 20 77 -11z m1201 7 c11 -11 20 -26 20 -33 0 -25
-32 -58 -82 -83 -27 -14 -48 -27 -46 -29 9 -9 96 18 131 41 95 63 189 79 263
45 75 -34 107 -100 80 -165 -19 -45 -55 -64 -91 -48 -34 15 -42 40 -21 60 16
16 18 16 31 -2 12 -16 17 -17 30 -6 24 20 18 56 -16 84 -38 32 -113 35 -175 7
-26 -12 -46 -16 -55 -10 -8 5 -27 9 -44 8 -29 0 -28 -1 15 -22 52 -26 76 -62
66 -100 -7 -28 -26 -37 -26 -13 0 20 -53 62 -96 76 -29 10 -49 10 -90 1 -51
-12 -142 -66 -130 -78 3 -4 14 1 24 10 27 24 87 47 124 47 42 0 96 -33 108
-65 13 -33 -3 -72 -35 -87 -21 -9 -28 -8 -45 7 -25 23 -26 38 -1 30 12 -3 21
0 25 10 17 46 -54 84 -122 66 -52 -14 -110 -67 -126 -115 l-14 -40 -6 30 c-7
34 1 66 39 147 23 50 26 63 16 84 -14 31 -9 38 18 23 21 -11 25 -20 21 -54 -1
-14 17 -3 69 39 67 56 99 94 67 82 -23 -9 -27 32 -5 54 25 25 54 24 79 -1z"/>
<path d="M2990 5603 c0 -11 -7 -39 -15 -62 -17 -49 -10 -55 10 -8 13 29 14 18
15 -130 0 -105 4 -164 11 -169 6 -3 33 -12 60 -19 49 -13 51 -13 110 21 34 19
63 34 66 34 5 0 96 63 116 80 5 4 -53 8 -127 9 -85 1 -136 -2 -136 -8 0 -6 44
-11 108 -13 l107 -3 -147 -50 c-81 -27 -150 -46 -154 -43 -3 4 10 31 30 61 37
55 42 77 25 112 -7 15 -8 10 -3 -18 3 -24 2 -37 -4 -33 -6 3 -13 25 -17 49
-18 123 -55 251 -55 190z"/>
<path d="M2640 5354 c1 -16 85 -71 160 -105 74 -33 135 -42 175 -26 15 6 -18
21 -138 61 -87 28 -155 55 -151 59 4 4 2 7 -4 7 -5 0 -17 3 -26 6 -9 3 -16 2
-16 -2z"/>
<path d="M2780 5356 c0 -4 93 -36 104 -36 3 0 6 8 6 18 0 16 -9 19 -55 21 -30
1 -55 0 -55 -3z"/>
<path d="M2903 5092 c-50 -70 -101 -136 -112 -146 -12 -11 -21 -23 -21 -28 0
-21 157 121 197 178 18 25 43 124 31 124 -2 0 -44 -57 -95 -128z"/>
<path d="M3010 5215 c0 -2 33 -48 73 -102 40 -54 84 -114 97 -133 l24 -35 -25
23 c-14 12 -32 22 -40 22 -17 0 40 -49 58 -50 7 0 17 -8 22 -17 8 -15 10 -15
11 -3 0 9 -8 27 -17 40 -10 14 -37 67 -60 119 -40 92 -43 96 -92 117 -28 13
-51 21 -51 19z"/>
<path d="M2850 5177 c0 -1 -13 -39 -29 -85 -16 -45 -26 -82 -22 -82 4 0 18 30
31 68 12 37 27 71 31 77 12 12 11 25 -1 25 -5 0 -10 -1 -10 -3z"/>
<path d="M3010 5102 c0 -24 8 -40 28 -57 32 -29 47 -32 32 -7 -6 9 -22 35 -35
57 l-25 40 0 -33z"/>
<path d="M1648 5143 c-10 -3 -18 -9 -18 -14 0 -5 -7 -9 -15 -9 -8 0 -15 -4
-15 -9 0 -5 -18 -27 -40 -49 -22 -22 -40 -44 -40 -49 0 -6 -11 -23 -25 -38
-43 -51 -69 -140 -70 -235 l0 -86 -25 4 c-21 3 -26 10 -28 35 -2 17 -6 35 -11
41 -5 6 -14 29 -21 51 -7 22 -23 55 -37 72 -20 28 -27 31 -42 21 -22 -14 -74
-123 -101 -213 -17 -55 -19 -161 -5 -216 13 -48 13 -54 -3 -65 -27 -21 -51
-16 -65 14 -6 15 -14 29 -17 32 -3 3 -11 17 -18 31 -8 14 -29 43 -48 64 l-34
39 -25 -24 c-18 -19 -26 -40 -31 -90 -3 -36 -8 -68 -10 -71 -5 -8 -5 -137 0
-164 8 -49 38 -135 48 -135 5 0 8 -7 4 -15 -3 -8 -1 -15 3 -15 5 0 11 -7 15
-15 3 -8 2 -14 -2 -14 -20 3 -32 -2 -27 -11 4 -6 1 -9 -6 -8 -7 2 -28 26 -47
53 -43 62 -123 145 -139 145 -7 0 -20 -11 -29 -24 -25 -39 -26 -239 -2 -330
18 -64 79 -174 113 -201 10 -8 7 -16 -14 -37 l-26 -27 -55 50 c-29 27 -63 52
-74 55 -12 4 -33 15 -48 26 -23 16 -30 17 -48 6 -11 -7 -20 -23 -20 -35 0 -28
33 -162 55 -228 27 -77 44 -107 88 -156 9 -10 17 -22 17 -25 0 -10 46 -50 79
-70 l30 -18 -35 -33 c-20 -18 -40 -31 -45 -27 -5 3 -7 9 -5 13 4 7 -52 32 -71
32 -5 0 -15 6 -23 13 -8 7 -41 19 -72 26 -50 11 -58 11 -73 -3 -17 -18 -12
-56 12 -93 7 -11 10 -24 6 -27 -3 -4 -2 -7 4 -7 5 0 20 -22 33 -50 13 -27 27
-50 32 -50 4 0 8 -8 8 -17 0 -10 18 -37 40 -59 21 -23 36 -44 33 -48 -4 -3 -2
-6 4 -6 6 0 25 -14 43 -30 18 -17 43 -33 57 -36 19 -5 21 -9 11 -15 -9 -6 -7
-9 9 -9 31 0 73 -21 73 -36 0 -7 -7 -17 -15 -22 -9 -4 -17 -18 -18 -29 -1 -21
-3 -21 -37 -7 -19 9 -71 16 -115 17 -65 2 -83 -1 -97 -15 -27 -27 -23 -40 29
-93 27 -26 41 -44 33 -40 -13 8 -13 6 -1 -8 7 -9 17 -14 22 -11 5 3 9 0 9 -7
0 -15 113 -122 148 -140 15 -8 30 -18 34 -24 4 -5 8 -6 8 -1 0 5 7 3 15 -4 8
-7 15 -10 15 -7 0 3 16 -1 35 -9 19 -7 55 -14 81 -14 l47 0 -7 -31 c-3 -17 -6
-41 -6 -53 0 -20 -5 -21 -88 -20 -48 1 -91 -2 -97 -6 -5 -4 -23 -10 -40 -14
-16 -4 -40 -17 -52 -28 l-23 -21 28 -26 c15 -14 40 -35 56 -46 16 -11 41 -31
57 -43 16 -13 29 -21 29 -17 0 3 12 -2 27 -13 16 -10 63 -33 107 -51 62 -25
93 -31 150 -31 39 0 85 4 101 9 29 8 30 7 32 -29 l2 -38 -48 -6 c-26 -3 -51
-9 -55 -13 -3 -4 -37 -17 -74 -29 -37 -13 -63 -23 -57 -23 5 -1 -1 -8 -13 -17
-27 -19 -28 -39 -2 -57 11 -8 17 -17 13 -20 -3 -4 3 -7 14 -7 27 0 93 -28 93
-39 0 -8 9 -11 88 -27 17 -3 32 -10 32 -15 0 -5 5 -9 11 -9 5 0 7 6 3 13 -5 8
-2 8 9 -2 9 -7 17 -10 17 -6 0 4 6 2 14 -4 21 -18 180 -7 211 13 13 9 31 16
39 16 8 0 22 7 31 16 14 15 15 13 9 -24 -5 -34 -3 -42 17 -56 20 -13 20 -16 6
-16 -11 0 -15 -4 -11 -12 4 -6 3 -8 -4 -4 -12 7 -62 -13 -62 -26 0 -4 -7 -8
-15 -8 -8 0 -15 -4 -15 -10 0 -5 -7 -10 -15 -10 -8 0 -26 -12 -40 -27 -14 -15
-25 -24 -25 -19 0 5 -11 -4 -25 -20 -23 -27 -23 -29 -7 -48 30 -34 97 -57 149
-52 40 5 43 4 19 -4 -17 -5 -47 -29 -68 -52 -43 -48 -48 -84 -23 -145 l15 -36
-51 6 c-29 4 -54 9 -57 12 -4 3 2 36 11 73 25 97 23 135 -11 171 -39 43 -125
65 -200 51 -30 -5 -60 -13 -66 -18 -6 -4 -23 -13 -37 -19 -24 -10 -26 -10 -22
8 3 11 0 19 -6 19 -7 0 -10 4 -7 9 10 15 -32 43 -73 48 -55 8 -92 -10 -123
-58 -46 -70 -18 -148 67 -189 43 -21 101 -27 90 -10 -3 6 4 10 17 10 13 0 28
4 34 10 9 9 41 18 72 19 7 1 11 5 8 10 -7 11 17 21 64 28 19 3 38 9 41 15 3 5
18 6 33 2 25 -6 25 -7 9 -20 -10 -7 -26 -14 -36 -14 -10 0 -15 -4 -12 -10 3
-5 0 -10 -8 -10 -33 0 -66 -156 -38 -185 13 -15 -6 -129 -29 -175 -11 -21 -20
-57 -20 -78 0 -32 7 -47 39 -80 22 -22 42 -38 45 -34 3 3 6 1 6 -5 0 -6 15
-16 33 -24 17 -7 34 -16 37 -20 3 -4 35 -9 72 -10 53 -3 71 0 87 15 19 17 47
14 36 -4 -3 -4 16 -16 42 -26 27 -10 51 -22 55 -28 3 -5 47 -8 97 -7 79 1 96
5 135 28 54 33 67 54 70 121 3 58 9 70 28 55 7 -6 25 -13 39 -16 14 -4 52 -19
85 -34 50 -24 55 -28 34 -31 -14 -2 -28 -8 -31 -14 -3 -5 -15 -10 -27 -11 -12
0 -19 -3 -17 -5 2 -3 -5 -16 -15 -30 -39 -49 -19 -152 34 -179 74 -39 80 -40
161 -32 44 4 95 11 113 15 25 5 33 3 32 -7 -6 -38 3 -62 33 -95 27 -30 40 -36
80 -39 26 -1 47 1 47 6 0 5 9 9 20 9 11 0 19 3 18 8 -1 4 4 18 12 32 18 32 21
48 9 56 -5 3 -9 10 -9 16 0 7 5 6 14 -1 8 -7 20 -11 28 -10 7 1 33 1 58 0 33
-1 41 -4 30 -11 -12 -8 -12 -10 -1 -10 10 0 12 -8 7 -31 -7 -34 8 -69 28 -69
8 0 25 -12 38 -27 19 -23 30 -27 61 -25 32 3 38 0 46 -21 6 -14 19 -31 30 -39
12 -8 18 -17 15 -20 -9 -10 35 -20 57 -13 11 4 18 9 16 12 -3 2 2 13 11 22 9
10 25 28 35 40 13 16 27 21 53 19 27 -2 40 3 53 20 9 13 28 29 41 35 31 15 37
50 15 84 -10 14 -12 23 -7 19 6 -3 12 -1 14 6 3 7 28 12 64 14 32 1 61 3 64 4
3 1 8 2 11 2 3 -1 4 9 3 21 -1 12 -3 30 -3 40 -1 10 -5 16 -9 13 -4 -2 -14 4
-20 15 -12 19 -12 19 18 4 44 -23 70 -51 70 -76 0 -16 -5 -20 -19 -16 -19 5
-65 -27 -58 -41 21 -45 33 -62 44 -62 8 0 12 -4 8 -9 -9 -15 33 -24 78 -17 34
5 47 14 69 44 14 21 28 54 31 73 3 23 9 33 18 30 8 -2 29 -6 47 -9 18 -2 34
-7 36 -11 7 -11 170 6 174 18 2 6 10 11 17 11 7 0 27 21 45 48 37 55 36 98 -2
140 -27 29 -97 63 -113 55 -7 -4 -7 -2 1 6 5 6 37 21 70 32 32 11 73 30 91 40
31 19 32 19 42 1 5 -10 8 -33 5 -51 -4 -20 0 -41 11 -57 9 -13 13 -29 10 -34
-3 -6 1 -10 9 -10 9 0 16 -4 16 -8 0 -4 21 -16 48 -25 62 -23 184 -23 217 -1
14 9 25 13 25 9 0 -3 7 1 16 9 8 9 24 16 35 16 11 0 18 4 15 9 -11 16 28 23
40 7 17 -24 174 -19 159 4 -3 5 9 11 27 15 19 4 53 26 81 53 39 38 47 52 47
82 0 20 -5 41 -12 48 -7 7 -9 12 -5 12 4 0 -2 18 -13 40 -17 34 -20 58 -20
174 l0 134 -34 30 c-19 17 -45 34 -58 38 l-23 7 25 9 c17 6 41 3 87 -13 35
-13 63 -26 63 -30 0 -3 38 -19 84 -34 96 -33 116 -29 179 30 53 50 59 90 23
151 -24 41 -48 54 -106 61 -45 5 -51 3 -80 -26 -17 -17 -29 -35 -25 -40 12
-21 -17 -21 -62 0 -65 30 -247 30 -228 0 2 -5 -6 -13 -19 -19 -12 -5 -29 -24
-38 -42 -15 -32 -13 -61 17 -181 5 -20 2 -27 -18 -36 -14 -7 -35 -9 -47 -6
-20 5 -22 10 -16 53 8 57 -2 86 -43 131 l-31 33 22 12 c12 7 27 10 33 8 6 -3
28 4 50 15 60 29 55 45 -35 125 -23 21 -102 62 -132 70 l-27 6 20 34 c10 18
17 41 13 50 -7 18 20 23 31 6 3 -5 17 -10 30 -10 13 0 25 -5 27 -11 4 -13 196
-21 203 -8 3 4 14 5 24 2 10 -3 22 0 25 6 4 6 15 11 24 11 9 0 53 16 97 36 44
20 85 36 92 37 7 0 10 4 7 8 -2 4 4 10 15 14 11 3 22 12 25 20 6 17 -30 59
-59 68 -11 3 -51 17 -90 31 -38 14 -82 26 -97 26 -26 0 -27 2 -21 33 6 32 23
62 23 40 0 -18 193 -15 217 2 10 8 25 15 34 15 20 0 167 75 194 99 11 9 37 28
57 41 46 31 61 60 40 79 -27 26 -96 44 -187 49 -90 4 -91 4 -89 31 0 14 -4 29
-10 33 -7 5 -6 8 4 8 13 0 13 2 1 9 -11 7 -4 11 25 16 34 5 76 14 124 26 8 2
17 6 20 9 3 3 22 14 43 24 20 11 37 23 37 28 0 4 5 8 12 8 14 0 188 174 188
188 0 5 6 12 14 15 19 8 25 41 11 61 -16 21 -101 29 -165 14 -25 -5 -53 -10
-62 -11 -9 -1 -14 -5 -12 -9 3 -4 -2 -5 -11 -2 -9 4 -14 9 -11 12 3 2 -2 18
-11 35 -14 28 -14 31 3 44 10 7 23 13 30 13 6 0 23 9 38 21 14 11 26 17 26 12
0 -4 11 3 24 17 14 14 41 41 60 60 20 19 36 37 36 41 0 4 6 14 13 21 23 24 63
93 101 172 35 74 36 79 20 97 -12 14 -26 18 -52 14 -39 -4 -178 -61 -203 -82
-14 -11 -17 -10 -27 12 -6 14 -16 25 -22 25 -17 0 -11 30 8 37 25 9 109 100
137 147 27 48 75 185 75 215 0 12 4 21 9 21 5 0 8 6 8 13 -1 6 3 29 7 50 7 32
5 42 -10 58 -17 17 -24 17 -52 7 -17 -7 -32 -16 -32 -20 0 -4 -5 -8 -10 -8 -6
0 -20 -9 -32 -20 -12 -10 -26 -17 -31 -13 -6 3 -8 2 -5 -3 3 -5 0 -15 -8 -22
-8 -7 -14 -9 -14 -5 0 4 -13 -8 -30 -27 -16 -19 -27 -27 -24 -18 4 13 1 18
-11 18 -9 0 -14 4 -11 9 3 5 -1 12 -9 15 -12 4 -6 18 29 63 25 31 43 59 41 62
-3 2 1 14 8 25 19 30 42 116 38 149 -1 15 2 27 7 27 5 0 8 10 6 23 -2 12 -5
61 -7 109 -5 89 -18 119 -49 114 -15 -2 -64 -50 -103 -101 -11 -15 -25 -32
-31 -39 -6 -6 -15 -22 -18 -34 -9 -26 -19 -28 -39 -7 -8 8 -18 11 -21 7 -9 -8
9 41 26 71 27 50 46 152 43 221 -10 165 -39 255 -78 240 -9 -3 -17 -13 -17
-21 0 -8 -4 -12 -9 -9 -5 3 -12 0 -15 -7 -3 -6 -17 -30 -31 -52 -14 -22 -33
-57 -41 -77 -16 -36 -16 -36 -37 -17 -12 11 -27 17 -33 15 -14 -5 -12 15 7 72
31 94 -26 327 -102 418 -15 18 -29 18 -29 -1 0 -8 -7 -15 -15 -15 -13 0 -20
-13 -12 -23 1 -2 -6 -11 -15 -21 -10 -10 -18 -28 -18 -42 0 -13 -4 -24 -10
-24 -5 0 -10 -15 -10 -32 0 -42 -12 -61 -36 -56 -16 3 -19 13 -20 63 -1 75
-27 177 -58 230 -32 53 -133 169 -152 173 -7 2 -14 8 -14 13 0 6 -11 2 -25 -8
-24 -17 -24 -22 -25 -143 0 -78 4 -120 9 -111 7 11 11 4 17 -25 4 -21 18 -58
30 -82 25 -47 21 -46 -44 15 -19 18 -38 30 -43 28 -4 -3 -10 -1 -14 5 -3 5
-30 21 -59 35 -46 22 -65 25 -132 22 -44 -2 -92 -10 -109 -18 -49 -23 -43 -48
29 -120 103 -102 117 -112 168 -130 46 -15 47 -17 30 -32 -10 -10 -24 -17 -31
-17 -14 0 -69 -29 -86 -45 -25 -24 -10 -50 44 -77 30 -15 61 -34 70 -42 9 -7
29 -17 46 -20 16 -4 33 -12 36 -18 4 -6 45 -10 93 -10 82 -1 86 -2 86 -23 0
-19 -6 -22 -43 -22 -53 -1 -112 -25 -126 -52 -16 -30 17 -62 159 -157 30 -21
58 -42 62 -48 4 -6 10 -7 14 -4 3 4 19 1 35 -7 15 -8 43 -15 61 -15 45 0 62
-13 53 -39 -3 -12 -10 -19 -14 -17 -10 7 -67 17 -116 21 -66 5 -109 -49 -67
-86 22 -20 46 -50 69 -86 39 -61 103 -133 119 -133 6 0 14 -6 17 -14 7 -19
122 -75 168 -82 20 -4 51 -19 68 -35 17 -15 31 -25 31 -21 0 9 20 -21 20 -30
0 -5 -6 -8 -13 -8 -8 0 -22 -9 -32 -20 -19 -21 -19 -21 -39 -1 -44 42 -63 57
-98 79 -43 27 -147 64 -158 57 -5 -3 -11 -1 -15 5 -3 5 -15 10 -26 10 -11 0
-18 -4 -15 -9 3 -5 -1 -11 -9 -15 -19 -7 -19 -30 -2 -64 8 -15 31 -61 52 -102
53 -107 81 -151 88 -143 4 3 7 1 7 -6 0 -17 45 -56 80 -71 16 -7 28 -16 25
-20 -3 -4 7 -11 23 -15 15 -4 33 -11 39 -17 15 -12 18 -32 4 -24 -5 3 -11 -1
-15 -9 -8 -23 -36 -18 -58 10 -11 14 -24 25 -30 25 -5 0 -23 10 -40 21 -26 19
-56 29 -130 44 -26 5 -51 -29 -42 -57 4 -13 7 -27 6 -31 -1 -5 1 -6 6 -3 7 4
30 -57 38 -99 4 -26 38 -95 46 -95 5 0 7 -3 4 -8 -6 -10 79 -123 88 -115 3 3
6 -1 6 -11 0 -9 4 -15 9 -12 5 3 21 -6 35 -19 27 -25 27 -45 1 -45 -7 0 -16
-7 -19 -15 -8 -22 -42 -3 -50 29 -7 29 -149 176 -169 176 -38 0 -47 -39 -54
-249 -3 -101 -1 -141 6 -136 6 3 14 -2 17 -12 12 -40 58 -129 77 -150 21 -24
18 -27 -20 -23 -13 1 -23 -3 -23 -8 0 -5 -9 -12 -20 -15 -17 -4 -20 0 -20 23
0 16 -5 32 -10 35 -6 4 -8 11 -5 16 4 5 2 9 -3 9 -5 0 -9 6 -9 13 0 12 -24 65
-47 104 -39 67 -78 81 -99 36 -6 -16 -14 -30 -17 -33 -9 -7 -52 -159 -57 -195
-11 -96 -10 -172 3 -198 8 -15 14 -33 12 -40 -1 -6 3 -21 9 -32 12 -24 27 -85
16 -69 -4 6 -23 10 -40 9 -18 -1 -31 0 -29 4 7 14 -13 163 -25 177 -6 8 -9 17
-6 20 3 4 -4 25 -15 48 -12 22 -21 44 -20 47 1 4 -8 9 -19 12 -26 7 -64 -29
-86 -81 -8 -20 -23 -48 -33 -62 -15 -22 -44 -96 -43 -110 1 -3 -6 -22 -15 -43
-11 -30 -13 -60 -9 -134 4 -53 12 -102 18 -109 17 -20 2 -31 -21 -16 -11 7
-26 12 -34 12 -11 0 -13 12 -9 57 6 68 -20 209 -44 235 -22 25 -35 23 -65 -12
-14 -16 -25 -30 -23 -30 2 0 -12 -16 -31 -36 -18 -20 -31 -40 -28 -45 3 -5 1
-9 -4 -9 -5 0 -17 -16 -26 -35 -9 -19 -21 -37 -26 -40 -6 -3 -10 -15 -10 -26
0 -11 -8 -32 -17 -46 -14 -22 -18 -50 -18 -149 -1 -118 -1 -122 -30 -160 -16
-22 -37 -45 -47 -52 -17 -13 -27 -69 -10 -58 5 3 9 -2 9 -11 0 -13 -3 -12 -17
4 -8 11 -20 22 -25 24 -70 29 -103 64 -96 102 1 5 -3 6 -9 2 -5 -3 -10 -1 -10
5 0 12 -41 30 -80 35 -14 1 -29 3 -33 4 -5 0 -5 6 -2 11 4 6 3 10 -2 9 -17 -5
-59 23 -78 52 -11 16 -23 29 -27 29 -5 0 -8 6 -8 13 0 6 -6 24 -14 39 -8 14
-17 49 -21 78 -6 40 -4 55 9 69 9 10 21 33 26 50 7 26 5 36 -11 52 -19 19 -27
45 -10 35 5 -3 11 1 15 9 3 8 14 15 24 15 11 0 25 7 32 15 7 8 16 12 21 9 5
-3 8 -2 7 3 -1 4 6 21 17 37 21 32 25 118 6 124 -6 2 -11 9 -11 15 0 7 -18 25
-40 40 -44 31 -51 60 -20 77 29 16 49 60 39 87 -4 13 -5 22 -1 21 15 -2 92 15
87 20 -3 3 14 12 37 20 24 8 53 24 66 35 13 12 27 21 30 20 12 -5 42 8 42 17
0 5 25 26 55 47 30 21 55 41 55 45 0 4 13 20 28 35 15 16 43 47 61 71 37 48
114 192 103 192 -4 0 -2 4 4 8 24 16 73 231 78 342 1 19 9 46 19 60 9 13 17
36 17 50 0 26 -32 84 -42 75 -3 -3 -11 1 -18 10 -12 15 -4 21 23 16 5 -1 6 3
2 9 -3 5 1 13 9 16 23 9 20 50 -5 67 -19 14 -20 16 -3 25 18 10 74 -3 74 -17
0 -4 19 -6 42 -4 33 2 49 9 71 33 25 27 28 37 23 68 -6 41 -58 92 -87 87 -10
-2 -20 3 -23 11 -3 8 -1 14 3 14 11 0 9 19 -7 47 -13 23 -1 33 39 33 23 0 61
42 71 78 6 19 2 35 -15 59 -22 33 -27 35 -82 35 -24 1 -27 3 -14 11 13 8 14
15 5 41 -6 17 -15 34 -19 37 -12 9 4 90 19 96 7 2 10 11 8 18 -3 7 -1 16 5 20
19 11 12 53 -11 70 -22 14 -23 14 -29 -8 -3 -13 -10 -53 -13 -90 -6 -54 -12
-70 -29 -81 -40 -26 -99 -21 -110 8 -15 38 47 90 94 81 l26 -6 7 98 c4 53 9
99 11 101 8 8 85 -80 91 -104 4 -15 -1 -36 -14 -59 -20 -33 -18 -51 4 -37 19
12 34 50 34 84 0 36 -31 86 -76 125 -24 21 -28 21 -50 6 -17 -11 -24 -25 -25
-52 -5 -114 -5 -114 -29 -123 -16 -6 -28 -4 -40 7 -9 8 -20 15 -24 15 -4 0
-19 11 -34 25 -15 14 -33 25 -40 25 -11 0 -12 7 -6 28 4 15 7 37 7 49 -1 13 4
20 9 17 7 -4 7 0 0 12 -13 26 -5 43 19 37 37 -10 94 25 117 71 l20 43 -20 20
c-17 18 -25 19 -56 11 -24 -7 -43 -6 -59 1 -33 15 -68 14 -82 -3 -6 -7 -14
-44 -17 -82 -7 -80 -9 -84 -35 -84 -11 0 -36 -12 -54 -26 -29 -22 -40 -25 -82
-19 -26 3 -65 11 -87 17 -32 10 -43 9 -68 -5 -16 -9 -43 -17 -59 -17 -16 0
-29 -4 -29 -8 0 -5 -6 -9 -12 -10 -7 0 -22 -2 -33 -4 -15 -2 -20 2 -19 20 1
12 -4 22 -10 22 -6 0 1 10 16 23 22 17 26 28 21 50 -3 16 -13 31 -22 35 -9 3
-29 18 -45 34 -37 35 -59 36 -74 3 -9 -19 -8 -32 4 -61 25 -59 21 -85 -20
-126 -58 -58 -41 -122 36 -134 32 -6 40 -2 67 25 17 18 31 36 31 40 0 5 10 9
23 8 12 0 43 3 68 7 31 5 49 4 53 -3 4 -6 16 -11 27 -11 24 0 25 -20 2 -21
-39 -3 -59 -7 -86 -18 -15 -6 -31 -10 -35 -9 -15 4 -77 -15 -84 -25 -3 -6 -17
-12 -29 -14 -13 -2 -26 -7 -29 -11 -3 -5 -23 -19 -45 -32 -22 -13 -42 -27 -45
-30 -3 -3 -26 -21 -52 -40 -27 -18 -48 -41 -48 -49 -1 -9 -10 10 -20 42 -20
57 -20 57 0 97 25 48 26 99 3 139 -21 35 -79 71 -117 71 -31 0 -32 5 -6 61 35
78 19 189 -36 251 -43 49 -50 51 -79 26 -51 -44 -66 -130 -36 -211 4 -12 6
-28 3 -36 -3 -9 0 -11 8 -6 12 7 -17 -56 -30 -65 -30 -21 -55 -139 -39 -187 6
-18 15 -33 20 -33 5 0 8 -4 6 -9 -3 -11 54 -61 71 -61 6 0 12 -4 12 -10 0 -5
7 -10 15 -10 8 0 15 -4 15 -9 0 -5 -7 -14 -15 -21 -8 -7 -15 -29 -15 -49 0
-44 33 -80 86 -96 l34 -10 -57 -39 c-31 -22 -54 -35 -50 -29 9 14 -30 53 -52
53 -35 0 -67 -59 -41 -75 16 -10 11 -22 -12 -30 -13 -4 -25 -7 -28 -7 -13 1
-8 -37 6 -49 11 -9 24 -9 58 1 25 7 50 10 58 7 8 -3 5 -6 -7 -6 -11 -1 -28
-10 -38 -21 -24 -28 -21 -31 11 -14 15 7 32 14 38 14 25 0 135 83 216 163 66
65 87 81 91 68 5 -20 -138 -153 -214 -201 -57 -35 -148 -67 -177 -62 -13 2
-36 22 -52 44 -29 39 -29 41 -12 57 31 27 36 68 12 108 -11 19 -21 46 -22 60
-3 34 -63 83 -92 76 -11 -3 -31 -6 -43 -7 -11 0 -19 -4 -16 -8 2 -5 -1 -8 -6
-8 -6 0 -11 5 -11 11 0 5 -4 7 -10 4 -5 -3 -10 -2 -10 4 0 17 -26 1 -40 -25
-17 -31 3 -74 35 -74 22 0 39 -24 48 -67 7 -32 -6 -36 -36 -13 -14 11 -30 20
-37 20 -6 0 -8 5 -5 10 3 6 3 10 -2 10 -17 0 -43 64 -43 105 0 72 -68 125
-130 104 -32 -12 -66 -62 -54 -81 4 -7 3 -8 -5 -4 -7 5 -9 16 -5 28 4 13 2 18
-4 14 -5 -3 -12 1 -16 9 -7 18 -57 20 -74 3 -17 -17 -15 -58 6 -81 17 -20 16
-20 -18 -12 -49 11 -74 9 -110 -6 -32 -14 -60 -62 -60 -101 0 -34 33 -78 67
-90 22 -8 29 -15 20 -20 -14 -10 66 0 107 13 50 16 142 7 130 -12 -3 -5 5 -9
16 -9 12 0 33 -9 47 -20 14 -11 22 -20 19 -20 -4 0 6 -12 23 -26 17 -14 31
-32 31 -40 0 -9 -4 -13 -8 -10 -5 3 -23 8 -41 11 -87 15 -135 -80 -72 -145 15
-17 37 -30 47 -30 23 0 49 -16 38 -22 -5 -3 -20 -8 -34 -12 -29 -7 -60 -33
-77 -63 -13 -24 -7 -60 15 -86 9 -10 17 -39 18 -65 3 -78 13 -152 23 -171 5
-9 11 -35 13 -57 2 -21 9 -45 16 -52 6 -7 12 -20 12 -28 0 -39 139 -274 162
-274 4 0 8 -5 8 -11 0 -15 26 -39 34 -32 3 4 6 0 6 -7 0 -16 42 -55 81 -75 16
-9 29 -19 29 -24 0 -11 141 -81 163 -81 9 0 17 -4 17 -9 0 -7 33 -17 77 -23 8
-1 9 -7 2 -19 -12 -23 6 -63 38 -84 12 -9 23 -23 23 -33 0 -18 -33 -52 -49
-52 -17 0 -53 -61 -58 -98 -8 -59 52 -142 102 -142 8 0 15 -4 15 -10 0 -5 7
-10 16 -10 13 0 12 -5 -6 -35 -24 -39 -20 -69 12 -86 20 -11 20 -14 5 -114 -6
-42 -30 -104 -39 -99 -5 3 -7 2 -6 -3 4 -12 -32 -54 -67 -79 -36 -25 -89 -44
-123 -44 -14 0 -22 -3 -19 -7 4 -3 0 -11 -9 -17 -8 -6 -16 -20 -18 -31 -1 -11
-16 -26 -31 -34 -28 -14 -122 -101 -141 -131 -5 -8 -22 -22 -38 -30 -16 -8
-34 -22 -39 -31 -15 -24 10 -78 39 -85 13 -3 24 -10 24 -15 0 -15 -53 -9 -99
11 -24 11 -49 20 -57 20 -8 0 -14 5 -14 10 0 6 -9 10 -20 10 -21 0 -93 31 -98
42 -2 3 -25 12 -53 19 -27 7 -49 16 -49 21 0 4 -8 8 -18 8 -9 0 -34 9 -55 20
-21 11 -41 19 -45 17 -4 -3 -16 -1 -27 4 -15 6 -11 8 20 8 41 1 151 58 168 87
6 11 13 12 29 3 13 -7 18 -7 14 -1 -4 7 8 10 33 9 22 0 37 -5 34 -11 -4 -5 3
-7 16 -3 23 6 91 -20 153 -60 51 -32 84 -30 119 8 16 17 29 34 29 38 0 11 -48
50 -54 44 -3 -3 -11 6 -17 21 -7 14 -15 26 -19 26 -15 0 -22 46 -20 129 2 87
-18 214 -32 205 -4 -3 -8 2 -8 10 0 21 -32 86 -42 86 -4 0 -8 7 -8 15 0 8 -4
15 -8 15 -5 0 -13 10 -19 23 -19 39 -87 117 -104 117 -31 0 -53 -54 -65 -150
-1 -14 -3 -27 -4 -30 -6 -16 -4 -108 3 -123 7 -15 5 -18 -10 -16 -10 2 -24 0
-30 -4 -23 -14 -32 1 -22 36 17 59 11 202 -11 268 -20 58 -69 159 -90 184 -5
7 -7 14 -4 17 2 3 -9 18 -27 32 -30 25 -33 26 -50 10 -20 -18 -58 -109 -66
-159 -3 -16 -7 -37 -8 -45 -2 -8 -4 -33 -4 -56 -1 -39 -2 -40 -31 -36 -18 3
-30 0 -30 -7 0 -6 -4 -11 -9 -11 -5 0 -4 17 1 40 6 22 14 40 18 40 14 0 33
161 27 226 -6 65 -57 230 -83 272 -19 30 -46 28 -70 -5 -33 -46 -81 -145 -93
-190 -7 -26 -18 -43 -26 -43 -8 0 -15 5 -15 11 0 7 -13 9 -37 5 -28 -5 -34 -4
-23 3 8 6 11 11 6 11 -5 0 -1 10 10 23 31 35 70 117 84 176 9 36 11 98 8 186
-4 109 -9 135 -24 153 -10 12 -23 22 -29 22 -15 0 -90 -73 -124 -121 -16 -21
-32 -35 -36 -31 -3 4 -6 2 -4 -3 4 -16 -19 -65 -31 -65 -5 0 -10 4 -10 8 0 5
-12 14 -27 21 l-28 13 26 21 c14 12 39 32 55 45 15 12 25 22 21 22 -4 0 4 12
18 28 14 15 33 44 42 65 9 20 20 37 25 37 4 0 7 3 7 8 -1 4 0 10 1 15 1 4 3
10 5 15 4 14 16 48 45 120 16 39 24 72 19 72 -6 0 -8 4 -5 9 6 8 -21 26 -35
23 -4 -1 -22 -3 -40 -5 -41 -5 -91 -27 -102 -44 -4 -7 -14 -13 -22 -13 -8 0
-28 -13 -44 -29 l-29 -28 -27 21 -27 22 41 18 c22 11 41 22 41 26 0 4 12 13
27 21 35 18 89 70 119 115 34 49 94 170 94 188 0 8 4 16 9 18 22 8 20 45 -3
67 l-23 22 -69 -23 c-38 -12 -71 -23 -74 -23 -21 -4 -50 -18 -50 -24 0 -4 -16
-16 -35 -27 -19 -10 -35 -22 -35 -26 0 -3 -9 -10 -20 -13 -11 -4 -18 -10 -15
-15 3 -4 -1 -13 -9 -19 -10 -8 -15 -5 -24 14 -6 14 -20 25 -29 26 -11 0 -13 3
-5 6 6 2 12 9 12 14 0 22 58 68 95 75 22 5 42 9 45 10 3 1 15 5 28 9 12 4 22
11 22 16 0 5 6 9 13 9 14 0 109 69 116 83 1 5 13 18 25 31 13 12 38 44 57 72
19 27 47 66 63 87 l29 38 -22 22 c-17 17 -33 22 -82 22 -33 0 -63 -3 -65 -7
-9 -13 -52 -9 -57 6 -7 18 27 33 93 40 30 3 56 10 58 16 2 6 8 8 13 4 5 -3 9
-1 9 4 0 10 37 25 53 23 5 -1 6 3 2 9 -3 5 5 15 19 22 14 6 26 15 26 20 0 4
24 24 53 42 28 19 58 44 65 56 12 19 10 24 -15 43 -15 12 -30 22 -33 23 -3 0
-12 4 -20 7 -8 3 -33 8 -54 9 -29 3 -41 9 -47 26 -8 21 -7 22 48 18 45 -3 74
2 137 26 45 16 87 30 93 30 7 1 11 3 8 6 -2 3 17 15 44 27 67 31 72 52 24 92
-21 18 -47 33 -58 33 -11 0 -31 7 -43 14 -23 12 -23 13 25 31 44 17 59 27 114
78 10 9 19 15 19 12 0 -3 9 4 20 15 12 12 18 26 14 33 -4 7 -4 9 1 5 7 -7 75
58 75 71 0 14 -17 29 -50 45 -41 20 -172 20 -205 -1 -18 -11 -26 -9 -64 16
-24 16 -49 27 -55 25 -8 -3 -11 29 -11 105 0 116 -9 142 -47 134z m22 -90 c0
-157 -41 -277 -125 -371 -39 -44 -75 -113 -75 -145 0 -5 11 1 23 15 13 14 42
38 64 52 22 15 55 49 72 76 83 128 230 190 376 160 l60 -12 -86 -82 c-108
-103 -175 -137 -279 -144 -93 -5 -130 -25 -225 -121 -38 -39 -67 -71 -63 -71
19 0 85 36 112 61 17 16 55 41 84 55 47 24 61 26 135 22 59 -4 95 -12 130 -28
26 -13 47 -26 47 -30 0 -13 -193 -101 -244 -111 -46 -10 -68 -9 -127 6 -68 16
-74 16 -118 0 -61 -23 -73 -35 -136 -130 -46 -71 -125 -210 -125 -221 0 -2 17
6 38 19 20 13 53 29 72 36 48 16 148 70 132 71 -7 0 -47 -15 -88 -34 -81 -38
-84 -33 -19 41 55 64 146 105 237 107 72 1 171 -20 166 -34 -4 -9 -131 -108
-187 -145 -51 -34 -130 -55 -210 -55 -88 0 -152 -40 -185 -114 -45 -101 -124
-386 -107 -386 3 0 16 17 27 38 12 20 60 69 108 107 47 39 85 74 86 79 0 11
-63 -36 -112 -83 -47 -44 -49 -27 -6 59 39 79 92 131 175 172 55 27 80 33 155
36 l90 5 -51 -64 c-27 -35 -70 -89 -94 -119 -57 -72 -129 -122 -219 -150 -53
-17 -82 -32 -107 -59 -36 -38 -70 -103 -71 -136 0 -16 5 -13 28 15 18 21 33
31 41 26 8 -5 2 -19 -23 -46 -46 -51 -57 -98 -54 -222 l3 -103 19 35 c10 19
27 73 37 119 10 46 30 102 43 125 36 61 110 132 169 160 52 25 167 59 174 52
7 -6 -68 -166 -102 -221 -47 -73 -105 -125 -192 -170 -68 -35 -82 -47 -110
-95 -22 -35 -33 -67 -33 -92 0 -45 16 -50 25 -8 4 16 11 32 16 35 5 4 9 19 9
34 0 37 35 69 58 55 36 -23 22 -84 -19 -84 -13 0 -28 -18 -47 -57 -25 -51 -28
-63 -20 -103 14 -68 64 -229 92 -290 l24 -55 7 36 c4 22 2 45 -5 58 -22 41 17
90 60 76 38 -12 38 -82 1 -92 -23 -6 -28 -17 -36 -80 -6 -52 -15 -32 120 -262
32 -54 51 -68 35 -25 -6 14 -10 38 -10 53 0 15 -12 56 -27 92 -21 51 -26 81
-27 150 -1 79 2 90 36 160 34 68 134 189 158 189 25 0 31 -269 7 -351 -9 -30
-37 -87 -62 -126 -40 -63 -47 -80 -47 -126 0 -30 5 -71 12 -93 34 -104 319
-374 558 -527 39 -26 72 -45 72 -42 0 14 -50 87 -87 128 -92 100 -133 251
-103 378 16 68 49 159 58 159 10 0 89 -141 113 -202 33 -83 41 -156 27 -240
-20 -120 -17 -148 22 -212 34 -55 39 -59 172 -127 75 -38 140 -69 143 -69 10
0 -37 64 -54 74 -46 28 -105 96 -134 155 -31 64 -32 69 -31 191 0 85 5 137 15
163 l15 39 50 -69 c126 -169 146 -223 145 -380 -1 -111 -1 -112 32 -155 18
-24 43 -47 55 -53 28 -12 27 -16 -1 -43 l-23 -22 -104 51 c-91 44 -114 51
-170 53 -60 1 -69 -2 -115 -35 -72 -52 -125 -70 -167 -59 -48 14 -138 12 -193
-5 -44 -13 -56 -12 -112 2 -35 8 -63 19 -63 24 0 15 168 119 226 140 91 33
210 31 297 -5 37 -15 77 -26 90 -23 21 3 21 4 2 12 -11 4 -83 47 -160 95 -125
77 -149 88 -225 104 -141 28 -145 29 -137 20 5 -5 34 -14 65 -19 l57 -11 -50
-23 c-147 -67 -285 -58 -476 30 -48 23 -86 45 -84 50 11 17 172 71 245 81 123
18 185 2 363 -93 66 -36 58 -16 -16 43 -252 198 -497 514 -608 784 -43 104
-116 183 -193 207 -72 23 -163 84 -214 143 -40 46 -169 281 -160 290 7 7 145
-43 200 -73 106 -57 233 -224 240 -316 2 -16 16 -40 37 -60 25 -24 32 -27 27
-12 -4 11 -14 47 -22 80 -28 115 -34 132 -72 191 -31 47 -44 59 -66 60 -27 2
-55 27 -56 51 0 16 28 43 46 43 22 0 54 -38 54 -64 0 -14 5 -28 11 -32 6 -3
18 -19 27 -34 16 -26 17 -17 17 189 1 230 11 312 61 501 63 242 187 489 343
682 95 118 116 175 105 292 -10 113 18 207 89 301 40 52 109 125 119 125 4 0
8 -30 8 -67z m2737 -4 c34 -38 77 -100 95 -136 31 -64 33 -73 35 -193 3 -156
21 -217 91 -298 199 -232 347 -557 400 -877 l18 -110 22 49 c12 26 19 52 16
57 -8 14 14 47 36 54 26 8 50 -11 50 -39 0 -28 -18 -46 -45 -46 -16 0 -28 -14
-48 -57 -26 -55 -27 -65 -24 -173 3 -63 1 -151 -3 -195 -4 -44 -7 -81 -5 -83
5 -6 60 85 65 108 7 34 52 59 74 41 35 -29 11 -83 -37 -83 -16 -1 -33 -15 -59
-52 -39 -56 -47 -77 -81 -213 l-24 -92 99 91 c54 50 101 95 105 101 12 20 -27
-9 -77 -57 -28 -27 -53 -46 -56 -44 -10 11 39 120 80 176 55 74 111 122 189
160 78 38 167 65 167 50 0 -6 -26 -60 -57 -120 -76 -147 -148 -225 -251 -274
-42 -20 -92 -43 -110 -52 -50 -24 -107 -99 -146 -190 -39 -94 -88 -184 -151
-278 -25 -37 -44 -69 -42 -71 7 -7 92 43 110 65 20 24 56 29 75 10 15 -15 15
-51 0 -66 -15 -15 -60 -16 -75 -1 -8 8 -29 3 -76 -20 -53 -25 -78 -46 -137
-116 -85 -101 -246 -255 -333 -321 -58 -44 -60 -46 -28 -39 19 4 52 20 74 36
88 64 214 90 333 70 73 -13 188 -52 220 -76 18 -13 14 -16 -51 -46 -213 -97
-339 -108 -483 -42 -53 24 -55 26 -32 33 14 5 39 8 57 9 17 1 35 6 39 12 8 13
-37 7 -158 -21 -59 -13 -97 -30 -155 -68 -43 -28 -114 -71 -158 -96 -62 -35
-74 -46 -54 -46 14 0 52 11 85 24 111 45 218 43 333 -5 48 -21 201 -119 201
-130 0 -3 -30 -13 -66 -22 -58 -14 -70 -14 -106 -1 -46 16 -157 19 -207 4 -40
-11 -72 0 -163 60 -59 39 -66 41 -118 36 -37 -3 -90 -22 -163 -56 l-108 -51
-19 23 c-25 29 -24 31 2 43 12 6 37 32 55 59 33 49 34 50 27 131 -11 140 20
232 132 381 l64 86 11 -28 c6 -16 16 -64 22 -106 21 -145 -19 -276 -112 -362
-69 -65 -121 -120 -121 -129 0 -4 63 24 141 64 148 76 174 99 213 193 14 35
14 44 0 109 -22 94 -15 202 19 283 36 89 107 208 118 197 18 -18 51 -129 58
-197 14 -127 -20 -235 -102 -323 -36 -40 -103 -143 -92 -143 5 0 168 112 245
168 89 66 275 245 335 322 47 61 65 111 65 181 0 38 -8 58 -41 108 -51 77 -78
145 -86 220 -8 80 6 271 20 271 22 0 127 -120 158 -181 44 -87 52 -204 20
-294 -25 -67 -51 -185 -42 -185 8 1 44 57 108 170 50 87 54 98 48 139 -5 31
-15 52 -36 70 -38 33 -40 77 -4 93 44 20 81 -32 56 -80 -4 -10 -4 -32 2 -52
l9 -35 34 85 c18 47 45 133 59 193 l26 107 -27 60 c-18 39 -33 60 -44 60 -44
0 -63 69 -23 84 24 10 65 -21 62 -47 -1 -12 7 -42 17 -67 l19 -45 7 45 c3 25
7 113 7 196 l1 151 -30 42 c-17 23 -37 44 -45 48 -15 5 -11 23 5 23 5 0 23
-14 40 -31 29 -30 31 -30 26 -8 -3 13 -10 56 -16 94 -6 39 -22 119 -37 178
-27 117 -48 151 -127 208 -31 23 -42 26 -58 18 -14 -8 -25 -6 -44 6 -33 21
-33 62 0 71 28 7 66 -11 66 -30 0 -7 20 -26 45 -42 25 -15 45 -32 45 -36 0 -4
5 -8 10 -8 6 0 -1 21 -14 48 -37 72 -88 98 -202 105 -96 5 -163 28 -230 78
-161 122 -155 118 -137 127 36 20 135 34 186 27 95 -13 171 -57 229 -134 34
-45 35 -58 3 -37 -32 21 -126 58 -132 52 -5 -5 108 -59 149 -71 13 -4 37 -18
55 -31 17 -13 35 -24 38 -24 10 0 -60 123 -131 231 -59 90 -67 98 -120 119
-56 23 -57 23 -125 5 -93 -24 -140 -15 -272 48 l-108 51 23 18 c62 47 193 62
282 32 27 -9 68 -36 94 -60 25 -24 54 -44 64 -44 9 0 20 -4 23 -10 3 -5 11
-10 16 -10 18 0 -36 62 -109 125 l-73 63 -83 4 c-114 6 -184 41 -289 144 -42
42 -75 79 -73 81 9 10 83 23 126 22 61 0 161 -37 214 -79 25 -19 59 -58 78
-86 18 -29 46 -60 62 -69 16 -10 47 -34 68 -53 21 -19 38 -32 38 -30 0 31 -43
113 -81 156 -54 59 -92 132 -108 210 -12 60 -15 222 -3 221 4 0 35 -32 69 -70z
m-2648 -198 c11 -7 5 -14 -26 -30 -22 -11 -43 -17 -47 -14 -11 11 -6 41 10 57
15 16 23 14 63 -13z m-451 -58 c35 -82 48 -180 34 -254 -10 -53 -73 -209 -85
-209 -2 0 -2 39 -1 88 2 59 0 78 -5 57 -5 -16 -9 -57 -10 -91 -1 -76 -11 -87
-27 -32 -7 24 -20 68 -29 98 -20 67 -15 161 13 240 32 89 73 173 81 164 4 -5
17 -32 29 -61z m3461 -35 c64 -151 67 -249 13 -396 l-19 -54 -9 84 -9 83 -5
-75 c-4 -41 -7 -69 -8 -62 -1 8 -11 26 -21 41 -11 15 -29 56 -41 91 -30 90
-25 215 15 318 15 39 30 72 34 72 4 0 27 -46 50 -102z m-3089 29 c0 -2 -12
-14 -27 -28 -14 -13 -24 -19 -21 -14 3 6 8 18 11 28 5 14 37 26 37 14z m1045
-75 c40 -58 47 -148 16 -218 -18 -40 -20 -53 -10 -76 9 -23 16 -26 39 -22 40
8 89 -21 106 -63 18 -43 11 -82 -21 -117 l-24 -26 19 -42 c25 -55 25 -89 0
-121 -27 -33 -69 -42 -114 -23 -33 14 -36 18 -36 55 0 39 18 61 49 61 14 0 51
-37 51 -50 0 -5 -9 -19 -20 -30 l-20 -20 25 0 c28 0 65 32 65 55 0 11 -27 90
-35 102 0 1 -18 -2 -38 -8 -76 -21 -164 30 -188 109 -14 49 0 104 46 172 l35
52 -20 58 c-11 33 -20 72 -20 87 0 35 39 115 54 110 6 -2 24 -22 41 -45z
m1680 -22 c3 -5 1 -10 -4 -10 -6 0 -11 5 -11 10 0 6 2 10 4 10 3 0 8 -4 11
-10z m-2841 -39 c3 -5 -1 -11 -9 -14 -9 -4 -12 -1 -8 9 6 16 10 17 17 5z
m2890 -17 c3 -8 2 -12 -4 -9 -6 3 -10 10 -10 16 0 14 7 11 14 -7z m-3026 -33
c2 -13 -1 -28 -7 -34 -6 -6 -11 -21 -11 -34 0 -13 -5 -23 -11 -23 -6 0 -8 7
-5 16 3 9 -1 29 -11 44 -14 24 -14 31 -3 45 18 22 44 15 48 -14z m3191 11 c7
-14 6 -25 -5 -41 -9 -12 -14 -31 -11 -42 3 -10 1 -19 -4 -19 -5 0 -9 5 -9 11
0 6 -7 26 -16 45 -13 27 -14 37 -4 49 17 20 37 19 49 -3z m-867 -2 c27 -8 50
-8 79 0 57 16 61 5 8 -21 -41 -19 -42 -20 -11 -15 18 3 32 1 32 -4 0 -6 -15
-19 -32 -30 -31 -19 -46 -20 -99 -4 -14 4 -17 -9 -23 -78 -5 -72 -10 -86 -32
-105 -31 -28 -75 -30 -98 -4 -35 38 15 98 73 89 33 -5 32 -7 47 125 3 31 9 57
13 57 3 0 23 -5 43 -10z m-582 -85 c14 -4 20 -15 19 -33 0 -25 -1 -25 -9 -6
-7 19 -38 40 -46 31 -1 -1 6 -39 18 -85 19 -76 19 -83 4 -107 -19 -28 -62 -43
-85 -28 -43 27 -9 103 45 103 21 0 25 4 19 18 -17 46 -44 156 -39 163 3 5 16
-4 30 -20 14 -17 34 -33 44 -36z m-2125 -110 c63 -111 79 -226 49 -340 -18
-73 -34 -93 -34 -44 0 36 -19 114 -26 107 -2 -3 3 -42 11 -89 18 -100 18 -99
5 -99 -5 0 -10 8 -10 18 0 9 -18 46 -40 82 -22 36 -47 87 -55 114 -23 77 -19
213 11 346 l6 25 24 -30 c14 -16 40 -57 59 -90z m4009 11 c9 -58 16 -122 16
-143 0 -60 -24 -146 -55 -199 -16 -27 -39 -69 -52 -94 l-24 -45 5 35 c15 100
17 145 7 130 -6 -8 -11 -31 -11 -50 -1 -61 -15 -64 -32 -8 -46 152 -24 268 80
425 19 29 38 53 42 53 4 0 15 -47 24 -104z m-3674 50 c-14 -14 -24 0 -16 21 6
15 8 15 16 3 6 -9 5 -19 0 -24z m3260 9 c0 -6 -6 -12 -13 -12 -8 0 -14 6 -14
12 0 6 6 12 14 12 7 0 13 -6 13 -12z m-1246 -71 c9 -8 16 -19 16 -24 0 -11
-29 -40 -39 -40 -4 0 -15 8 -24 18 -15 16 -15 20 -1 40 18 26 27 27 48 6z
m-74 -23 c0 -10 -98 -36 -107 -28 -3 3 17 12 43 21 60 18 64 18 64 7z m215 -1
c4 -6 -13 -10 -44 -10 -27 0 -53 5 -56 10 -4 6 13 10 44 10 27 0 53 -4 56 -10z
m-2015 -40 c8 -15 6 -24 -10 -40 -25 -25 -34 -25 -60 2 -18 20 -19 23 -3 40
21 24 60 23 73 -2z m1975 1 c27 -1 49 -10 67 -28 23 -22 36 -26 75 -25 34 2
57 -4 78 -18 17 -11 26 -20 20 -21 -5 0 0 -4 13 -9 26 -11 39 -37 25 -51 -11
-11 -42 2 -70 28 -7 6 -22 15 -33 18 -11 3 -20 11 -20 16 0 6 -4 8 -8 5 -5 -3
-21 2 -36 10 -16 7 -36 14 -45 14 -9 1 -33 7 -53 14 -22 8 -35 9 -31 3 4 -6
-3 -8 -18 -4 -13 4 -35 7 -48 7 -20 0 -21 2 -11 15 7 8 9 15 4 15 -5 1 2 7 16
15 14 7 27 10 30 6 3 -4 23 -8 45 -10z m1049 4 c8 -8 21 -15 28 -15 8 0 23 -7
34 -15 18 -15 17 -16 -13 -10 -21 4 -40 1 -57 -10 -43 -29 -90 17 -54 53 16
16 44 15 62 -3z m326 -25 c12 -23 4 -47 -21 -61 -14 -7 -19 -21 -19 -51 0 -51
-10 -43 -21 14 -4 24 -10 53 -14 65 -5 15 -1 27 14 42 23 23 46 19 61 -9z
m-3676 3 c6 -15 2 -76 -10 -130 -7 -35 -19 -27 -20 12 0 23 -8 43 -22 56 -23
20 -26 36 -16 63 8 22 60 21 68 -1z m221 -12 c-3 -2 0 -10 7 -18 6 -7 9 -15 7
-16 -33 -24 -62 -37 -69 -32 -6 4 -13 -1 -16 -9 -7 -17 -24 -22 -24 -7 0 5 6
16 13 23 7 7 21 25 31 40 10 15 26 26 36 25 11 -1 17 -3 15 -6z m2355 -27 c65
-43 65 -42 58 -50 -7 -6 -128 68 -128 78 0 14 15 8 70 -28z m880 -19 c0 -7 7
-15 15 -19 17 -6 20 -26 4 -26 -6 0 -17 6 -24 13 -35 31 -45 37 -62 38 -10 1
-2 5 17 8 40 8 50 5 50 -14z m-1112 -10 c125 -30 231 -105 279 -198 31 -62 24
-72 -10 -14 -54 91 -159 164 -279 192 -215 50 -453 -41 -622 -240 -52 -61
-139 -131 -201 -162 -50 -26 -145 -54 -145 -44 0 4 19 14 43 21 23 7 63 23 88
36 47 24 177 127 193 154 5 8 32 38 60 65 171 168 389 238 594 190z m-134 -56
c-7 -12 -94 -12 -94 0 0 12 27 17 67 13 18 -2 30 -8 27 -13z m66 17 c0 -2 -9
-6 -20 -9 -11 -3 -20 -1 -20 4 0 5 9 9 20 9 11 0 20 -2 20 -4z m-183 -28 c-3
-8 -6 -5 -6 6 -1 11 2 17 5 13 3 -3 4 -12 1 -19z m-17 3 c0 -11 -40 -22 -54
-14 -5 4 -1 10 10 14 27 11 44 11 44 0z m325 -8 c20 -3 31 -11 32 -23 1 -16
-3 -16 -38 -7 -22 5 -44 19 -51 30 -9 17 -8 19 8 13 11 -4 33 -10 49 -13z
m-70 -98 c8 -120 2 -138 -49 -133 -55 5 -44 78 11 78 23 0 25 3 20 40 -2 23
-6 42 -8 44 -2 1 -26 -4 -52 -11 l-49 -15 7 -73 c6 -66 5 -75 -14 -94 -36 -36
-81 -22 -81 26 0 24 26 43 59 43 17 0 20 5 16 28 -2 15 -6 52 -9 82 l-6 56 68
16 c37 8 70 16 74 17 3 0 9 -46 13 -104z m-2659 -52 c71 -108 108 -269 87
-383 l-8 -45 -30 88 c-16 49 -33 90 -37 93 -14 9 -9 -12 23 -98 37 -98 50
-148 39 -148 -4 0 -12 12 -18 28 -5 15 -32 52 -59 82 -27 30 -57 68 -67 83
-47 75 -69 207 -59 348 l6 90 44 -43 c24 -24 60 -66 79 -95z m4394 0 c0 -180
-31 -279 -120 -376 -26 -29 -53 -63 -59 -75 -33 -63 -12 35 37 166 2 6 0 12
-5 12 -6 0 -21 -36 -34 -80 -13 -44 -27 -80 -30 -80 -4 0 -6 57 -5 128 1 102
6 138 22 183 39 103 168 275 185 247 5 -7 9 -63 9 -125z m-1910 117 c0 -5 -8
-10 -17 -10 -68 -1 -233 -61 -305 -111 -14 -11 -32 -19 -40 -19 -19 0 77 66
139 95 86 41 223 69 223 45z m326 -4 c3 -7 6 -25 8 -40 3 -26 90 -136 108
-136 5 0 7 4 3 9 -3 5 -1 12 4 15 5 4 12 2 16 -4 6 -10 45 9 45 23 0 4 -9 26
-19 47 l-19 39 39 -2 c21 -1 39 -6 39 -11 0 -6 12 -24 28 -40 15 -17 23 -27
18 -23 -6 4 -24 -27 -44 -74 l-33 -81 21 -23 c30 -32 8 -40 -25 -9 -23 21 -35
25 -64 20 -20 -3 -43 -14 -52 -25 -9 -11 -19 -18 -22 -15 -5 5 -21 -46 -19
-58 1 -5 -2 -8 -7 -8 -5 0 -14 -13 -21 -30 -7 -16 -27 -38 -45 -49 l-33 -19 5
37 c6 42 -15 67 -64 77 -23 5 -36 0 -57 -20 -24 -21 -28 -34 -30 -83 -2 -67
-37 -138 -63 -128 -40 15 -104 27 -118 21 -13 -4 -14 -2 -5 14 5 10 10 26 10
35 0 25 -46 65 -75 65 -27 0 -85 -50 -85 -74 0 -8 -10 -20 -22 -28 -70 -45
-179 -18 -211 52 -10 22 -22 38 -26 36 -4 -3 -15 8 -25 24 -12 21 -13 28 -4
25 7 -2 36 16 63 40 28 25 53 45 56 45 3 0 4 -11 2 -25 -4 -18 3 -33 25 -55
27 -27 71 -43 58 -21 -3 5 7 11 22 14 19 4 34 17 46 39 15 28 24 34 50 34 43
0 92 36 99 74 6 28 5 38 -9 78 -14 38 -10 51 18 61 17 6 28 6 28 0 0 -16 -5
-24 -12 -21 -5 1 -8 -9 -8 -22 0 -36 61 -81 97 -71 26 6 63 39 63 56 0 4 13 1
29 -9 28 -16 30 -15 65 12 20 15 34 33 30 39 -3 7 3 2 15 -11 17 -20 18 -25 6
-49 -12 -22 -11 -31 3 -62 9 -20 22 -43 29 -52 12 -15 17 -14 44 12 17 16 34
29 38 29 4 0 14 12 23 28 16 28 11 63 -11 77 -6 3 -8 11 -5 17 4 6 2 8 -4 4
-6 -3 -13 -2 -17 4 -4 6 -11 8 -16 5 -5 -4 -9 -1 -9 4 0 6 -6 11 -13 11 -7 0
-18 9 -25 20 -7 11 -21 20 -31 20 -23 0 -38 37 -22 53 9 9 14 9 20 -1 4 -7 25
-22 45 -33 44 -23 58 -34 95 -70 14 -14 36 -28 49 -31 44 -12 -88 111 -155
144 -35 17 -63 35 -63 39 0 5 2 9 5 9 10 0 62 -25 89 -44 l29 -20 -6 26 c-4
15 -10 33 -13 42 -3 9 -1 16 5 16 7 0 14 -6 17 -14z m-2533 -11 c-3 -9 -8 -14
-10 -11 -3 3 -2 9 2 15 9 16 15 13 8 -4z m1662 -15 c3 -5 2 -10 -4 -10 -5 0
-13 5 -16 10 -3 6 -2 10 4 10 5 0 13 -4 16 -10z m1143 -25 c7 -14 12 -31 12
-38 -1 -17 -40 32 -40 49 0 23 16 16 28 -11z m-1753 -10 c17 -16 25 -35 25
-60 0 -20 6 -51 14 -69 17 -41 90 -112 123 -121 49 -12 67 32 38 89 -23 44
-19 83 11 103 24 15 29 15 53 2 20 -12 26 -23 27 -52 0 -27 7 -42 22 -53 24
-17 29 -53 10 -72 -17 -17 -25 -15 -32 10 -4 17 -8 20 -17 11 -15 -15 40 -133
76 -161 43 -34 91 -46 126 -31 71 29 128 5 191 -78 36 -48 53 -61 99 -77 38
-13 66 -17 91 -12 42 8 98 50 98 74 0 50 78 71 98 27 10 -21 9 -28 -8 -45 -11
-11 -24 -20 -29 -20 -15 0 -21 -31 -10 -52 13 -25 68 -48 113 -48 79 0 182
124 169 202 -8 54 17 90 60 86 27 -2 33 -8 35 -31 2 -17 -4 -37 -13 -48 -20
-21 -13 -49 11 -49 27 0 101 47 122 78 10 15 24 43 31 62 25 75 98 109 123 55
15 -34 -11 -71 -66 -95 -26 -11 -61 -39 -87 -70 -52 -60 -289 -238 -289 -216
0 2 26 29 58 60 71 69 52 74 -23 6 -174 -158 -340 -154 -540 13 -78 66 -130
92 -89 45 19 -21 19 -21 -1 -13 -11 5 -58 21 -104 37 -46 15 -101 38 -123 50
-54 31 -104 99 -130 179 -21 66 -21 71 -6 119 14 44 10 68 -7 40 -3 -5 -15
-10 -27 -10 -17 0 -18 -2 -8 -15 7 -9 14 -46 15 -83 3 -80 26 -146 62 -184 20
-21 23 -28 11 -28 -9 0 -27 12 -40 28 -14 15 -39 41 -57 57 -32 29 -33 29 -21
5 21 -40 72 -104 110 -137 51 -44 108 -70 191 -88 58 -12 91 -26 156 -70 84
-56 103 -60 59 -12 -13 14 -21 29 -17 33 3 4 1 4 -5 1 -6 -4 -29 6 -50 22 -22
15 -46 30 -54 34 -8 3 -3 5 12 4 15 -1 24 -5 22 -9 -3 -4 1 -8 10 -8 8 0 16 5
18 10 2 6 19 -1 38 -15 18 -14 30 -25 24 -25 -5 0 0 -6 12 -13 90 -54 93 -57
87 -90 -3 -18 -2 -29 2 -25 4 4 19 -2 33 -12 13 -11 32 -20 41 -21 9 0 4 -4
-11 -9 -14 -4 -77 -7 -139 -6 -103 2 -114 4 -127 24 -8 12 -19 22 -24 22 -11
0 -136 59 -153 72 -5 5 -21 17 -35 27 l-25 19 45 -9 c25 -5 68 -13 95 -18 73
-14 75 -14 138 -45 60 -28 86 -28 51 0 -44 35 -143 74 -210 83 -118 15 -176
52 -274 174 -58 73 -157 157 -183 157 -6 0 8 -17 30 -37 44 -41 86 -118 127
-230 32 -90 62 -151 90 -182 l21 -24 -25 6 c-14 4 -34 7 -46 7 -24 0 -58 64
-78 150 -13 54 -14 55 -21 23 l-7 -32 -19 22 c-23 28 -23 19 1 -68 10 -38 17
-71 15 -73 -2 -2 -12 -1 -23 2 -15 5 -21 18 -24 57 -7 65 -34 102 -82 110 -41
7 -51 14 -60 46 -11 34 36 77 72 68 37 -9 59 -31 72 -71 8 -23 18 -34 31 -34
30 0 32 21 9 83 -28 74 -104 158 -176 193 -57 28 -57 28 -216 8 -41 -5 -50 -3
-72 20 -49 48 -25 124 44 141 34 8 73 -8 123 -51 28 -23 68 -43 123 -60 45
-13 99 -36 119 -50 21 -14 39 -24 41 -22 1 2 -19 38 -46 80 -37 57 -60 83 -90
98 -47 24 -66 60 -49 93 24 44 58 49 94 12z m1143 8 c2 -8 -6 -13 -21 -13 -13
0 -42 -6 -64 -14 -36 -13 -41 -12 -50 4 -10 14 -8 17 10 16 12 -1 36 4 52 11
35 15 67 13 73 -4z m402 -1 c43 -52 43 -52 27 -52 -9 0 -19 9 -22 20 -3 11
-12 20 -19 20 -7 0 -13 7 -13 15 0 20 9 19 27 -3z m-1722 -14 c16 -16 15 -45
-2 -51 -8 -3 -22 3 -31 13 -15 16 -15 22 -5 35 15 18 22 19 38 3z m1187 -114
c31 -115 29 -129 -18 -152 -56 -27 -90 29 -47 76 12 12 29 22 39 22 18 0 18 2
2 55 -9 30 -20 55 -25 55 -5 0 -32 -14 -61 -30 l-53 -30 24 -78 c29 -95 30
-110 2 -139 -36 -39 -88 -25 -88 23 0 24 43 64 67 64 10 0 13 6 8 18 -19 48
-44 137 -39 141 11 11 140 81 149 81 6 0 24 -48 40 -106z m145 77 c0 -4 -19
-11 -42 -15 -24 -3 -53 -9 -65 -12 -14 -4 -23 -2 -23 5 0 6 15 15 33 20 42 12
97 13 97 2z m105 -1 c-3 -5 -13 -10 -21 -10 -8 0 -14 5 -14 10 0 6 9 10 21 10
11 0 17 -4 14 -10z m-1107 -23 c4 -22 -27 -35 -38 -16 -10 15 7 42 24 36 6 -2
12 -11 14 -20z m-272 -2 c9 -8 12 -15 8 -15 -9 0 16 -20 65 -53 19 -12 36 -27
38 -33 6 -17 -42 -23 -68 -8 -13 7 -27 10 -31 8 -5 -3 -8 0 -8 5 0 6 -9 11
-20 11 -11 0 -20 4 -20 9 0 5 -15 18 -32 30 -28 17 -30 21 -12 21 11 0 29 9
39 20 22 24 22 24 41 5z m1724 -5 c0 -5 -4 -12 -10 -15 -5 -3 -10 -4 -10 -1 0
2 -3 12 -6 20 -5 12 -2 15 10 10 9 -3 16 -10 16 -14z m-174 -47 c-8 -8 -56 25
-56 38 0 6 14 1 31 -11 16 -12 28 -25 25 -27z m414 27 c11 -11 20 -28 20 -37
0 -28 -41 -63 -74 -63 -17 -1 -42 -7 -56 -15 -36 -21 -44 -18 -27 8 8 12 18
37 21 55 8 35 48 72 77 72 11 0 28 -9 39 -20z m-2742 -2 c18 -18 14 -45 -9
-62 -24 -16 -50 -11 -43 9 3 7 -2 19 -10 27 -11 11 -12 18 -3 27 15 15 50 14
65 -1z m-293 -14 c8 -9 15 -30 14 -47 0 -18 3 -50 7 -71 8 -46 -11 -43 -21 3
-3 16 -17 37 -31 45 -37 25 -32 81 8 85 4 1 14 -6 23 -15z m4045 -30 c0 -16
-8 -28 -25 -36 -16 -7 -27 -22 -31 -44 -10 -54 -23 -29 -19 38 2 45 8 65 20
75 25 17 55 -1 55 -33z m-1893 9 c2 -6 -3 -17 -12 -25 -9 -7 -22 -18 -29 -25
-17 -15 -36 2 -36 33 0 31 68 46 77 17z m531 -50 c3 -32 -27 -71 -35 -45 -7
20 -23 3 -23 -24 0 -44 -18 -25 -25 28 -7 46 -5 54 14 69 31 25 65 11 69 -28z
m-2473 29 c-6 -4 -22 -18 -37 -31 -16 -14 -28 -19 -28 -13 0 16 41 52 59 52 8
0 11 -3 6 -8z m3429 -8 c73 -25 131 -61 171 -106 41 -45 99 -163 91 -184 -3
-7 -1 -16 5 -19 9 -6 49 -79 49 -91 0 -3 -17 9 -39 29 -22 20 -65 43 -103 56
-113 38 -190 99 -268 212 -21 30 -50 66 -64 80 -14 13 -26 27 -26 32 0 14 136
7 184 -9z m-1995 -23 c17 -11 7 -41 -13 -41 -19 0 -29 17 -22 35 6 17 15 18
35 6z m311 -62 c-99 -89 -140 -122 -146 -116 -3 3 12 22 34 41 22 20 40 42 39
49 -1 31 4 47 14 47 6 0 8 -9 4 -20 -9 -28 -3 -25 51 20 66 58 70 38 4 -21z
m1845 32 c-6 -5 -25 10 -25 20 0 5 6 4 14 -3 8 -7 12 -15 11 -17z m-3595 12
c-16 -7 -31 -18 -66 -50 -25 -23 -31 -15 -13 18 5 11 14 17 20 14 5 -4 16 1
25 9 8 9 23 16 32 15 13 0 14 -2 2 -6z m3635 -43 c3 -5 2 -10 -4 -10 -5 0 -13
5 -16 10 -3 6 -2 10 4 10 5 0 13 -4 16 -10z m-3852 -45 c-7 -21 -12 -19 -10 4
0 11 5 18 9 15 4 -3 5 -11 1 -19z m2963 10 c10 -24 -5 -36 -27 -24 -16 8 -18
13 -8 25 15 18 28 18 35 -1z m929 -4 c3 -5 1 -12 -5 -16 -5 -3 -10 1 -10 9 0
18 6 21 15 7z m-987 -74 c-36 -22 -44 -17 -27 15 7 12 12 27 11 31 -1 5 8 0
21 -10 l24 -18 -29 -18z m-1107 15 c-6 -11 -4 -20 7 -28 14 -10 9 -10 -20 -1
-44 14 -48 22 -13 31 16 4 23 11 19 18 -4 7 -3 8 5 4 7 -5 8 -13 2 -24z m1247
-32 c26 -24 29 -72 7 -94 -28 -28 -56 -29 -106 -6 -48 23 -49 23 -95 5 -82
-31 -159 -132 -171 -225 -3 -22 -9 -40 -13 -40 -4 0 -22 -3 -39 -6 l-31 -7 25
44 c32 56 32 71 0 36 -14 -15 -28 -27 -31 -27 -18 0 109 175 133 184 9 4 13 9
10 13 -4 3 -13 0 -22 -7 -26 -21 -30 -2 -6 24 24 25 41 33 127 60 28 8 71 27
95 41 53 30 88 32 117 5z m-3376 -68 c156 -102 224 -226 252 -457 l6 -50 -26
48 c-14 27 -28 47 -30 44 -3 -3 2 -19 11 -37 9 -18 14 -34 11 -38 -3 -3 -6 -1
-6 5 0 6 -22 25 -50 43 -67 43 -141 126 -173 194 -15 30 -38 102 -52 158 -14
57 -28 111 -31 121 -8 26 7 21 88 -31z m4758 36 c0 -7 -14 -64 -30 -126 -48
-185 -89 -250 -212 -343 l-78 -59 31 61 c16 34 28 63 25 66 -2 3 -21 -26 -40
-63 -38 -74 -41 -68 -26 39 26 175 103 296 255 397 65 43 75 47 75 28z m-2867
-81 c-4 -6 -1 -7 7 -2 7 4 16 2 20 -6 8 -13 31 -20 61 -20 9 0 16 -6 16 -13 0
-20 -52 -10 -90 16 -61 43 -69 51 -55 59 15 10 50 -19 41 -34z m-153 -13 c0
-8 4 -13 9 -10 13 9 22 -23 12 -42 -7 -13 -12 -9 -25 22 -18 44 -20 60 -6 51
6 -3 10 -13 10 -21z m-1509 -10 c7 -9 14 -26 14 -37 1 -12 9 -39 19 -60 24
-55 14 -71 -13 -19 -12 24 -29 42 -38 42 -22 0 -53 29 -53 50 0 37 47 53 71
24z m2939 -9 c-14 -8 -21 -14 -16 -15 5 0 3 -7 -4 -15 -7 -8 -10 -24 -7 -36 5
-18 2 -20 -16 -15 -12 3 -28 6 -35 6 -10 0 -10 4 0 20 7 11 16 20 20 20 4 0
18 11 32 25 14 14 31 25 38 25 7 -1 2 -7 -12 -15z m810 -5 c150 -39 281 -174
305 -315 4 -22 11 -54 16 -72 25 -82 19 -109 -13 -54 -11 21 -41 42 -100 70
-113 54 -161 106 -237 259 -33 66 -57 123 -53 126 3 4 13 4 21 2 9 -3 36 -10
61 -16z m-1937 -14 c9 3 17 1 17 -4 0 -6 6 -12 13 -15 6 -2 -1 -2 -18 1 -37 5
-45 10 -45 25 0 9 3 8 8 -1 5 -7 16 -10 25 -6z m1165 -24 c3 -16 -2 -22 -16
-22 -24 0 -35 23 -19 39 16 16 31 8 35 -17z m-1356 -56 c55 -55 92 -82 149
-110 42 -20 86 -36 98 -36 11 0 21 -4 21 -9 0 -8 -96 -5 -145 4 -35 7 -104 74
-156 151 -27 41 -47 74 -45 74 3 0 38 -33 78 -74z m824 54 c47 0 59 -13 22
-25 -25 -7 -108 -6 -121 2 -12 7 26 33 41 28 8 -3 34 -5 58 -5z m223 -67 c-44
-43 -106 -93 -137 -110 -53 -31 -63 -33 -152 -33 -92 0 -190 17 -244 41 -48
22 -27 27 27 6 38 -15 74 -21 137 -21 139 1 261 47 375 143 89 74 86 62 -6
-26z m-1080 -43 c3 -3 23 -24 43 -46 l38 -40 -36 -1 c-25 0 -34 3 -30 12 2 7
-10 38 -29 69 -18 31 -31 56 -27 56 3 0 1 5 -6 12 -7 7 -12 19 -12 27 0 9 12
-7 26 -34 15 -28 30 -52 33 -55z m1338 31 c52 -24 79 -61 64 -90 -6 -11 -32
-34 -57 -52 -49 -34 -54 -50 -6 -25 l29 15 -4 -52 c-34 -392 -262 -700 -588
-792 -73 -21 -83 -29 -61 -50 9 -9 16 -21 16 -26 0 -12 -37 -49 -50 -49 -6 0
-15 -12 -21 -26 -14 -38 6 -78 45 -90 21 -6 38 -22 51 -46 18 -34 19 -40 5
-80 -11 -32 -25 -48 -55 -65 -22 -13 -49 -23 -60 -23 -17 0 -15 3 10 20 32 21
65 59 65 75 0 6 -9 -1 -19 -14 l-18 -24 1 46 c1 25 -5 52 -11 58 -11 10 -13 4
-13 -31 0 -26 -8 -58 -19 -76 -17 -28 -73 -64 -100 -64 -6 0 -11 -5 -11 -11 0
-8 17 -9 56 -4 53 6 55 6 43 -14 -11 -17 -10 -22 10 -38 27 -22 22 -58 -10
-68 -26 -9 -26 -72 2 -161 17 -56 31 -77 78 -125 45 -45 69 -60 117 -75 71
-21 94 -38 76 -56 -19 -19 -15 -24 29 -37 46 -14 108 -66 137 -116 l20 -33
-30 -6 c-89 -18 -194 10 -243 64 -18 20 -18 20 -29 -2 -14 -27 -42 -31 -38 -5
4 24 -26 33 -46 14 -12 -13 -13 -21 -4 -41 21 -47 57 -60 149 -58 45 1 83 -1
83 -3 0 -2 -12 -11 -27 -19 -16 -8 -23 -15 -18 -16 15 0 175 39 212 52 38 14
66 -3 61 -36 -4 -25 -37 -37 -176 -65 -252 -51 -637 -56 -882 -10 -85 16 -183
40 -202 50 -33 18 -15 69 24 69 9 0 25 12 35 26 57 83 133 144 178 144 17 0
20 11 5 26 -20 20 1 41 56 53 126 29 234 174 234 316 0 35 -4 44 -25 53 -31
14 -32 46 -3 67 20 13 21 18 10 36 -13 20 -12 20 42 14 60 -8 80 8 26 20 -62
14 -117 98 -103 157 5 19 3 21 -8 10 -8 -7 -14 -32 -14 -57 0 -45 0 -45 -17
-22 -10 12 -18 16 -18 9 0 -6 19 -30 42 -53 41 -40 42 -40 12 -33 -73 17 -114
77 -99 144 7 30 47 70 71 70 7 0 21 11 30 25 21 32 6 73 -36 97 -34 19 -38 39
-14 63 22 21 14 27 -84 58 -105 34 -204 91 -282 163 -168 156 -251 337 -285
622 l-6 53 31 -16 c45 -24 36 -4 -15 30 -72 49 -72 88 1 126 38 21 46 22 54 9
7 -11 3 -18 -15 -28 -86 -44 52 -92 370 -128 452 -51 1245 12 1245 99 0 14
-56 47 -79 47 -12 0 -15 13 -4 23 11 11 36 7 80 -12z m-242 -51 c-1 -28 -5
-53 -8 -57 -3 -3 -31 -6 -61 -8 l-55 -2 27 21 c15 12 30 20 34 19 5 -2 7 0 6
5 -2 5 24 37 58 71 1 0 0 -22 -1 -49z m164 11 c12 -12 16 -24 10 -32 -4 -7
-11 -10 -15 -6 -4 4 -13 2 -21 -4 -10 -9 -13 -7 -13 9 0 21 9 52 16 52 2 0 12
-8 23 -19z m1217 -48 c-3 -7 -1 -13 4 -13 6 0 10 -7 10 -15 0 -29 -15 -14 -41
41 l-26 55 29 -28 c15 -15 26 -33 24 -40z m-3877 40 c-25 -32 -40 -64 -34 -73
4 -6 -1 -10 -10 -10 -14 0 -14 3 1 33 17 33 43 67 52 67 3 0 -1 -8 -9 -17z
m2328 11 c-3 -3 -12 -4 -19 -1 -8 3 -5 6 6 6 11 1 17 -2 13 -5z m-1047 -54 c0
-5 -9 -6 -19 -3 -12 3 -17 11 -14 19 4 11 9 12 19 3 8 -6 14 -15 14 -19z
m-1333 -82 c-3 -8 -6 -5 -6 6 -1 11 2 17 5 13 3 -3 4 -12 1 -19z m403 -83 c0
-3 -8 -22 -19 -43 -10 -20 -26 -62 -36 -92 -23 -73 -68 -157 -102 -196 -38
-43 -143 -118 -143 -102 0 7 14 44 30 82 16 38 28 72 26 74 -8 7 -53 -91 -72
-153 l-18 -60 -7 69 c-20 191 75 340 260 408 47 17 81 22 81 13z m3267 -36
c75 -36 144 -104 181 -178 23 -48 27 -71 31 -163 2 -67 -1 -108 -7 -108 -5 0
-12 17 -16 38 -7 41 -54 148 -61 140 -3 -3 3 -25 14 -49 41 -94 40 -96 -26
-51 -102 69 -133 113 -198 283 -55 141 -54 132 -14 124 19 -4 62 -20 96 -36z
m222 -180 c-16 -10 -23 -4 -14 10 3 6 11 8 17 5 6 -4 5 -9 -3 -15z m-3846 -26
c-8 -51 -19 -71 -25 -47 -4 18 17 84 26 84 3 0 2 -17 -1 -37z m3869 -45 c-9
-9 -12 -7 -12 12 0 19 3 21 12 12 9 -9 9 -15 0 -24z m188 -232 c0 -32 -24 -50
-59 -43 -21 5 -37 0 -56 -15 -37 -29 -41 -17 -5 17 17 16 30 35 30 42 0 7 12
19 27 27 35 18 63 5 63 -28z m-4185 8 c6 -12 24 -33 41 -47 30 -26 71 -107 53
-107 -5 0 -9 5 -9 11 0 5 -4 8 -9 4 -6 -3 -8 4 -6 15 2 11 0 18 -5 15 -6 -3
-17 -2 -26 3 -15 8 -15 10 0 15 11 5 15 3 10 -5 -5 -7 -3 -8 6 -3 23 14 -39
56 -73 49 -29 -6 -67 17 -67 41 0 38 67 45 85 9z m-152 -49 c32 -8 81 -27 109
-41 57 -29 165 -132 218 -209 38 -55 49 -77 30 -58 -7 6 -26 9 -45 6 -55 -9
-166 15 -240 51 -65 32 -147 106 -264 239 l-24 27 79 0 c44 0 106 -7 137 -15z
m4536 -85 c-142 -155 -225 -202 -379 -215 -41 -4 -85 -13 -97 -21 -25 -16 -32
-4 -8 16 7 6 28 37 46 68 87 155 255 250 442 251 l89 1 -93 -100z m-4107 -25
c2 -27 7 -55 11 -62 15 -24 -13 -23 -29 2 -11 17 -14 36 -10 62 3 21 7 44 8
51 3 28 17 -6 20 -53z m3578 25 c10 -24 10 -36 0 -60 -7 -16 -17 -27 -23 -23
-6 4 -8 0 -4 -10 4 -10 2 -17 -5 -17 -7 0 -8 11 -3 33 4 17 8 51 7 74 0 48 9
49 28 3z m-3128 -100 c28 -84 32 -108 32 -205 0 -98 -3 -117 -28 -178 -31 -73
-31 -119 0 -178 8 -16 11 -29 6 -29 -17 0 -43 38 -63 89 -10 28 -32 69 -48 92
-93 127 -86 310 16 473 42 68 40 69 85 -64z m3302 96 c-3 -9 -10 -16 -15 -16
-6 0 -5 9 1 21 13 24 24 20 14 -5z m-569 -24 c54 -82 79 -161 79 -257 1 -105
-11 -151 -59 -223 -19 -29 -40 -71 -46 -92 -7 -21 -25 -52 -42 -67 -24 -23
-29 -24 -22 -8 36 94 36 102 4 193 -49 137 -42 265 22 438 11 30 25 54 30 54
5 0 20 -17 34 -38z m-2953 -219 c24 -22 23 -55 -3 -79 -17 -15 -20 -26 -15
-57 8 -47 -9 -42 -20 6 -3 17 -15 43 -25 56 -24 30 -24 46 1 71 24 24 38 25
62 3z m3150 0 c22 -19 24 -56 4 -76 -8 -8 -19 -33 -26 -55 -14 -53 -24 -54
-17 -3 4 33 1 42 -15 53 -26 17 -27 67 -2 85 23 17 34 16 56 -4z m-3449 -36
c12 -13 39 -32 60 -42 21 -10 42 -26 48 -36 12 -24 14 -24 -45 6 -34 17 -53
22 -60 15 -25 -25 -96 2 -96 36 0 19 29 44 51 44 11 0 30 -11 42 -23z m3383
-122 c2 -30 -1 -55 -6 -55 -5 0 -12 -9 -15 -20 -3 -11 -11 -20 -16 -20 -14 0
-39 -26 -39 -41 0 -7 -3 -9 -6 -6 -4 3 1 22 10 41 9 19 16 39 16 45 0 6 5 11
10 11 6 0 9 3 8 8 -1 6 5 34 19 85 8 31 16 10 19 -48z m-3056 19 c0 -14 7 -32
15 -41 8 -8 13 -19 10 -24 -4 -5 -1 -9 6 -9 7 0 9 -3 6 -6 -4 -4 2 -19 13 -34
11 -15 17 -30 13 -34 -3 -3 0 -6 9 -6 8 0 15 -7 15 -15 0 -13 -3 -13 -18 1
-10 9 -17 20 -14 24 2 4 -7 13 -21 20 -40 22 -64 70 -57 113 6 42 23 50 23 11z
m-378 5 c73 -15 162 -60 230 -117 31 -26 69 -55 83 -65 15 -11 25 -21 23 -22
-2 -2 -43 12 -91 31 -48 20 -93 34 -100 31 -6 -2 19 -14 56 -28 37 -13 67 -26
67 -29 0 -10 -113 -30 -166 -30 -60 0 -149 22 -207 51 -51 26 -227 142 -227
150 0 3 28 13 63 21 75 19 197 22 269 7z m4071 -9 c26 -7 47 -16 47 -20 0 -11
-153 -112 -220 -145 -106 -54 -199 -67 -313 -44 -61 13 -72 23 -33 33 13 3 43
15 67 26 42 19 42 20 10 14 -18 -3 -64 -19 -102 -34 -70 -29 -96 -24 -36 6 17
9 50 33 73 54 55 51 125 90 198 112 70 20 227 20 309 -2z m-3894 -23 c0 -9 -2
-8 -6 1 -2 6 -10 9 -15 6 -7 -4 -8 -2 -4 5 9 13 26 5 25 -12z m479 -169 c15
-15 15 -43 0 -67 -9 -15 -9 -26 0 -45 6 -14 7 -28 2 -31 -5 -3 -14 11 -21 30
-7 19 -19 35 -26 35 -12 0 -33 30 -33 49 0 16 30 41 49 41 9 0 22 -5 29 -12z
m2540 0 c18 -18 14 -55 -8 -71 -10 -7 -24 -25 -29 -40 -6 -15 -15 -27 -21 -27
-6 0 -6 9 0 26 7 16 7 32 0 44 -21 39 -5 80 30 80 9 0 21 -5 28 -12z m-2873
-48 c17 -11 38 -20 47 -20 9 0 20 -5 24 -11 5 -9 -3 -10 -28 -5 -27 5 -37 3
-42 -9 -6 -18 -47 -20 -64 -3 -17 17 -15 45 6 57 23 14 23 14 57 -9z m3218
-12 c14 -39 -46 -65 -73 -33 -9 11 -22 14 -48 9 -23 -4 -33 -3 -29 3 4 6 23
14 42 17 19 4 35 11 35 16 0 24 63 14 73 -12z m-2833 -71 c0 -4 12 -24 26 -42
37 -49 26 -60 -23 -22 -34 27 -41 36 -36 57 4 13 6 31 6 39 0 10 4 8 14 -5 7
-10 13 -22 13 -27z m2412 3 c3 -22 -1 -35 -18 -49 -38 -33 -74 -54 -74 -43 0
6 6 15 13 19 7 4 21 25 30 45 10 20 22 40 27 43 6 4 7 11 4 17 -4 6 -2 8 3 5
6 -4 13 -20 15 -37z m-2687 2 c-9 -2 -24 -1 -33 3 -13 5 -14 8 -3 15 9 5 22 3
33 -3 16 -10 16 -12 3 -15z m2950 7 c-4 -5 -13 -9 -22 -9 -13 0 -13 3 -3 15
13 15 35 11 25 -6z m-2401 -125 c18 -18 21 -45 6 -60 -6 -6 -8 -18 -4 -27 7
-19 30 -23 36 -7 2 6 20 -12 40 -39 27 -36 32 -48 20 -46 -9 1 -16 8 -14 14 1
6 -6 11 -15 11 -24 0 -68 23 -68 35 -1 16 -19 39 -40 51 -27 15 -32 54 -9 71
23 17 29 16 48 -3z m1880 -5 c11 -17 12 -27 4 -45 -6 -13 -17 -24 -25 -24 -7
0 -16 -7 -19 -15 -9 -22 -19 -18 -20 8 0 12 -4 30 -8 39 -5 11 0 24 13 37 26
26 36 26 55 0z m-2194 -90 c0 -5 13 -9 29 -9 17 0 33 -4 36 -10 4 -6 -6 -10
-22 -10 -17 0 -33 -8 -41 -20 -7 -11 -22 -20 -35 -20 -46 0 -63 47 -26 73 21
15 59 12 59 -4z m2116 12 c-3 -5 1 -14 9 -21 20 -16 13 -25 -44 -54 -45 -22
-48 -23 -44 -5 3 10 9 16 14 13 5 -3 9 0 9 6 0 15 41 70 52 70 5 0 7 -4 4 -9z
m404 -11 c11 -11 20 -26 20 -33 0 -38 -71 -52 -92 -17 -7 11 -23 20 -35 20
-13 0 -23 5 -23 10 0 6 12 10 28 10 15 0 36 7 46 15 26 19 32 19 56 -5z
m-2390 -56 c0 -2 -17 -4 -37 -4 -34 1 -36 2 -21 14 10 7 14 17 10 21 -4 4 5 0
21 -10 15 -9 27 -19 27 -21z m2260 11 c11 -13 7 -15 -24 -15 -32 0 -35 2 -24
15 17 19 32 19 48 0z m-196 -200 c15 -16 25 -23 20 -15 -5 11 -2 10 13 -2 11
-10 24 -18 29 -18 5 0 20 -9 33 -19 14 -10 31 -17 38 -14 7 3 13 0 13 -7 0 -6
-4 -8 -10 -5 -5 3 -10 1 -10 -5 0 -6 -4 -8 -10 -5 -5 3 -38 -6 -72 -21 -35
-15 -101 -44 -148 -64 -78 -34 -133 -56 -185 -76 -11 -4 -23 -6 -27 -6 -5 1
-8 -2 -8 -6 0 -7 -19 -12 -62 -15 -10 -1 -18 -5 -18 -9 0 -4 -17 -10 -37 -14
-21 -4 -43 -11 -49 -15 -6 -5 -19 -7 -28 -3 -9 3 -16 2 -16 -3 0 -5 -8 -10
-17 -11 -25 -2 -151 -21 -193 -28 -52 -9 -368 -10 -419 -2 -24 5 -73 10 -109
13 -35 3 -73 10 -83 15 -10 6 -29 10 -42 10 -13 0 -35 8 -48 19 -13 10 -32 17
-41 16 -9 -2 -22 3 -28 10 -9 11 -3 11 32 3 24 -6 55 -10 71 -9 15 1 27 -3 27
-7 0 -5 17 -8 37 -6 23 2 32 0 23 -6 -8 -5 1 -8 26 -8 21 0 73 -4 114 -8 91
-9 299 -9 435 0 55 4 108 7 118 7 9 0 17 3 17 7 0 4 22 7 49 7 27 0 47 4 44 8
-3 5 1 7 8 6 14 -2 55 6 99 21 14 5 37 11 52 14 35 8 68 43 68 72 0 25 -43 64
-69 64 -9 0 -21 12 -27 28 -10 27 -10 27 32 28 25 1 54 10 72 23 17 11 35 21
41 21 7 0 23 7 37 16 32 22 78 32 134 30 36 -1 51 -7 74 -31z m-2886 -1 c29
-20 28 -44 -1 -44 -25 0 -47 -17 -47 -36 0 -28 42 -24 132 13 109 44 183 49
239 17 56 -33 61 -56 37 -158 -21 -89 -21 -89 -40 -66 -10 12 -18 19 -18 15 0
-4 -7 -2 -15 5 -10 8 -13 21 -9 34 6 20 5 20 -12 3 -17 -16 -17 -20 -4 -45 23
-41 98 -74 174 -76 36 0 67 2 70 5 4 3 -1 25 -9 49 -21 58 -19 92 7 125 33 42
92 65 173 65 92 0 163 -21 386 -116 138 -58 199 -79 242 -82 44 -3 57 -8 53
-18 -4 -9 2 -14 15 -14 11 0 29 -5 39 -10 72 -38 404 -76 590 -66 292 14 460
57 810 206 190 81 260 101 351 102 149 0 223 -72 185 -181 -9 -24 -16 -48 -16
-54 0 -6 32 -8 83 -5 121 6 195 56 165 111 -12 22 -12 22 -18 -8 -4 -20 -11
-30 -23 -29 -9 1 -15 -2 -12 -6 3 -4 -1 -13 -9 -19 -10 -9 -17 6 -36 75 -26
99 -21 122 32 154 55 33 105 35 189 5 155 -55 156 -55 175 -40 15 11 16 15 5
29 -7 9 -24 16 -37 16 -30 0 -31 24 -2 44 44 31 113 15 141 -34 24 -41 21 -75
-11 -111 -23 -26 -38 -33 -79 -36 -46 -5 -63 0 -153 42 -100 47 -122 51 -218
43 -39 -4 -23 -40 31 -69 80 -43 79 -41 81 -190 1 -125 3 -138 30 -196 28 -61
28 -62 10 -92 -34 -58 -116 -99 -213 -108 -61 -6 -65 -5 -52 11 8 9 33 21 57
27 54 14 56 27 7 31 l-38 4 27 11 c39 17 42 30 5 25 -29 -5 -31 -3 -18 12 11
13 11 16 0 17 -8 0 -3 5 11 11 l25 11 -35 9 c-34 10 -34 11 -12 21 29 13 28
27 -3 27 -14 0 -25 5 -25 10 0 6 9 10 20 10 28 0 25 20 -2 21 -17 1 -19 2 -5
6 26 7 20 21 -10 26 l-28 4 33 8 c33 8 45 26 15 23 -33 -2 -53 2 -53 12 0 6
12 10 28 10 15 0 34 5 42 10 11 7 0 10 -37 10 -42 0 -54 4 -63 20 -6 11 -16
20 -22 20 -16 0 -1 -91 33 -194 34 -105 36 -128 9 -171 -65 -105 -299 -128
-371 -37 -19 24 -20 35 -14 101 6 60 4 73 -7 69 -7 -3 -96 -38 -198 -78 -350
-136 -544 -175 -870 -175 -350 1 -511 37 -959 214 l-103 40 7 -72 c6 -66 4
-75 -16 -101 -32 -40 -77 -56 -163 -56 -61 0 -83 5 -127 28 -59 31 -99 80 -99
122 0 15 13 67 29 116 36 109 47 179 31 189 -7 4 -13 -1 -17 -14 -4 -17 -14
-21 -62 -23 l-56 -3 45 -14 c42 -12 43 -14 22 -22 -13 -5 -28 -7 -33 -3 -5 3
-9 1 -9 -3 0 -5 12 -14 28 -20 l27 -11 -27 -1 c-32 -1 -39 -21 -7 -21 11 0 17
-4 14 -10 -3 -5 -16 -10 -28 -10 -21 -1 -21 -1 3 -15 l25 -14 -27 -1 c-36 0
-45 -18 -13 -26 30 -7 23 -24 -11 -24 -13 0 -24 -4 -24 -10 0 -5 8 -10 18 -10
11 0 18 -7 18 -20 0 -15 -7 -20 -31 -21 l-30 -1 33 -14 c44 -19 42 -38 -3 -31
-47 8 -45 -7 3 -21 20 -6 46 -18 57 -26 19 -14 16 -15 -32 -16 -72 0 -157 34
-205 82 -45 45 -45 47 -3 146 24 58 26 72 23 182 -3 136 1 144 84 184 48 23
64 60 28 64 -93 9 -116 5 -216 -41 -108 -50 -155 -57 -204 -32 -58 30 -75 82
-43 135 28 49 97 65 141 34z m622 -58 c0 -3 -4 -8 -10 -11 -5 -3 -10 -1 -10 4
0 6 5 11 10 11 6 0 10 -2 10 -4z m2480 0 c0 -11 -19 -15 -25 -6 -3 5 1 10 9
10 9 0 16 -2 16 -4z m127 -2 c-3 -3 -12 -4 -19 -1 -8 3 -5 6 6 6 11 1 17 -2
13 -5z m-1012 -64 c1 -15 -2 -17 -15 -10 -10 5 -19 8 -21 7 -2 -1 3 5 11 14
17 19 23 16 25 -11z m40 -10 c-3 -5 -10 -10 -16 -10 -5 0 -9 5 -9 10 0 6 7 10
16 10 8 0 12 -4 9 -10z m-1792 -360 c-3 -11 -10 -23 -16 -27 -5 -3 -8 -2 -5 3
3 5 8 17 11 27 9 24 16 22 10 -3z m2922 0 c3 -5 1 -10 -4 -10 -6 0 -11 5 -11
10 0 6 2 10 4 10 3 0 8 -4 11 -10z m-754 -276 c-22 -36 -26 -59 -13 -67 4 -2
1 -2 -6 0 -8 1 -25 3 -38 3 -14 0 -23 4 -20 8 3 5 -13 9 -35 10 -23 1 -45 5
-50 8 -18 11 2 24 37 24 24 0 33 4 28 12 -4 7 -3 8 4 4 6 -4 23 1 37 10 16 11
25 12 25 5 0 -8 7 -7 22 3 32 22 33 20 9 -20z m-1461 1 c11 -10 20 -29 20 -42
0 -22 -4 -24 -37 -21 -53 4 -52 -24 1 -37 29 -7 59 -4 125 10 47 10 104 20
126 22 34 3 28 -2 -43 -28 -45 -18 -80 -34 -78 -36 7 -7 144 26 175 41 33 17
110 25 136 15 20 -8 20 -8 0 -8 -15 -1 -17 -3 -7 -10 11 -6 10 -10 -3 -15 -14
-5 -16 -2 -12 14 3 11 4 20 3 20 -15 0 -87 -45 -107 -67 -38 -40 -43 -66 -20
-94 17 -21 22 -23 41 -11 29 18 38 7 19 -26 -27 -49 -96 -55 -139 -12 -31 31
-35 65 -12 111 18 35 18 40 4 33 -107 -44 -234 -59 -297 -34 -91 35 -112 143
-36 186 34 19 115 13 141 -11z m1639 10 c71 -36 61 -130 -18 -172 -72 -37
-137 -33 -326 24 -18 5 -18 4 4 -20 47 -51 19 -137 -50 -152 -34 -8 -85 17
-94 46 -8 25 1 37 17 21 18 -18 36 -14 53 12 27 40 -7 95 -85 136 l-35 19 37
1 c20 0 49 -5 65 -11 15 -6 62 -19 103 -29 92 -23 72 -2 -25 26 -36 10 -65 22
-65 26 0 12 8 10 141 -18 104 -22 128 -25 161 -15 39 12 50 34 22 45 -8 3 -25
1 -36 -5 -25 -13 -43 1 -34 28 15 46 108 68 165 38z m-1549 -5 c-20 -13 -53
-13 -45 0 3 6 18 10 33 10 21 0 24 -2 12 -10z m25 -10 c-4 -6 6 -10 24 -10 16
0 37 -3 46 -6 14 -6 13 -8 -5 -21 -18 -13 -24 -12 -56 8 -27 16 -32 24 -22 30
17 11 20 11 13 -1z m-14 -52 c-23 -8 -71 6 -71 20 0 5 21 5 46 -1 38 -9 43
-12 25 -19z m995 -25 c-3 -16 -5 -17 -29 -7 -12 4 -15 9 -7 14 18 11 38 8 36
-7z m-713 -40 c-3 -10 -11 -24 -16 -31 -5 -7 -10 -21 -11 -32 0 -11 -3 -19 -6
-18 -3 1 -15 -4 -27 -11 -21 -11 -23 -9 -23 11 0 13 7 32 15 42 8 11 15 17 15
13 0 -3 12 5 26 18 32 30 35 31 27 8z m224 2 c19 -8 40 -15 45 -15 6 0 5 7 -2
15 -11 13 -8 15 19 15 37 0 39 -9 6 -40 -23 -21 -28 -22 -64 -12 -64 20 -77
13 -27 -13 26 -14 54 -25 63 -25 14 0 14 -3 -2 -20 -16 -18 -16 -20 -2 -20 25
0 21 -18 -12 -51 -24 -23 -38 -29 -75 -29 l-45 0 10 29 c6 17 17 35 25 42 23
19 -78 62 -133 56 l-43 -4 20 27 c40 56 140 77 217 45z m247 0 c-8 -19 6 -19
42 0 45 23 134 19 174 -7 18 -13 39 -33 47 -45 14 -21 13 -21 -26 -16 -28 4
-56 -1 -95 -18 -50 -20 -54 -24 -42 -38 8 -9 20 -29 26 -45 l10 -29 -50 5
c-52 5 -61 -1 -35 -22 8 -7 15 -19 15 -27 0 -18 -46 -10 -71 13 -21 19 -33 18
-25 -2 8 -20 -15 -63 -48 -91 -25 -22 -27 -22 -47 -5 -30 26 -62 81 -55 97 6
17 -9 20 -19 4 -4 -5 -18 -15 -33 -20 -39 -15 -50 5 -18 33 85 74 96 89 96
127 0 37 30 91 51 91 17 0 49 -64 49 -98 0 -23 10 -43 35 -70 34 -37 50 -27
20 12 -17 22 -20 50 -5 41 6 -3 10 -2 10 4 0 5 -5 13 -11 16 -5 4 16 20 48 35
59 29 56 38 -7 20 -26 -7 -39 -6 -57 5 -30 20 -29 40 2 43 18 1 23 -2 19 -13z"/>
<path d="M1535 4810 c-13 -21 -45 -124 -44 -144 0 -22 18 21 44 107 13 45 13
59 0 37z"/>
<path d="M1690 4685 c-25 -13 -39 -24 -32 -25 14 0 92 38 92 45 0 9 -15 4 -60
-20z"/>
<path d="M1550 4457 c-31 -8 -38 -12 -23 -14 11 -3 43 3 70 11 56 17 22 20
-47 3z"/>
<path d="M875 2842 c27 -29 54 -52 59 -52 13 0 -41 56 -79 82 -21 15 -15 5 20
-30z"/>
<path d="M1336 2494 c-3 -26 -6 -68 -5 -93 1 -41 2 -43 9 -18 10 33 16 144 8
152 -3 3 -8 -15 -12 -41z"/>
<path d="M1910 1887 c0 -23 40 -131 52 -142 8 -7 9 -6 6 5 -3 8 -15 45 -27 83
-22 65 -31 81 -31 54z"/>
<path d="M2240 1691 c0 -19 72 -161 81 -161 5 0 -9 37 -32 83 -46 90 -49 96
-49 78z"/>
<path d="M1945 1450 c-7 -12 68 -12 105 0 19 6 9 8 -37 9 -34 1 -65 -3 -68 -9z"/>
<path d="M4454 4794 c4 -10 17 -48 29 -84 12 -39 22 -58 25 -47 4 21 -35 134
-51 144 -7 4 -8 -1 -3 -13z"/>
<path d="M4220 4715 c0 -8 131 -68 136 -62 4 3 -21 19 -55 36 -57 29 -81 37
-81 26z"/>
<path d="M4350 4472 c0 -10 82 -32 113 -31 15 1 9 5 -18 13 -68 22 -95 27 -95
18z"/>
<path d="M4648 2453 c2 -43 9 -82 14 -88 7 -7 9 16 5 69 -3 43 -10 83 -15 88
-5 5 -7 -21 -4 -69z"/>
<path d="M4056 1833 c-10 -32 -21 -65 -24 -73 -3 -10 -2 -12 6 -5 14 12 53
135 43 135 -4 0 -15 -26 -25 -57z"/>
<path d="M3716 1633 c-8 -21 -23 -53 -31 -72 -12 -27 -12 -31 -1 -22 16 14 61
119 54 127 -3 3 -13 -12 -22 -33z"/>
<path d="M3955 1450 c45 -11 95 -11 95 0 0 6 -27 9 -62 9 -50 -1 -57 -3 -33
-9z"/>
<path d="M2681 4661 c-12 -22 -13 -96 -2 -125 6 -17 9 -16 26 10 25 39 28 127
3 132 -9 2 -21 -6 -27 -17z"/>
<path d="M2673 4397 c-53 -78 -56 -126 -9 -173 30 -30 40 -34 85 -34 28 0 51
4 51 9 0 5 -8 28 -19 52 -10 24 -21 52 -25 63 -5 15 -9 16 -21 6 -22 -18 -18
-56 7 -80 22 -20 15 -26 -17 -14 -19 8 -45 55 -45 82 0 11 9 31 20 45 14 18
19 34 14 51 -8 34 -14 33 -41 -7z"/>
<path d="M2773 4328 c49 -118 49 -119 63 -101 20 26 17 66 -6 91 -22 24 -66
31 -57 10z"/>
<path d="M3321 3826 c-26 -41 -26 -47 -1 -78 29 -38 68 -42 96 -10 30 32 31
72 1 100 -35 33 -71 29 -96 -12z m83 -12 c21 -20 20 -30 -5 -55 -18 -18 -23
-19 -42 -6 -29 19 -34 47 -11 64 23 17 39 16 58 -3z"/>
<path d="M1934 3944 c28 -28 12 -64 -28 -64 -12 0 -16 -3 -10 -9 5 -6 28 -5
57 2 35 7 60 8 88 0 46 -12 52 -1 9 17 -17 7 -47 26 -67 41 -39 32 -77 42 -49
13z"/>
<path d="M3523 3673 c-7 -2 -13 -21 -13 -42 0 -20 -5 -42 -12 -49 -23 -23 -2
-20 25 4 24 21 27 27 16 40 -10 12 -10 20 -1 35 12 19 8 22 -15 12z"/>
<path d="M2733 3656 c29 -22 20 -29 -30 -22 l-48 6 50 -20 c28 -11 57 -24 66
-29 18 -10 59 -4 59 9 0 16 -72 70 -93 70 -20 -1 -21 -2 -4 -14z"/>
<path d="M3159 3567 c-6 -12 -21 -30 -33 -39 -19 -15 -19 -17 -3 -23 33 -13
17 -24 -40 -27 l-58 -3 55 -18 c70 -23 190 -35 190 -18 0 6 -9 11 -21 11 -11
0 -34 9 -50 21 -33 23 -39 62 -14 89 14 16 14 18 1 23 -10 4 -20 -2 -27 -16z"/>
<path d="M4743 3785 c0 -8 4 -12 9 -9 5 3 6 10 3 15 -9 13 -12 11 -12 -6z"/>
<path d="M4760 3763 c0 -14 132 -125 139 -117 3 3 -10 19 -29 36 -75 64 -110
89 -110 81z"/>
<path d="M3905 3684 l-40 -24 32 0 c17 0 39 -3 47 -6 12 -5 15 -2 10 10 -3 9
-1 23 6 31 19 23 -7 18 -55 -11z"/>
<path d="M2230 3296 c0 -14 87 -48 154 -61 83 -16 361 -39 397 -33 l24 4 -25
6 c-14 4 -97 14 -185 23 -150 15 -308 42 -347 60 -10 4 -18 4 -18 1z"/>
<path d="M3740 3291 c-38 -22 -286 -56 -530 -73 -99 -6 -180 -15 -180 -20 0
-4 42 -5 93 -3 50 3 142 7 202 10 230 10 416 47 441 87 7 10 -7 10 -26 -1z"/>
<path d="M2296 3163 c39 -271 181 -492 391 -610 88 -49 303 -109 303 -85 0 5
-10 18 -23 30 -18 17 -26 19 -35 10 -18 -18 -88 7 -109 39 -31 46 -72 85 -83
78 -16 -10 -12 -35 6 -35 9 0 14 -6 12 -12 -6 -18 -59 -16 -71 3 -16 26 0 68
30 75 42 11 76 -8 111 -61 39 -58 47 -63 55 -35 3 12 13 20 27 20 19 0 21 -4
15 -27 -4 -16 -3 -25 1 -21 4 4 13 3 20 -3 9 -8 16 -4 25 12 10 19 9 24 -2 27
-30 10 -88 83 -104 133 -26 77 -17 191 19 253 15 26 43 57 61 69 39 25 41 29
20 47 -20 17 -19 30 7 57 l21 23 -89 1 c-49 1 -100 3 -114 4 -14 1 -74 6 -135
9 -100 6 -266 27 -338 42 l-29 6 8 -49z m142 -42 c3 -20 -6 -26 -35 -22 -7 1
-13 -5 -13 -13 0 -29 47 -29 121 -2 84 31 112 32 179 6 64 -25 108 -27 106 -3
-1 11 10 20 32 26 51 15 57 -3 16 -47 -31 -34 -39 -38 -70 -33 -32 5 -46 -5
-24 -18 12 -7 14 -65 2 -65 -5 0 -16 16 -25 35 -35 72 -137 100 -191 50 -16
-15 -26 -34 -26 -52 1 -24 2 -25 11 -10 17 29 24 19 24 -38 0 -45 -3 -55 -17
-55 -9 0 -24 10 -33 23 -16 21 -16 21 -10 -23 10 -73 24 -105 55 -135 36 -35
47 -29 23 12 -16 29 -16 32 0 57 27 41 87 30 87 -15 0 -23 -20 -35 -31 -18 -4
7 -11 11 -14 7 -12 -12 6 -48 31 -64 22 -15 26 -15 50 1 16 10 30 13 35 8 14
-14 1 -39 -27 -52 -91 -41 -202 36 -240 167 -14 49 -14 65 2 127 4 14 -3 10
-21 -13 -22 -26 -30 -30 -41 -21 -21 17 -17 35 11 57 l25 20 -25 6 c-70 18
-89 117 -25 139 21 7 54 -17 58 -42z m120 13 c4 -4 1 -4 -5 0 -7 4 -13 2 -13
-4 0 -6 -4 -8 -10 -5 -5 3 -10 2 -10 -3 0 -5 -12 -12 -26 -15 -17 -3 -24 -1
-20 8 2 7 0 17 -6 23 -7 7 5 9 37 7 25 -2 49 -6 53 -11z m211 -20 c10 -9 -55
-3 -69 6 -10 6 -2 7 25 3 22 -3 42 -7 44 -9z m166 -46 c9 -39 -5 -52 -38 -37
-31 14 -34 34 -11 60 21 23 41 14 49 -23z m-243 -81 c10 -19 9 -20 -4 -10 -8
7 -19 9 -23 5 -5 -4 -5 1 -2 10 4 11 0 18 -11 20 -27 6 -72 -3 -66 -13 3 -5
-2 -9 -10 -9 -29 0 -16 29 16 38 39 10 82 -8 100 -41z m179 -15 c-17 -20 -29
-46 -28 -57 2 -15 -3 -19 -20 -18 -17 2 -21 -1 -16 -15 3 -9 13 -25 21 -34 14
-16 13 -18 -6 -18 -15 0 -22 -6 -22 -20 0 -11 7 -20 15 -20 17 0 20 -25 5 -35
-16 -10 -12 -38 5 -31 16 6 16 5 20 -34 4 -37 -2 -41 -38 -21 -33 18 -47 55
-28 74 16 16 13 27 -8 27 -10 0 -29 9 -42 20 l-24 20 28 25 c15 13 34 22 42
19 17 -7 20 7 4 23 -6 6 -9 23 -7 39 2 23 9 30 31 32 19 2 27 9 27 22 0 19 48
52 62 43 5 -2 -5 -21 -21 -41z m-209 -9 c27 -24 24 -71 -6 -85 -31 -13 -50 -6
-72 26 -15 24 -15 28 0 51 19 29 51 32 78 8z m78 -59 c0 -11 -9 -29 -20 -39
-11 -10 -20 -24 -20 -32 0 -16 -12 -17 -28 -1 -18 18 -15 31 5 24 10 -4 14 -4
11 0 -4 3 0 13 9 22 10 10 13 26 10 48 -5 31 -5 32 14 16 10 -9 19 -26 19 -38z
m-179 -48 c-1 -3 -4 -7 -8 -8 -5 0 -13 -8 -20 -17 -10 -12 -12 -13 -13 -2 0 8
8 20 17 27 17 12 26 12 24 0z m133 -90 c-32 -18 -48 -16 -27 3 10 10 24 16 32
13 10 -4 9 -8 -5 -16z m-51 -133 c-7 -2 -19 -2 -25 0 -7 3 -2 5 12 5 14 0 19
-2 13 -5z m235 -14 c15 -24 10 -34 -13 -26 -15 6 -22 47 -7 47 4 0 13 -9 20
-21z"/>
<path d="M2620 2919 c0 -5 5 -7 10 -4 6 3 10 8 10 11 0 2 -4 4 -10 4 -5 0 -10
-5 -10 -11z"/>
<path d="M3570 3190 c-138 -21 -363 -40 -479 -40 l-82 0 20 -27 c20 -24 20
-28 5 -50 -14 -23 -14 -26 3 -39 26 -20 28 -18 28 23 0 33 3 38 24 38 13 0 29
-8 35 -18 9 -15 6 -22 -19 -42 l-29 -24 21 -29 c94 -127 59 -348 -65 -412 -22
-11 -22 -13 -8 -29 21 -23 20 -30 -6 -59 l-23 -24 50 7 c70 9 181 42 240 72
132 67 262 200 329 336 56 114 112 339 83 336 -7 -1 -64 -10 -127 -19z m80
-49 c13 -26 12 -62 -3 -82 -17 -23 -56 -41 -73 -35 -8 3 -14 1 -14 -4 0 -6 6
-10 13 -10 8 0 22 -9 31 -19 15 -16 16 -23 5 -42 l-12 -23 -29 34 c-21 24 -28
29 -24 15 16 -60 16 -78 2 -127 -37 -130 -150 -208 -240 -167 -26 12 -40 35
-30 50 9 14 32 10 42 -7 13 -23 49 -9 67 25 16 32 9 47 -12 29 -11 -9 -17 -9
-24 3 -12 19 -11 25 7 43 20 21 43 20 66 -1 24 -21 23 -54 -3 -87 -26 -33 -15
-33 28 0 41 31 58 64 66 127 6 44 -4 64 -17 32 -3 -8 -15 -15 -26 -15 -23 0
-23 0 -10 34 6 17 6 36 -1 56 -11 29 -29 42 -29 19 0 -5 -5 -7 -10 -4 -6 4 -8
11 -5 16 6 8 -11 13 -42 12 -7 -1 -10 3 -7 8 13 22 63 8 93 -26 25 -29 31 -32
31 -16 0 33 -11 51 -41 66 -66 35 -144 5 -177 -66 -19 -40 -20 -41 -31 -21 -9
17 -8 28 3 50 l14 27 -40 0 c-33 0 -44 6 -68 35 -16 19 -26 38 -24 42 8 13 49
9 70 -7 16 -13 17 -16 4 -25 -28 -19 57 -11 110 10 66 26 98 25 172 -5 75 -31
99 -31 124 -3 19 21 19 21 -2 16 -22 -6 -54 7 -54 22 0 37 82 54 100 21z
m-119 0 c-7 -5 -11 -13 -7 -19 8 -13 -34 -12 -51 1 -20 15 -5 27 35 27 25 0
33 -3 23 -9z m-206 -22 c-3 -3 -16 -5 -30 -4 -14 2 -25 -1 -25 -6 0 -13 -26
-11 -38 4 -8 9 2 12 43 13 30 0 52 -3 50 -7z m16 -122 c-13 -13 -26 -3 -16 12
3 6 11 8 17 5 6 -4 6 -10 -1 -17z m-183 1 c7 -7 12 -21 12 -31 0 -13 5 -17 15
-13 31 11 64 -61 35 -79 -18 -11 -11 -25 13 -25 13 0 32 -9 42 -20 18 -19 17
-21 -11 -45 -16 -14 -35 -23 -41 -20 -15 5 -17 -11 -3 -20 14 -9 12 -51 -3
-63 -6 -6 -24 -13 -39 -17 -25 -6 -26 -5 -25 27 2 25 6 32 20 30 21 -4 23 21
2 38 -20 17 -19 27 5 35 26 8 26 35 -1 35 l-21 0 22 35 22 35 -24 -2 c-19 -3
-23 1 -22 22 1 16 -10 36 -32 58 l-33 32 27 0 c16 0 33 -5 40 -12z m244 -30
c28 -23 29 -48 3 -74 -27 -27 -37 -29 -66 -14 -24 13 -25 57 -2 82 19 21 43
23 65 6z m-108 -58 c2 -18 11 -37 20 -42 20 -11 21 -32 1 -48 -13 -11 -14 -10
-10 2 4 10 -4 24 -20 36 -27 21 -31 54 -10 78 13 15 14 14 19 -26z m185 -67
c1 -1 0 -7 -4 -13 -5 -8 -13 -5 -26 9 -25 27 -24 34 4 19 12 -7 24 -14 26 -15z
m-148 -73 c6 0 7 -5 3 -11 -4 -7 -10 -7 -16 -1 -6 6 -17 8 -26 5 -10 -5 -13
-2 -8 6 5 7 15 10 23 7 8 -3 19 -6 24 -6z m-26 -130 c24 -26 13 -68 -20 -76
-25 -6 -45 1 -45 17 0 5 7 9 15 9 8 0 15 7 15 15 0 31 -41 15 -71 -29 -36 -50
-101 -86 -127 -70 -22 14 -28 36 -8 28 18 -7 21 7 6 22 -17 17 16 40 35 24 8
-6 13 -17 12 -22 -5 -25 20 -15 37 14 49 85 110 113 151 68z m75 -11 c0 -5 -4
-7 -10 -4 -5 3 -10 1 -10 -5 0 -6 -5 -8 -11 -4 -8 4 -7 9 2 15 19 12 29 11 29
-2z m-230 -13 c0 -18 -17 -29 -30 -21 -8 5 -7 11 1 21 15 18 29 18 29 0z"/>
<path d="M3360 2920 c0 -5 5 -10 10 -10 6 0 10 5 10 10 0 6 -4 10 -10 10 -5 0
-10 -4 -10 -10z"/>
<path d="M2953 2987 c-100 -108 -94 -275 11 -376 l36 -35 36 35 c106 101 111
268 11 374 -24 25 -46 45 -49 45 -3 0 -23 -19 -45 -43z m85 -33 c71 -86 69
-224 -4 -302 l-34 -37 -34 37 c-52 55 -70 144 -45 231 10 36 62 107 79 107 5
0 22 -16 38 -36z"/>
<path d="M2848 2415 c9 -5 76 -10 147 -10 72 0 138 5 147 10 11 7 -33 10 -147
10 -114 0 -158 -3 -147 -10z"/>
<path d="M3065 2375 c-46 -17 -151 -20 -160 -5 -8 13 -55 13 -55 0 0 -16 50
-24 150 -25 107 0 150 9 150 30 0 19 -32 19 -85 0z"/>
<path d="M2900 2271 c0 -20 3 -22 23 -16 27 10 100 10 143 0 28 -6 31 -5 31
17 0 23 -1 23 -98 23 -97 0 -99 0 -99 -24z"/>
<path d="M2877 2223 c-2 -5 2 -19 9 -33 8 -14 14 -20 14 -13 0 7 12 19 28 27
15 8 23 16 17 16 -5 1 -22 4 -37 6 -14 2 -28 1 -31 -3z"/>
<path d="M3077 2223 c-16 -4 -15 -6 5 -23 21 -16 23 -16 34 -1 20 27 6 36 -39
24z"/>
<path d="M2940 2175 c-28 -30 -30 -70 -6 -108 21 -31 42 -37 26 -7 -9 16 -8
20 6 20 16 0 16 1 1 18 -21 23 -22 56 -2 72 16 14 20 30 7 30 -5 0 -19 -11
-32 -25z"/>
<path d="M3032 2169 c22 -29 22 -31 6 -60 -9 -16 -12 -29 -7 -29 6 0 8 -10 4
-22 -6 -21 -4 -21 19 5 35 39 35 88 0 116 -38 30 -48 26 -22 -10z"/>
<path d="M2920 1930 c0 -6 33 -10 80 -10 47 0 80 4 80 10 0 6 -33 10 -80 10
-47 0 -80 -4 -80 -10z"/>
<path d="M2912 1889 c8 -25 178 -24 178 1 0 14 -57 13 -66 -1 -7 -12 -66 -8
-98 6 -14 6 -18 5 -14 -6z"/>
<path d="M2940 1836 c15 -15 94 -18 113 -4 15 11 8 13 -52 13 -39 0 -66 -4
-61 -9z"/>
<path d="M2942 1699 c-21 -91 -88 -182 -156 -211 l-31 -13 45 -5 c41 -5 48 -2
71 25 14 17 33 44 42 60 21 42 49 152 45 179 -3 13 -9 -1 -16 -35z"/>
<path d="M3041 1730 c-1 -44 29 -153 53 -195 37 -63 55 -74 101 -66 l40 6 -33
14 c-60 25 -112 100 -143 206 -10 35 -18 50 -18 35z"/>
<path d="M2946 1535 c-10 -27 -29 -52 -45 -60 -25 -14 -24 -14 33 -15 57 0 59
1 42 19 -13 14 -15 28 -10 60 4 22 5 41 3 41 -2 0 -12 -20 -23 -45z"/>
<path d="M3031 1538 c7 -37 5 -45 -13 -60 -20 -18 -19 -18 38 -18 l59 0 -27
23 c-15 12 -35 39 -43 60 -20 48 -24 47 -14 -5z"/>
<path d="M2650 1420 c0 -4 9 -15 20 -25 24 -22 25 -33 3 -57 -30 -34 17 -18
76 25 34 24 77 22 106 -8 29 -28 32 -61 9 -93 -30 -43 -6 -34 46 16 47 45 50
52 39 71 -12 18 -11 22 5 34 16 12 3 15 -105 21 -68 3 -141 10 -161 15 -21 5
-38 6 -38 1z m266 -89 c1 -12 -1 -19 -5 -15 -3 3 -6 9 -6 12 0 4 -4 13 -9 21
-6 9 -5 12 5 9 8 -3 15 -15 15 -27z"/>
<path d="M3300 1419 c-19 -5 -88 -12 -153 -15 -113 -7 -117 -8 -101 -25 14
-16 15 -21 4 -34 -11 -14 -6 -23 40 -66 54 -51 75 -59 46 -17 -24 34 -20 73
10 97 36 29 68 26 126 -9 26 -16 50 -30 52 -30 2 0 -1 14 -7 30 -10 27 -9 32
11 46 12 8 22 19 22 25 0 10 -2 10 -50 -2z m-197 -72 c-4 -7 -8 -15 -8 -19 0
-3 -3 -9 -6 -12 -4 -4 -5 4 -4 16 4 38 5 39 15 33 6 -4 7 -12 3 -18z"/>
<path d="M2598 1369 c-10 -5 -18 -16 -18 -23 0 -13 -31 -46 -43 -46 -3 0 -4 8
0 18 4 11 -5 7 -26 -13 l-33 -30 39 -3 c52 -4 109 22 127 57 22 41 -5 65 -46
40z"/>
<path d="M3358 1373 c-10 -2 -18 -10 -18 -17 0 -20 31 -57 59 -68 30 -13 121
-27 121 -19 0 9 -54 61 -63 61 -5 0 -4 -7 3 -15 9 -11 9 -15 1 -15 -6 0 -16
11 -21 24 -8 22 -47 58 -60 55 -3 -1 -13 -3 -22 -6z m32 -24 c0 -6 -4 -7 -10
-4 -5 3 -10 11 -10 16 0 6 5 7 10 4 6 -3 10 -11 10 -16z"/>
<path d="M2682 1294 c-55 -43 -128 -65 -191 -57 -87 10 -66 -14 32 -34 50 -11
94 -18 96 -16 3 2 -4 10 -15 18 -17 13 -10 14 67 12 94 -1 130 12 151 58 13
29 -3 55 -34 55 -15 0 -19 -5 -15 -19 9 -37 -31 -33 -44 5 -2 6 -23 -4 -47
-22z m51 -47 c-3 -5 -9 -3 -14 4 -4 7 -5 17 -2 22 3 5 9 3 14 -4 4 -7 5 -17 2
-22z m-44 14 c9 -6 10 -10 2 -16 -16 -9 -44 2 -36 15 8 12 16 12 34 1z"/>
<path d="M2976 1276 c-27 -42 -132 -86 -222 -94 l-79 -7 60 -6 c33 -4 105 -7
160 -8 81 0 96 2 80 11 -11 7 -36 11 -55 10 l-35 -3 47 27 c26 15 50 36 54 47
6 19 7 18 28 -6 11 -14 39 -35 61 -46 l40 -20 -40 -1 c-22 0 -47 -5 -55 -10
-18 -12 170 -13 240 -1 l45 7 -70 8 c-80 8 -183 53 -214 91 -23 31 -25 31 -45
1z"/>
<path d="M980 2435 c0 -4 94 -70 130 -90 39 -23 -19 31 -67 62 -51 32 -63 38
-63 28z"/>
<path d="M4948 2407 c-32 -17 -58 -35 -58 -38 0 -9 108 49 115 62 9 13 6 12
-57 -24z"/>
<path d="M1604 2143 c3 -16 8 -49 12 -75 3 -27 11 -48 16 -48 6 0 8 10 5 23
-3 12 -9 46 -13 75 -3 28 -11 52 -16 52 -5 0 -7 -12 -4 -27z"/>
<path d="M4377 2157 c-3 -8 -8 -45 -11 -83 -8 -86 9 -55 20 35 6 57 3 78 -9
48z"/>
<path d="M1686 1225 c-22 -7 -48 -22 -59 -33 -19 -19 -19 -20 3 -81 33 -89 21
-177 -37 -282 -2 -3 23 7 56 24 49 24 72 29 127 29 51 0 64 2 55 11 -7 7 -43
12 -86 12 -41 0 -75 1 -75 3 0 12 102 43 133 40 20 -2 37 0 37 3 0 13 -71 31
-101 27 -16 -3 -29 -1 -29 3 0 12 78 39 112 39 53 0 17 22 -49 30 -57 6 -58 7
-28 19 16 7 47 13 67 14 21 1 38 4 38 8 0 12 -105 30 -125 23 -12 -5 -16 -4
-11 4 8 14 70 32 116 33 l35 1 -40 13 c-56 19 -106 18 -134 -2 -18 -12 -23
-13 -19 -2 9 28 61 44 145 44 91 0 95 7 15 24 -68 14 -98 13 -146 -4z m5 -80
c21 7 22 6 11 -8 -11 -13 -10 -19 7 -33 19 -17 20 -40 0 -29 -5 4 -4 -5 3 -20
10 -22 9 -29 -11 -48 -13 -13 -20 -16 -16 -7 3 9 -1 38 -9 64 -8 27 -13 53
-10 57 2 4 0 10 -6 14 -5 3 -10 12 -10 18 0 8 3 8 9 -2 6 -9 16 -11 32 -6z m6
-185 c-1 -11 -6 -21 -13 -24 -9 -3 -13 27 -5 42 6 11 19 -2 18 -18z"/>
<path d="M4153 1228 c-59 -13 -54 -26 6 -20 59 5 110 -3 136 -22 16 -12 13
-13 -31 -9 -28 2 -68 -2 -94 -10 l-45 -15 40 -1 c46 -1 112 -18 119 -30 3 -4
-14 -8 -37 -7 -52 0 -97 -11 -97 -25 0 -6 5 -7 10 -4 14 9 108 -14 117 -28 4
-6 -2 -8 -15 -5 -11 3 -42 1 -69 -4 l-48 -11 53 -13 c29 -8 63 -19 75 -26 20
-11 18 -13 -29 -19 -28 -4 -60 -11 -70 -17 -16 -10 -12 -11 23 -12 42 0 123
-26 123 -39 0 -4 -16 -5 -35 -3 -41 5 -125 -6 -125 -16 0 -4 30 -8 68 -9 61
-1 87 -9 175 -51 5 -2 2 6 -6 19 -48 77 -57 181 -24 277 14 39 13 44 -3 65
-33 42 -123 57 -217 35z m197 -67 c0 -11 -4 -22 -9 -26 -10 -6 -13 -30 -14
-137 0 -57 -2 -66 -14 -56 -9 7 -12 21 -9 34 4 16 -1 29 -15 43 -19 17 -20 21
-7 26 10 4 14 14 11 26 -3 10 -10 16 -17 13 -6 -3 -3 1 7 9 9 8 17 22 17 32 0
19 27 55 42 55 4 0 8 -9 8 -19z"/>
<path d="M1698 820 c-48 -14 -98 -51 -104 -77 -15 -59 56 -113 146 -112 l45 1
-42 10 c-62 13 -53 23 22 23 45 0 68 4 74 14 6 9 10 10 16 2 4 -7 1 -19 -6
-27 -21 -26 -3 -25 21 1 19 20 22 30 14 42 -20 32 -59 53 -114 61 l-55 8 38
13 c21 7 60 11 87 9 41 -2 50 0 50 13 0 26 -127 39 -192 19z m18 -39 c-13 -14
-14 -20 -4 -27 20 -15 60 -32 93 -39 45 -10 14 -22 -77 -29 -62 -5 -79 -3 -92
10 -31 31 -9 67 57 91 43 15 42 16 23 -6z"/>
<path d="M4128 823 c-9 -2 -19 -10 -21 -17 -4 -11 9 -13 56 -13 37 1 72 -4 87
-13 25 -14 24 -14 -26 -21 -87 -11 -135 -59 -98 -100 20 -22 42 -26 24 -4 -21
26 6 48 51 41 39 -6 102 10 94 25 -3 4 -20 6 -38 3 -25 -3 -28 -3 -12 5 27 12
48 38 41 50 -10 15 37 6 67 -14 27 -17 32 -31 21 -59 -5 -14 -9 -14 -26 -2
-18 13 -25 11 -66 -10 -44 -24 -57 -25 -109 -8 -17 5 -17 4 1 -10 25 -20 81
-20 135 -1 53 19 53 5 -1 -23 l-43 -23 34 6 c18 3 49 14 67 26 104 64 9 170
-151 168 -38 -1 -77 -3 -87 -6z"/>
<path d="M2986 4894 c-3 -8 -10 -12 -16 -9 -5 3 -10 1 -10 -4 0 -6 -13 -24
-30 -39 -16 -16 -30 -35 -30 -42 0 -13 69 -129 79 -131 25 -6 51 -5 51 0 0 4
16 33 35 65 19 32 35 61 35 65 0 3 -14 22 -30 41 -16 19 -30 39 -30 43 0 5 -5
5 -10 2 -6 -3 -13 1 -16 9 -3 9 -10 16 -14 16 -4 0 -11 -7 -14 -16z m53 -56
l39 -42 -23 -28 c-13 -15 -29 -41 -36 -58 -17 -37 -23 -38 -38 -2 -6 15 -22
41 -35 57 l-24 30 36 42 c21 22 38 42 39 42 1 1 20 -18 42 -41z"/>
<path d="M3366 4765 c-9 -9 -17 -28 -17 -43 -1 -15 -2 -31 -4 -37 -1 -5 -3
-20 -3 -32 -2 -17 -8 -23 -26 -23 -37 0 -86 -46 -86 -80 0 -32 36 -72 69 -77
33 -5 101 37 101 63 0 7 7 15 16 18 8 3 13 2 10 -3 -3 -5 1 -12 10 -15 28 -11
52 -6 58 10 4 9 9 14 13 11 8 -8 33 40 33 62 0 10 3 21 8 25 14 15 7 61 -12
80 -11 11 -40 26 -65 33 -26 6 -55 15 -67 18 -13 4 -27 0 -38 -10z m152 -55
c11 0 12 -10 7 -42 -3 -24 -11 -55 -17 -71 -13 -33 -53 -46 -75 -24 -14 13
-13 16 6 26 17 10 22 9 27 -4 5 -12 9 -13 20 -4 25 20 16 49 -18 63 -78 32
-76 33 -83 -31 -8 -75 -19 -101 -50 -115 -19 -8 -31 -8 -50 0 -52 24 -16 99
44 90 l29 -4 13 82 12 81 60 -23 c34 -13 67 -24 75 -24z"/>
<path d="M2143 4652 c-7 -4 -17 -20 -22 -35 -7 -18 -7 -26 -1 -22 6 3 10 1 10
-6 0 -6 14 -38 30 -71 l31 -60 -31 -31 c-31 -32 -33 -38 -30 -100 1 -24 -5
-46 -15 -57 -22 -24 -16 -62 13 -76 13 -6 29 -17 35 -23 14 -14 27 -14 27 -1
0 14 -31 45 -52 53 -27 10 -23 41 3 34 21 -6 21 -4 15 54 -6 58 -4 62 23 90
16 16 37 29 46 29 13 0 6 18 -28 83 -25 45 -48 91 -51 103 l-6 21 52 -18 c51
-17 88 -53 88 -86 0 -20 -17 -15 -23 6 -4 16 -57 37 -57 22 0 -4 18 -42 40
-86 55 -109 52 -133 -20 -170 -34 -18 -42 -38 -34 -81 8 -41 23 -54 25 -22 1
13 2 31 3 40 1 17 63 78 79 78 5 0 6 4 2 9 -3 5 -1 12 5 16 13 8 13 62 1 70
-5 3 -15 21 -21 40 -10 30 -9 38 9 61 16 21 18 30 9 47 -6 12 -14 29 -18 37
-15 32 -111 68 -137 52z"/>
<path d="M2358 4636 c-10 -7 -15 -16 -11 -19 3 -4 1 -7 -5 -7 -19 0 -14 -65 6
-83 31 -28 64 -25 95 7 32 35 33 49 6 87 -22 32 -61 38 -91 15z m70 -28 c19
-19 14 -45 -10 -62 -19 -13 -25 -14 -43 -2 -26 18 -30 40 -10 60 19 19 46 21
63 4z"/>
<path d="M2419 4420 c-13 -8 -16 -23 -15 -72 3 -80 1 -86 -40 -103 -19 -8 -34
-19 -34 -25 0 -6 -4 -8 -10 -5 -9 6 -13 -8 -13 -45 1 -31 9 -45 33 -62 31 -20
84 -32 74 -16 -5 8 -1 9 10 5 10 -4 15 -3 11 3 -3 6 -1 10 5 10 18 0 49 62 45
92 -3 23 1 31 19 38 52 19 48 72 -12 138 -51 57 -50 56 -73 42z m36 -39 c3
-10 19 -30 35 -45 32 -28 36 -42 20 -66 -8 -13 -10 -12 -10 4 0 20 -27 56 -41
56 -4 0 -5 -36 -2 -79 5 -75 4 -80 -20 -105 -48 -48 -120 -23 -102 35 9 28 50
52 77 46 23 -6 23 -5 20 83 -2 56 0 90 7 90 5 0 12 -8 16 -19z"/>
<path d="M2175 4329 c-9 -39 -2 -46 17 -17 13 19 13 25 2 35 -10 10 -14 6 -19
-18z"/>
<path d="M1931 4314 c-45 -38 -43 -85 5 -130 20 -18 40 -33 43 -32 3 1 20 -4
36 -11 48 -20 61 -5 57 68 -3 53 -8 67 -35 97 -38 41 -65 43 -106 8z m89 -24
c11 -11 20 -31 20 -44 0 -12 5 -37 11 -55 15 -42 6 -48 -27 -22 -15 11 -35 21
-45 21 -23 0 -59 38 -59 62 0 24 35 58 60 58 11 0 29 -9 40 -20z"/>
<path d="M4083 4303 c-28 -19 -30 -54 -5 -76 23 -21 32 -21 60 2 28 24 28 48
0 72 -25 22 -26 22 -55 2z m47 -38 c0 -7 -6 -18 -14 -24 -21 -18 -41 11 -26
39 9 17 14 19 26 9 8 -6 14 -17 14 -24z"/>
<path d="M4075 4168 c-27 -24 -38 -70 -24 -99 7 -13 21 -17 61 -15 45 1 54 5
67 27 21 37 8 73 -33 93 -43 20 -40 20 -71 -6z m73 -20 c16 -16 15 -55 0 -65
-7 -4 -30 -8 -50 -9 -37 0 -48 8 -28 21 6 3 10 15 10 25 0 32 46 50 68 28z"/>
<path d="M1825 4141 c-15 -18 -16 -24 -4 -50 11 -25 20 -31 44 -31 42 0 61 31
45 71 -15 35 -57 40 -85 10z m63 -25 c4 -21 -14 -37 -35 -29 -14 5 -18 35 -6
47 12 12 38 1 41 -18z"/>
<path d="M4153 4027 c-26 -13 -39 -53 -23 -73 20 -23 50 -27 71 -8 24 22 24
56 1 77 -21 19 -19 19 -49 4z m45 -40 c4 -20 -25 -34 -39 -20 -14 14 1 45 20
41 9 -2 17 -11 19 -21z"/>
<path d="M4107 3882 c-20 -15 -40 -37 -46 -49 -11 -24 0 -36 61 -64 15 -6 25
-16 22 -20 -3 -5 11 0 31 12 61 36 72 83 28 115 -46 34 -59 35 -96 6z m91 -55
c5 -38 -29 -53 -70 -33 -17 9 -37 16 -45 16 -7 0 -13 5 -13 11 0 7 11 8 30 4
23 -5 30 -3 30 9 0 10 -6 13 -15 10 -8 -4 -15 -2 -15 4 0 6 12 15 28 20 35 12
66 -6 70 -41z"/>
<path d="M1960 3790 c-8 -5 -11 -10 -6 -10 6 0 1 -7 -10 -15 -10 -8 -15 -15
-10 -15 5 0 4 -6 -2 -13 -9 -10 -6 -24 10 -56 20 -41 23 -43 57 -37 20 3 42 7
49 8 6 1 10 3 8 6 -5 5 17 29 48 52 18 13 19 13 12 0 -4 -8 1 -4 12 10 l20 24
-21 15 c-11 8 -34 16 -51 18 -16 2 -32 7 -35 11 -11 13 -42 13 -59 0 -12 -10
-14 -10 -8 0 9 14 6 15 -14 2z m123 -37 c39 -6 51 -23 16 -23 -11 0 -33 -13
-47 -30 -30 -34 -57 -38 -84 -13 -24 21 -23 38 3 64 15 15 28 19 47 15 15 -4
44 -9 65 -13z"/>
<path d="M2030 3740 c0 -13 18 -22 24 -11 3 5 -1 11 -9 15 -8 3 -15 1 -15 -4z"/>
<path d="M258 1494 c-52 -27 -69 -120 -29 -151 22 -17 41 -16 64 4 18 17 20
17 36 -4 14 -16 16 -31 12 -60 -6 -33 -10 -38 -31 -36 -38 2 -90 -17 -90 -33
0 -9 -4 -13 -9 -10 -8 5 -21 -38 -21 -69 0 -17 36 -56 44 -48 9 9 -15 -60 -26
-74 -5 -7 -7 -17 -4 -22 4 -5 2 -12 -3 -16 -14 -8 -10 -204 5 -240 11 -26 10
-34 -7 -61 -18 -29 -18 -34 -3 -76 8 -25 33 -65 55 -89 21 -23 39 -44 39 -47
0 -2 -10 -2 -23 2 -33 8 -60 -25 -47 -58 5 -13 14 -27 21 -32 9 -5 7 -11 -6
-20 -13 -9 -20 -31 -23 -67 -6 -75 6 -93 67 -101 43 -6 54 -3 71 14 21 21 56
28 44 8 -4 -6 -3 -8 4 -4 6 3 14 2 17 -4 7 -12 46 -3 56 12 4 6 4 18 2 28 -9
33 16 31 39 -4 24 -36 68 -63 127 -77 28 -6 37 -4 57 16 13 13 24 20 24 15 0
-6 3 -9 8 -9 4 1 10 0 15 -1 38 -13 94 -21 152 -24 66 -3 207 22 199 35 -3 5
6 11 20 15 24 6 76 -19 76 -37 0 -13 42 -11 73 4 31 14 62 76 53 105 -5 16 0
22 25 31 41 14 51 14 73 -2 17 -12 17 -14 -1 -45 l-18 -33 33 -29 c32 -30 62
-39 62 -19 0 5 4 8 10 4 5 -3 23 9 40 26 36 38 30 26 36 76 15 111 -102 188
-238 159 -36 -8 -37 -8 -43 28 -4 20 -11 36 -16 36 -5 0 -18 9 -30 21 -12 12
-29 19 -40 16 -10 -3 -19 -1 -19 4 0 11 -50 -8 -72 -28 -29 -26 -34 -80 -10
-106 32 -34 1 -65 -84 -82 -21 -5 -46 -10 -54 -12 -18 -5 -94 -6 -132 -1 -34
4 -48 30 -15 28 53 -5 75 2 109 33 34 31 37 38 41 102 5 74 -1 91 -46 141 -24
26 -27 35 -18 52 8 15 7 27 -3 46 -11 22 -10 34 7 86 19 58 19 61 2 80 -20 22
-40 20 -112 -12 -33 -14 -47 -16 -63 -8 -14 8 -25 7 -40 -2 -19 -12 -24 -9
-52 24 -16 21 -34 35 -39 32 -5 -3 -16 2 -25 10 -18 18 -38 20 -64 6 -13 -7
-21 -7 -25 0 -28 45 -125 -71 -125 -149 0 -12 -3 -12 -12 -3 -19 19 -15 159 6
202 24 51 46 86 46 76 0 -6 5 -5 12 2 8 8 15 7 27 -7 9 -10 28 -17 45 -17 36
2 86 56 86 92 0 44 -37 92 -79 105 -21 6 -38 17 -38 25 0 7 4 11 9 8 20 -12 7
93 -17 141 -44 86 -125 119 -197 79z m139 -46 c56 -51 67 -127 29 -202 -19
-38 -21 -46 -7 -40 46 20 70 16 101 -14 18 -18 30 -41 30 -56 0 -31 -32 -66
-59 -66 -23 0 -36 16 -21 25 15 9 2 25 -20 25 -31 0 -86 -56 -111 -112 -17
-39 -23 -73 -23 -128 -1 -85 12 -124 62 -192 28 -37 43 -48 74 -53 50 -9 77 9
53 35 -30 33 -12 80 31 80 63 0 72 -72 16 -131 -31 -34 -46 -42 -85 -46 -66
-8 -127 18 -175 72 -50 57 -72 126 -72 226 0 91 21 160 75 252 19 32 32 57 28
55 -50 -24 -64 -34 -69 -50 -8 -27 -28 -17 -32 16 -7 55 66 99 99 60 12 -14
15 -12 30 22 35 78 16 164 -35 164 -25 0 -51 -22 -39 -33 3 -4 1 -7 -5 -7 -18
0 -42 30 -42 54 0 70 108 99 167 44z m87 -542 c-5 -12 -1 -13 23 -4 40 15 95
3 123 -27 31 -33 37 -99 15 -150 l-18 -40 -7 39 c-8 40 -48 86 -75 86 -8 0
-26 -11 -41 -24 -24 -20 -28 -31 -28 -75 0 -56 1 -55 -28 -40 -25 13 -48 68
-48 114 0 57 46 133 82 135 4 0 5 -7 2 -14z m416 -43 c-1 -28 -26 -92 -44
-112 -21 -23 -20 -29 7 -33 12 -2 22 -10 22 -18 0 -9 -21 -18 -65 -27 -85 -17
-154 -59 -158 -96 -4 -30 7 -34 38 -15 43 27 102 -39 70 -78 -18 -20 -48 -17
-60 7 -9 17 -14 18 -26 8 -28 -23 -46 -70 -39 -98 6 -22 8 -23 14 -8 6 17 8
16 20 -5 16 -31 83 -75 136 -90 57 -17 150 -14 218 6 42 12 70 29 105 63 l47
47 -30 5 c-25 5 -31 12 -33 38 -6 57 69 84 121 43 30 -24 41 -63 26 -91 -14
-28 -6 -34 23 -15 42 27 111 39 156 27 89 -25 134 -130 77 -186 -24 -25 -49
-31 -79 -19 -21 8 -20 20 4 44 26 26 25 36 -6 67 -22 22 -32 25 -72 21 -26 -3
-65 -13 -86 -22 -39 -16 -40 -17 -18 -32 29 -20 28 -49 -3 -79 -27 -28 -51
-31 -78 -10 -18 13 -17 14 12 30 17 8 31 20 31 25 0 19 -48 10 -107 -19 -86
-43 -141 -54 -246 -49 -76 3 -103 9 -149 31 -101 50 -160 145 -139 225 7 23
18 48 26 56 20 19 19 30 -1 22 -22 -9 -64 20 -64 43 0 26 38 71 60 71 29 0 67
65 86 146 14 59 20 71 31 63 7 -7 13 -21 13 -32 l0 -20 23 21 c18 17 104 57
130 61 4 1 7 -7 7 -16z m-608 -265 c69 -69 132 -81 219 -44 11 5 19 -1 27 -19
6 -14 18 -25 27 -25 19 0 19 -4 -1 -42 -36 -70 4 -179 86 -236 22 -15 39 -31
40 -36 0 -19 -91 2 -126 29 -73 56 -92 151 -49 243 13 28 21 52 18 52 -3 0
-21 -10 -41 -22 -73 -45 -186 -22 -242 49 -24 31 -44 99 -35 122 6 14 8 14 18
-4 7 -11 33 -41 59 -67z m618 7 c38 -36 47 -83 26 -126 -20 -40 -20 -43 -1
-35 20 7 19 -7 -3 -27 -60 -54 -158 -58 -212 -7 -40 37 -39 50 5 43 69 -11
126 37 105 91 -11 31 -21 36 -78 45 l-47 7 40 22 c56 31 125 25 165 -13z
m-487 -182 c-3 -7 -1 -13 4 -13 5 0 15 6 22 13 11 10 12 8 7 -8 -3 -11 -7 -61
-8 -112 -3 -89 -4 -92 -23 -79 -11 7 -21 23 -23 35 -4 23 -22 29 -22 7 0 -25
-42 -46 -92 -46 l-48 0 0 51 c0 44 4 55 31 80 17 16 25 29 18 29 -16 0 -49 30
-49 44 0 7 32 11 94 11 71 0 92 -3 89 -12z"/>
<path d="M306 342 c-3 -5 1 -9 9 -9 8 0 12 4 9 9 -3 4 -7 8 -9 8 -2 0 -6 -4
-9 -8z"/>
<path d="M5595 1481 c-56 -40 -79 -95 -72 -178 4 -58 3 -63 -13 -58 -29 9 -90
-57 -90 -98 0 -39 27 -100 41 -92 5 4 9 2 9 -4 0 -16 56 -6 75 13 21 21 22 21
50 -10 30 -33 54 -103 58 -174 6 -87 -10 -108 -32 -42 -13 39 -53 92 -70 92
-5 0 -11 5 -13 12 -3 7 -11 9 -24 4 -10 -5 -40 -8 -65 -7 -31 2 -50 -3 -58
-13 -8 -9 -18 -16 -23 -16 -14 0 -34 -23 -42 -48 l-7 -22 -19 22 c-16 20 -21
21 -41 10 -21 -11 -33 -9 -86 13 -64 26 -92 25 -94 -4 -4 -41 -1 -68 10 -94
14 -36 14 -53 -1 -76 -9 -15 -8 -22 6 -36 16 -17 16 -19 -13 -39 -39 -27 -60
-85 -58 -159 2 -52 6 -61 36 -87 35 -31 96 -54 115 -43 6 3 3 -3 -7 -13 -14
-15 -31 -19 -87 -18 -38 0 -80 5 -92 11 -13 6 -40 18 -61 27 -21 9 -40 23 -43
31 -4 8 -11 12 -17 8 -6 -3 -7 -1 -3 5 4 7 14 12 22 12 13 0 20 29 15 74 -2
23 -46 66 -69 67 -23 2 -46 -3 -77 -16 -29 -13 -44 -30 -56 -64 -8 -24 -15
-28 -32 -24 -37 9 -135 5 -157 -7 -38 -20 -79 -72 -86 -106 -9 -47 3 -98 26
-119 11 -10 17 -21 15 -25 -10 -16 61 -17 93 -3 17 8 33 18 34 22 5 22 4 60
-2 56 -14 -8 -21 27 -9 41 13 16 75 19 84 4 4 -6 11 -8 16 -5 5 4 6 -7 3 -25
-13 -61 52 -132 104 -116 11 4 32 18 46 31 14 13 26 19 26 14 0 -6 4 -8 9 -4
5 3 12 1 15 -4 13 -20 107 -42 194 -45 78 -2 101 1 149 20 55 22 72 20 73 -8
0 -3 13 -9 30 -13 30 -7 100 19 100 36 0 5 4 8 8 6 5 -1 27 18 49 42 l40 44
-4 -30 c-4 -22 1 -37 15 -51 l20 -20 37 25 c21 14 35 21 31 15 -10 -16 36 -38
79 -37 57 2 85 28 85 80 0 22 -8 56 -19 75 -16 30 -16 37 -5 48 29 27 7 82
-30 73 -17 -4 -37 9 -30 20 4 8 9 7 15 -2 7 -12 9 -12 9 -1 0 8 13 26 29 41
40 38 67 140 41 156 -6 4 -8 11 -5 16 4 5 1 9 -5 9 -6 0 -9 4 -6 8 24 40 28
284 4 298 -4 3 -8 14 -8 25 0 10 -4 19 -10 19 -16 0 -11 19 11 41 25 25 29 77
9 113 -14 27 -65 49 -102 44 -21 -3 -23 1 -26 48 -2 41 1 53 14 58 9 4 24 0
34 -9 24 -22 46 -18 70 12 28 36 19 78 -26 121 -45 43 -101 44 -159 3z m153
-36 c26 -31 28 -52 5 -77 -21 -23 -29 -23 -36 2 -7 27 -48 26 -73 -1 -37 -41
-19 -120 51 -234 56 -90 78 -154 83 -241 7 -134 -31 -228 -115 -288 -74 -52
-199 -44 -197 12 0 17 -4 21 -16 17 -36 -11 -58 66 -29 101 15 18 63 18 79 -1
15 -19 5 -65 -15 -65 -22 0 -18 -18 6 -31 54 -28 129 24 171 119 26 58 27 160
4 230 -23 67 -84 135 -118 130 -17 -2 -22 -9 -21 -26 2 -17 -2 -22 -19 -22
-51 0 -76 69 -43 117 19 27 75 39 104 24 26 -14 26 -14 1 34 -25 49 -26 118
-2 165 35 70 132 89 180 35z m11 -251 c12 -15 21 -37 21 -50 0 -25 -21 -45
-28 -25 -2 7 -9 16 -16 21 -66 54 -71 60 -56 70 26 17 58 11 79 -16z m-201
-309 c53 -60 55 -145 5 -197 -31 -33 -59 -39 -44 -9 25 46 -20 131 -69 131
-33 0 -63 -35 -70 -81 l-6 -44 -17 32 c-9 18 -17 53 -17 79 0 39 5 51 34 80
37 37 86 45 128 23 18 -10 20 -9 15 5 -11 27 9 18 41 -19z m-398 -26 c30 -11
62 -27 70 -34 14 -12 17 -11 28 5 19 31 30 24 37 -22 14 -86 61 -168 96 -168
23 0 47 -25 55 -56 9 -34 -22 -67 -53 -59 -28 7 -28 5 -2 -40 43 -72 6 -181
-80 -238 -118 -78 -321 -77 -459 4 -18 10 -44 19 -58 19 -32 0 -32 -28 1 -36
32 -8 32 -21 0 -36 -52 -24 -110 56 -69 96 19 20 21 18 -34 39 -72 28 -129 20
-152 -23 -12 -23 4 -65 21 -55 13 9 11 -19 -3 -33 -21 -21 -65 -14 -87 14 -47
59 -15 149 63 179 59 23 105 15 199 -33 4 -2 2 8 -4 21 -25 54 17 117 76 117
56 0 91 -48 66 -89 -8 -12 -12 -12 -24 -2 -23 19 -30 -4 -12 -38 20 -40 85
-77 170 -96 119 -28 247 8 309 87 14 19 26 27 26 19 0 -11 3 -12 11 -4 13 13
-5 85 -26 103 -13 11 -19 9 -36 -8 -23 -26 -29 -27 -53 -9 -25 18 -17 58 16
76 24 14 28 14 47 -3 24 -22 39 -15 39 20 0 34 -70 79 -147 94 -90 18 -94 20
-80 36 6 8 20 14 31 14 18 0 18 1 -1 28 -21 29 -54 132 -43 132 4 0 32 -9 62
-21z m601 -287 c-48 -94 -162 -124 -263 -69 -40 22 -42 25 -30 44 6 9 18 9 52
-3 80 -28 170 11 228 99 l27 41 3 -36 c2 -22 -5 -52 -17 -76z m-511 46 c25
-12 38 -22 30 -24 -8 -1 -32 -5 -53 -9 -24 -4 -43 -15 -53 -31 -40 -59 48
-130 117 -94 27 15 25 -9 -2 -39 -58 -62 -150 -64 -215 -5 -31 27 -34 34 -16
29 25 -7 28 2 7 29 -32 42 -12 112 41 147 38 25 88 24 144 -3z m251 -204 c19
-84 -22 -173 -94 -208 -39 -18 -97 -22 -97 -6 0 6 4 10 9 10 18 0 93 83 112
123 23 52 24 89 2 134 -14 30 -14 36 -2 44 21 13 56 -36 70 -97z m64 6 c10
-11 23 -20 28 -20 6 0 3 8 -6 18 -15 16 -10 17 79 17 52 0 94 -4 94 -9 0 -16
-32 -46 -49 -46 -11 0 -7 -7 13 -23 24 -20 30 -33 34 -80 l4 -57 -49 0 c-51 0
-93 21 -93 46 0 22 -18 16 -22 -7 -2 -12 -12 -28 -24 -36 -21 -13 -21 -12 -23
76 -1 50 -6 102 -11 116 -11 30 0 33 25 5z"/>
</g>
</svg>
