<?xml version="1.0" standalone="no"?>
<!DOCTYPE svg PUBLIC "-//W3C//DTD SVG 20010904//EN"
 "http://www.w3.org/TR/2001/REC-SVG-20010904/DTD/svg10.dtd">
<svg version="1.0" xmlns="http://www.w3.org/2000/svg"
 width="600.000000pt" height="600.000000pt" viewBox="0 0 600.000000 600.000000"
 preserveAspectRatio="xMidYMid meet">
<g transform="translate(0.000000,600.000000) scale(0.100000,-0.100000)"
fill="#000000" stroke="none">
<path d="M2956 5594 c-9 -8 -20 -13 -25 -9 -6 3 -15 -4 -21 -15 -6 -11 -15
-18 -19 -15 -5 2 -14 -2 -21 -10 -7 -8 -19 -15 -26 -15 -8 0 -14 -4 -14 -8 0
-5 -18 -18 -39 -30 -22 -12 -41 -26 -43 -30 -2 -4 -23 -23 -48 -41 -49 -38
-128 -115 -148 -146 -7 -11 -10 -13 -6 -5 4 9 3 12 -2 7 -5 -5 -10 -13 -10
-18 -1 -5 -2 -14 -3 -20 0 -5 -5 -8 -10 -5 -7 5 -21 -17 -32 -49 -1 -5 -11
-19 -21 -29 -16 -17 -52 -106 -53 -131 -1 -5 -6 -20 -13 -31 -6 -12 -16 -39
-21 -60 -6 -22 -19 -69 -29 -106 -11 -37 -18 -69 -16 -71 3 -2 -2 -19 -10 -38
-8 -19 -16 -47 -19 -64 -7 -45 -45 -156 -59 -173 -11 -13 -11 -14 1 -7 11 6
12 5 5 -6 -15 -24 -34 -83 -34 -109 0 -17 -9 -31 -27 -42 -16 -9 -41 -29 -58
-44 -62 -56 -78 -69 -70 -54 4 8 -13 -5 -39 -30 -25 -24 -46 -47 -46 -50 0 -3
22 -29 49 -57 30 -31 45 -54 38 -57 -7 -2 -4 -5 5 -5 19 -1 38 -29 31 -48 -2
-6 -23 7 -46 30 -24 23 -58 54 -75 69 -18 15 -32 30 -32 34 1 3 -9 14 -23 23
-14 9 -54 43 -89 76 -35 33 -86 79 -113 103 -29 26 -50 52 -50 64 0 14 -17 33
-45 53 -25 17 -50 41 -56 53 -6 12 -14 19 -17 15 -4 -3 -7 -1 -7 6 0 21 -29
43 -49 36 -11 -3 -24 1 -32 11 -11 14 -11 18 -1 21 6 3 10 9 6 14 -3 5 -1 9 5
9 6 0 7 7 4 17 -4 10 -2 14 5 9 6 -3 13 3 17 14 7 21 -3 65 -13 56 -3 -3 -10
4 -17 17 -13 27 0 45 31 41 12 -1 27 2 35 7 10 6 8 10 -11 17 -23 9 -65 2 -90
-13 -21 -13 -10 -53 22 -80 l32 -27 -22 -17 c-13 -9 -26 -28 -30 -43 l-7 -27
-39 36 c-39 36 -39 36 -19 53 l20 16 -23 28 c-30 34 -30 61 -1 90 l22 22 -105
42 c-58 23 -115 42 -128 42 -12 0 -69 24 -127 54 -58 30 -105 53 -105 51 0 -1
45 -35 100 -74 66 -46 121 -76 158 -87 31 -9 80 -28 108 -42 43 -21 50 -28 46
-48 -2 -13 3 -36 13 -50 14 -21 15 -28 4 -35 -9 -5 -35 9 -76 42 -34 27 -66
49 -70 49 -12 0 66 -77 165 -162 50 -44 92 -84 92 -88 0 -5 -20 -25 -45 -46
-53 -43 -45 -48 -158 80 -54 61 -69 74 -65 54 5 -25 3 -25 -26 -16 -17 5 -38
12 -47 15 -10 3 -28 -3 -42 -12 -24 -15 -26 -15 -47 15 -12 16 -19 30 -16 30
4 0 -4 21 -17 48 -13 26 -23 57 -22 69 1 12 -2 20 -7 17 -4 -3 -8 6 -8 20 0
14 -8 30 -17 35 -10 6 -13 11 -8 11 10 0 106 -103 113 -122 2 -4 10 -8 17 -8
8 0 17 -5 21 -12 5 -7 2 -9 -7 -4 -8 4 -5 1 6 -8 11 -8 26 -20 33 -27 7 -6 16
-8 19 -5 7 7 -78 106 -202 236 -126 132 -141 154 -60 86 52 -43 42 -31 -40 48
-60 58 -114 106 -120 106 -5 -1 13 -21 40 -45 28 -25 49 -49 48 -54 -1 -5 28
-63 66 -128 38 -66 71 -136 75 -155 3 -19 27 -77 52 -128 l45 -93 22 20 c35
33 64 37 101 15 25 -15 37 -17 45 -9 9 9 20 2 46 -26 35 -38 41 -49 28 -45
-18 5 -52 -15 -58 -32 -6 -17 -10 -15 -44 20 -43 46 -53 48 -82 19 -15 -15
-20 -30 -17 -55 2 -19 1 -34 -3 -34 -18 0 -75 82 -123 178 -52 103 -276 579
-276 586 0 15 782 -313 822 -344 40 -32 48 -36 48 -20 0 16 -73 80 -91 80 -10
0 -24 7 -33 15 -8 8 -19 15 -24 15 -9 0 -65 23 -149 61 -24 10 -49 19 -56 19
-7 0 -23 7 -35 16 -12 8 -22 12 -22 9 0 -3 -12 0 -27 9 -27 13 -43 21 -138 61
-22 9 -78 30 -125 47 -47 16 -90 34 -96 39 -19 15 -75 19 -88 6 -15 -16 -14
-24 12 -79 12 -27 31 -69 43 -95 11 -27 25 -55 30 -63 15 -25 43 -84 44 -95 1
-5 26 -59 56 -120 29 -60 53 -116 52 -122 0 -7 2 -11 6 -9 4 3 18 -20 31 -50
14 -30 29 -54 33 -54 5 0 6 -4 2 -9 -3 -5 6 -21 20 -35 14 -14 23 -26 20 -26
-4 0 8 -12 26 -27 l32 -27 19 24 c10 13 17 29 14 37 -3 7 -1 13 4 13 6 0 9 3
9 8 -3 19 2 23 16 12 8 -7 12 -17 8 -23 -3 -6 -1 -7 5 -3 9 5 9 13 1 29 -9 18
-9 20 1 10 15 -14 22 -63 9 -63 -6 0 -8 -4 -5 -9 4 -5 0 -12 -6 -15 -10 -5
-10 -7 0 -12 6 -3 12 -10 12 -15 0 -6 -4 -8 -9 -5 -8 6 9 -87 24 -124 3 -9 -6
-31 -20 -49 -20 -28 -22 -37 -12 -50 10 -12 9 -13 -3 -6 -8 4 -4 -4 9 -18 23
-25 20 -33 -11 -28 -4 0 -5 -6 -2 -14 4 -8 11 -12 17 -8 6 4 7 1 1 -8 -11 -17
-12 -92 -1 -100 4 -3 -3 -25 -15 -50 -12 -24 -21 -48 -20 -52 1 -5 -7 -20 -18
-34 -11 -14 -20 -30 -20 -35 0 -5 -9 -18 -20 -30 -11 -12 -20 -28 -20 -35 0
-7 -11 -32 -25 -57 -16 -29 -21 -47 -14 -51 13 -9 11 -10 42 50 14 28 43 81
66 119 22 38 48 91 58 118 9 26 21 48 26 48 5 0 7 -24 4 -52 -14 -149 -17
-180 -27 -268 -12 -121 -13 -352 0 -500 11 -133 40 -333 47 -326 3 2 -3 64
-13 138 -30 222 -25 596 12 841 l6 39 35 -52 c19 -28 37 -49 40 -47 3 3 -14
31 -37 62 -40 54 -41 58 -34 111 3 31 10 52 13 47 21 -24 84 -183 100 -253
l19 -81 -22 18 c-11 9 -33 29 -48 42 -36 31 -35 23 1 -36 35 -57 60 -129 67
-192 l6 -46 -52 53 c-29 29 -54 51 -56 49 -2 -1 15 -25 37 -52 60 -73 69 -95
67 -169 -1 -36 -3 -66 -5 -66 -1 0 -21 20 -44 45 -50 54 -72 60 -31 8 46 -59
72 -118 72 -165 l0 -42 -45 49 -46 50 46 -69 c25 -38 44 -75 41 -83 -4 -8 -6
-26 -6 -39 0 -33 -9 -30 -52 22 -21 25 -38 40 -38 34 0 -7 13 -28 30 -46 34
-39 45 -73 36 -110 l-7 -26 -29 41 c-41 56 -46 51 -11 -10 l28 -50 -19 -62
c-10 -34 -17 -72 -15 -85 7 -35 -7 -24 -63 53 -61 85 -67 104 -46 157 23 59
10 61 -15 2 l-22 -48 -18 44 c-23 58 -23 63 1 112 11 23 18 44 15 46 -3 3 -13
-15 -24 -39 -17 -38 -21 -41 -28 -24 -4 11 -8 49 -8 85 0 51 6 77 27 120 15
30 26 56 24 57 -6 6 -55 -75 -62 -102 -3 -14 -8 -24 -10 -22 -2 2 -11 47 -19
101 -16 107 -14 117 37 193 15 23 28 45 28 50 0 9 -33 -29 -61 -72 l-19 -30 0
31 c0 62 39 162 90 229 27 36 45 65 40 65 -6 0 -10 -4 -10 -9 0 -5 -22 -23
-50 -41 -35 -22 -56 -30 -72 -25 -22 6 -22 6 -4 -9 11 -9 24 -16 29 -16 5 0 4
-7 -3 -15 -7 -8 -9 -15 -6 -15 4 0 -2 -13 -13 -28 -11 -16 -18 -40 -17 -55 3
-27 -9 -37 -17 -14 -2 6 -2 -10 1 -38 3 -27 8 -52 11 -55 13 -11 9 -41 -5 -36
-10 4 -11 0 -4 -20 6 -14 12 -46 14 -72 4 -45 8 -63 26 -108 5 -12 6 -31 4
-41 -3 -11 1 -35 8 -54 8 -19 14 -41 13 -49 0 -8 6 -21 15 -28 8 -8 9 -10 2
-7 -10 5 -10 -1 2 -24 9 -17 16 -34 16 -38 0 -5 7 -16 15 -25 8 -10 13 -18 10
-18 -4 0 27 -50 61 -97 9 -12 16 -25 16 -30 0 -4 9 -14 20 -21 10 -7 16 -17
13 -22 -3 -5 4 -11 15 -15 11 -4 18 -11 15 -16 -4 -5 5 -9 18 -9 26 0 35 18
43 85 2 17 8 39 12 50 5 11 17 47 26 80 10 33 22 75 28 94 12 39 18 215 8 232
-4 6 -2 23 6 38 14 28 16 164 3 155 -5 -3 -9 -1 -9 5 0 5 4 12 9 16 11 6 7 68
-8 130 -5 22 -12 50 -15 63 -3 13 -1 20 5 17 5 -4 9 -3 10 2 0 4 2 17 5 28 5
26 -32 169 -57 222 -11 23 -20 45 -19 48 0 3 -8 18 -20 32 -14 18 -17 30 -10
37 13 13 13 113 0 121 -8 5 -7 11 1 21 16 19 14 72 -3 93 -12 14 -15 34 -8 51
14 36 14 168 0 185 -10 12 -7 15 15 21 20 5 23 9 13 15 -9 6 -9 9 -1 9 19 0
53 -42 53 -65 0 -12 3 -25 8 -29 4 -4 7 -13 7 -19 0 -7 8 -11 17 -9 16 2 73
-50 73 -67 0 -5 12 -19 27 -31 24 -18 26 -24 17 -43 -8 -13 -10 -50 -6 -103 5
-73 4 -86 -14 -108 -19 -24 -19 -28 -6 -56 9 -17 11 -32 6 -36 -10 -6 -7 -83
4 -100 9 -15 -9 -38 -23 -29 -8 5 -11 4 -6 -3 4 -6 0 -28 -9 -48 -8 -20 -15
-46 -15 -58 -1 -11 -7 -32 -14 -46 -12 -21 -12 -29 -1 -51 10 -18 11 -37 5
-62 -4 -21 -6 -50 -4 -65 2 -15 6 -47 9 -72 4 -25 15 -61 25 -81 11 -20 17
-46 15 -59 -2 -12 -1 -20 2 -16 4 3 16 -15 27 -42 19 -44 84 -143 110 -167 6
-5 18 -19 26 -30 14 -19 14 -19 -3 -6 -16 13 -20 12 -36 -5 -15 -16 -54 -132
-57 -169 0 -5 -6 -28 -12 -50 -16 -53 -15 -83 3 -101 12 -13 10 -21 -16 -65
-16 -28 -26 -55 -23 -61 4 -7 2 -8 -4 -4 -7 4 -12 2 -12 -3 0 -20 -2 -26 -20
-51 -9 -14 -27 -45 -39 -70 -12 -25 -27 -54 -34 -65 -7 -11 -17 -29 -24 -40
-10 -17 -14 -18 -40 -5 -15 7 -34 15 -42 16 -8 1 -18 9 -22 16 -5 7 -9 9 -9 3
0 -6 -3 -6 -8 0 -7 11 -66 40 -68 33 0 -1 -17 9 -37 24 -30 23 -76 48 -97 52
-3 1 -12 6 -20 11 -8 5 -21 10 -28 11 -8 2 -22 10 -33 20 -10 9 -19 13 -19 8
0 -5 -4 -4 -8 2 -4 6 -31 23 -59 39 -29 15 -53 34 -53 42 0 8 -10 24 -22 36
-16 16 -22 32 -20 51 3 21 -4 36 -22 53 -14 13 -26 30 -26 38 0 7 -4 15 -9 17
-12 5 -24 48 -13 48 23 0 21 33 -2 55 -14 13 -22 25 -19 29 8 7 -34 -1 -49
-10 -6 -4 -9 -3 -6 2 3 5 0 15 -8 22 -8 7 -14 10 -14 6 0 -3 -8 4 -18 17 -20
24 -88 49 -135 49 -52 0 -137 -55 -122 -80 3 -5 1 -10 -4 -10 -30 0 10 -92 48
-111 48 -23 89 -18 134 14 23 17 35 22 27 12 -14 -17 -13 -18 3 -12 11 4 16 3
12 -3 -3 -6 0 -13 8 -16 7 -2 14 -10 15 -17 1 -7 3 -25 4 -42 2 -16 7 -36 12
-44 6 -9 5 -12 -1 -8 -7 4 -10 -3 -9 -17 0 -13 4 -22 7 -20 7 4 20 -28 25 -64
1 -13 8 -29 13 -36 6 -7 8 -16 4 -20 -12 -11 -12 -40 -1 -53 6 -7 7 -13 2 -13
-5 0 3 -11 18 -24 15 -12 25 -26 22 -29 -3 -3 -2 -12 2 -19 5 -7 9 -17 10 -23
6 -35 37 -154 46 -175 6 -14 12 -34 13 -45 4 -27 31 -105 57 -163 12 -26 22
-52 24 -59 1 -7 12 -26 23 -42 12 -16 21 -33 21 -38 0 -4 11 -25 25 -46 14
-20 23 -42 19 -49 -4 -6 -3 -8 2 -5 5 3 19 -6 29 -19 11 -14 32 -38 47 -54 15
-17 25 -30 22 -30 -2 0 18 -22 45 -50 27 -28 55 -50 61 -50 6 0 8 -4 5 -10 -6
-9 8 -14 27 -11 5 0 7 -3 5 -8 -1 -5 9 -20 23 -34 14 -14 33 -35 44 -46 10
-11 21 -20 25 -19 19 2 32 -4 51 -24 11 -12 20 -18 20 -14 0 5 8 -2 18 -14 11
-13 29 -23 45 -22 15 0 32 -7 38 -14 6 -8 15 -11 20 -8 5 3 17 0 26 -6 16 -10
16 -11 -2 -5 -13 4 -16 3 -10 -3 6 -6 32 -17 58 -26 26 -9 58 -23 70 -31 12
-7 25 -14 30 -14 4 -1 24 -8 45 -17 20 -9 45 -19 55 -20 10 -2 28 -11 40 -19
36 -23 109 -47 101 -32 -5 9 -4 9 7 -1 7 -6 21 -12 31 -12 10 0 18 -5 18 -11
0 -5 5 -7 11 -3 8 5 10 -1 6 -18 -4 -14 -11 -56 -17 -94 -8 -59 -7 -71 6 -81
18 -13 44 -7 44 12 0 7 7 18 15 25 8 7 15 21 15 31 0 11 6 19 13 19 8 0 7 4
-3 10 -10 6 -11 10 -3 10 7 0 12 3 11 8 0 4 2 15 6 25 9 19 60 24 71 7 3 -6
19 -10 34 -10 15 0 32 -5 37 -10 6 -6 31 -12 56 -13 25 -1 44 -5 42 -8 -1 -3
6 -5 18 -5 12 1 23 -5 26 -13 3 -10 0 -12 -12 -8 -14 6 -15 3 -6 -14 6 -11 8
-29 4 -41 -3 -12 -2 -18 4 -15 5 4 8 -9 6 -31 -3 -39 17 -82 39 -82 14 0 39
35 47 64 4 15 13 9 48 -38 23 -31 39 -56 35 -56 -4 0 4 -8 20 -18 15 -10 24
-22 20 -25 -3 -4 1 -7 10 -7 9 0 17 -6 17 -12 0 -14 137 -148 189 -186 36 -26
54 -24 71 9 10 17 9 20 -1 14 -9 -6 -11 -3 -6 8 3 10 2 17 -3 17 -6 0 -10 5
-10 12 0 6 36 -27 80 -73 44 -46 80 -80 80 -76 0 5 7 1 16 -8 15 -15 18 -15
35 1 14 13 16 20 8 31 -6 7 -8 13 -5 13 4 0 2 6 -4 13 -33 37 -120 164 -120
174 0 7 -10 22 -22 34 -13 12 -16 18 -8 14 9 -5 8 0 -4 14 -11 12 -21 29 -22
37 -3 20 -54 94 -65 94 -5 0 -13 -9 -19 -20 -6 -11 -15 -20 -20 -20 -14 0 -51
42 -62 70 -14 36 -21 79 -9 61 6 -9 18 -12 37 -7 22 5 26 4 14 -4 -11 -8 -6
-10 23 -7 21 3 41 8 44 11 3 3 18 -1 34 -10 16 -8 29 -11 29 -7 0 4 5 2 12 -5
16 -16 62 -16 52 1 -4 6 2 3 15 -7 12 -11 20 -29 19 -40 -2 -14 2 -20 13 -18
8 1 21 -8 28 -20 7 -13 24 -31 38 -42 25 -18 25 -18 52 10 14 16 25 32 24 36
-2 5 3 7 10 5 6 -1 11 4 10 11 -2 6 1 12 6 12 5 0 13 9 16 20 4 11 11 18 16
15 5 -4 9 2 9 11 0 14 3 15 12 6 15 -15 48 -16 48 -1 0 5 4 8 9 5 5 -3 14 1
21 9 8 9 18 12 29 6 18 -8 70 -7 95 2 11 4 15 3 10 -4 -4 -8 1 -9 15 -4 30 9
27 -12 -10 -68 -31 -47 -51 -58 -65 -35 -4 7 -3 8 4 4 7 -4 12 -5 12 -2 0 3
-8 10 -19 15 -23 13 -59 -15 -66 -50 -3 -12 -10 -26 -17 -31 -7 -4 -9 -8 -4
-8 5 0 -1 -11 -13 -24 -13 -14 -20 -29 -16 -35 3 -6 2 -11 -3 -11 -5 0 -15
-12 -23 -27 -8 -15 -20 -35 -27 -43 -7 -8 -11 -18 -10 -21 6 -12 -25 -39 -36
-32 -6 3 -8 3 -4 -1 3 -4 -7 -29 -23 -54 -34 -54 -36 -68 -10 -81 14 -8 24 -6
41 9 13 11 28 20 33 20 6 0 7 3 4 7 -4 3 7 16 23 28 16 12 27 25 23 28 -3 4 1
7 11 7 9 0 14 5 11 10 -3 6 3 10 14 10 11 0 23 4 26 10 3 6 -1 7 -12 4 -17 -5
-17 -5 0 6 24 15 32 7 18 -18 -8 -15 -6 -23 8 -36 17 -15 20 -15 44 8 16 15
28 20 31 13 3 -8 5 -8 5 1 1 19 27 43 36 34 5 -4 5 -2 1 5 -4 7 4 18 21 27 15
8 25 15 21 16 -4 0 17 25 47 56 30 31 55 59 55 64 0 4 15 15 33 24 17 8 26 16
19 16 -9 0 -10 4 -3 13 46 55 61 76 61 86 0 20 27 0 41 -31 33 -74 70 -27 72
90 2 85 0 82 64 84 18 1 29 6 26 11 -3 5 3 8 13 7 40 -4 85 0 80 8 -3 5 17 13
43 18 l48 10 12 -57 c7 -32 21 -66 31 -77 11 -11 17 -22 14 -25 -11 -11 25
-15 40 -4 13 10 14 22 5 82 -5 39 -14 80 -19 92 -7 17 -5 21 8 18 9 -1 22 2
29 7 7 5 18 6 24 2 7 -4 9 -3 6 3 -4 6 7 13 26 16 17 3 58 17 89 31 31 14 62
26 68 26 6 0 48 18 94 40 46 22 88 40 95 40 6 0 11 3 11 8 0 8 84 45 114 49
11 2 33 18 49 36 15 17 25 26 22 19 -6 -11 -3 -11 13 -1 12 7 19 17 16 21 -3
4 2 5 12 1 11 -4 30 9 64 45 27 29 51 52 55 52 7 0 150 142 150 150 0 6 31 43
63 76 12 13 22 28 22 34 0 10 27 58 40 70 3 3 6 12 8 20 2 8 8 21 14 27 14 17
68 133 62 133 -2 0 3 11 12 25 9 14 13 25 8 25 -4 0 -3 5 4 12 7 7 12 20 12
30 0 10 11 50 24 90 13 40 26 87 27 103 2 17 7 35 12 42 4 6 10 29 13 50 3 21
10 42 16 48 8 7 9 6 3 -5 -8 -13 -7 -13 9 -1 9 8 21 22 27 32 11 22 1 51 -15
42 -8 -5 -8 -3 1 8 12 15 13 18 13 50 0 13 4 18 12 13 8 -5 9 -2 5 11 -4 9 -2
24 5 33 7 8 13 38 14 66 0 28 6 61 12 72 6 12 13 36 14 53 l2 31 28 -27 c15
-14 26 -29 24 -32 -2 -3 23 -6 57 -6 38 0 62 4 64 12 2 7 12 9 21 6 9 -3 14
-3 10 2 -4 4 1 20 12 35 11 16 20 35 20 44 0 22 -22 66 -33 66 -5 0 -6 7 -3
16 3 8 2 13 -3 10 -5 -3 -22 1 -37 9 -31 16 -134 18 -134 3 0 -5 -5 -6 -10 -3
-6 4 -27 -10 -48 -29 -20 -20 -40 -36 -45 -36 -4 0 -6 -4 -3 -8 3 -5 -1 -9 -9
-9 -8 0 -12 4 -9 9 7 11 0 10 -30 -3 -30 -14 -46 -67 -25 -80 11 -7 11 -13 -3
-37 -10 -16 -15 -32 -11 -36 3 -3 1 -6 -6 -6 -7 0 -9 -5 -5 -12 4 -6 3 -8 -3
-5 -6 4 -16 0 -23 -8 -7 -8 -15 -13 -19 -11 -9 6 -7 -37 2 -51 4 -6 -4 -25
-18 -41 -13 -16 -22 -32 -18 -36 3 -3 1 -6 -6 -6 -7 0 -9 -5 -5 -12 4 -6 3 -8
-3 -5 -5 4 -19 -2 -29 -11 -10 -10 -22 -19 -26 -21 -52 -16 -67 -24 -62 -32 3
-5 -2 -6 -10 -3 -9 3 -16 1 -16 -6 0 -6 -4 -8 -10 -5 -5 3 -10 1 -10 -4 0 -6
-4 -11 -10 -11 -5 0 -37 -13 -69 -29 -33 -16 -63 -26 -67 -22 -4 3 -4 1 -1 -6
4 -6 -5 -15 -23 -22 -17 -5 -30 -16 -30 -23 0 -9 -3 -9 -10 2 -7 11 -10 11
-10 2 0 -7 -4 -11 -8 -8 -5 3 -18 -2 -28 -12 -11 -9 -26 -18 -34 -20 -8 -2
-23 -11 -32 -19 -10 -9 -18 -12 -18 -8 0 5 -5 4 -11 -2 -19 -19 -25 -11 -117
172 -25 50 -51 97 -58 105 -7 8 -13 17 -13 20 -3 22 -27 70 -36 70 -5 0 -4 4
4 9 11 7 10 16 -9 47 -44 75 -115 164 -130 164 -11 0 -12 -2 -2 -8 6 -5 63
-111 126 -238 62 -126 130 -258 150 -292 20 -35 36 -67 36 -70 0 -7 -82 -54
-85 -50 -1 2 -14 24 -29 51 -16 26 -30 47 -33 47 -5 0 4 -81 13 -111 3 -11 -8
-21 -36 -34 -22 -10 -41 -16 -43 -14 -1 2 -18 51 -39 109 -20 58 -62 173 -93
255 -31 83 -68 180 -82 218 -13 37 -29 67 -34 67 -29 0 -58 -221 -61 -467 -2
-101 -5 -183 -8 -182 -3 0 -22 15 -44 34 l-39 35 5 120 c3 67 2 118 -2 113 -4
-4 -19 -44 -35 -88 -15 -44 -30 -82 -32 -84 -2 -3 -19 10 -37 28 l-34 33 14
47 c34 110 76 292 108 467 19 104 39 209 45 234 22 95 9 80 -29 -33 -51 -148
-93 -241 -165 -361 -58 -96 -73 -115 -59 -73 4 12 51 164 104 337 l97 315 39
22 c21 13 49 23 62 23 26 0 109 57 115 80 3 8 5 -41 4 -110 0 -99 4 -141 21
-203 12 -42 22 -97 22 -122 0 -54 13 -57 83 -22 l46 24 21 -71 c11 -39 32
-106 46 -149 13 -43 21 -83 18 -89 -4 -7 -2 -8 4 -4 15 9 16 93 1 101 -5 4 -8
12 -6 18 7 23 -52 191 -74 208 -18 13 -19 18 -7 30 36 37 118 156 118 171 0 9
4 19 9 22 5 3 12 18 16 33 3 16 13 42 20 58 19 40 27 94 29 190 0 44 4 85 8
91 4 6 6 20 4 30 -7 34 -48 149 -57 160 -5 6 -7 40 -4 75 2 38 0 68 -7 76 -8
10 -6 19 8 35 12 14 14 18 4 13 -13 -8 -13 -7 -1 8 11 13 11 17 1 17 -8 0 -10
3 -7 7 4 3 0 14 -9 24 -13 15 -14 28 -4 99 10 73 9 84 -5 100 -16 18 -16 20 4
41 11 12 18 26 15 31 -3 5 -2 7 3 6 4 -2 20 9 35 22 14 14 41 37 58 52 23 20
31 34 27 48 -3 11 0 23 5 27 7 4 8 1 3 -8 -5 -8 -4 -11 1 -6 5 5 9 14 9 20 0
18 45 16 54 -2 5 -9 5 -38 1 -64 -6 -42 -3 -73 14 -147 2 -8 -6 -32 -18 -52
-20 -36 -20 -39 -4 -68 11 -20 13 -32 6 -36 -7 -4 -9 -32 -5 -78 4 -53 1 -74
-9 -84 -8 -7 -17 -25 -20 -40 -4 -15 -12 -30 -17 -34 -6 -3 -11 -15 -12 -25 0
-10 -5 -24 -9 -32 -18 -29 -43 -156 -33 -168 5 -7 6 -13 1 -13 -5 0 -1 -5 9
-11 9 -5 17 -15 17 -22 0 -7 -4 -6 -11 3 -8 12 -9 12 -7 -5 1 -11 -3 -36 -10
-55 -15 -48 -22 -129 -11 -136 5 -3 9 -11 9 -17 0 -9 -2 -9 -8 0 -4 7 -7 -26
-6 -72 0 -46 6 -90 11 -97 6 -7 9 -22 7 -33 -10 -57 -12 -105 -3 -105 5 0 9
-5 9 -11 0 -5 -4 -8 -9 -5 -12 8 -6 -65 8 -91 6 -12 11 -35 11 -51 0 -16 6
-42 14 -57 8 -15 12 -34 9 -43 -4 -9 -2 -13 3 -9 6 3 17 -29 27 -76 10 -44 23
-85 30 -89 8 -5 24 6 47 30 48 54 140 190 140 208 0 9 5 12 12 8 8 -5 9 0 6
14 -4 14 -2 20 4 16 6 -4 8 -1 6 7 -3 8 1 27 9 43 17 32 26 78 24 120 0 16 3
34 8 40 18 22 30 94 35 211 5 107 3 127 -17 186 -18 53 -20 68 -10 78 15 14
12 41 -12 96 -10 22 -17 46 -16 54 1 7 -2 10 -7 7 -6 -3 -30 36 -55 86 -50
103 -65 144 -49 134 12 -7 10 59 -1 71 -4 3 -2 15 4 26 8 14 8 18 0 13 -7 -5
-10 1 -7 16 3 13 5 23 6 23 1 0 4 13 6 29 3 18 -1 35 -13 48 -21 23 -22 40 -7
88 6 19 10 55 9 80 -1 25 2 51 8 58 7 9 5 11 -8 5 -15 -5 -17 -3 -12 11 5 11
3 15 -5 10 -7 -4 -8 -3 -4 4 4 7 14 12 22 12 9 0 12 -5 8 -12 -4 -7 -3 -8 5
-4 6 4 9 12 6 17 -4 5 1 9 9 9 10 0 16 -9 16 -24 0 -13 9 -34 19 -47 l19 -23
51 54 c28 30 51 58 51 62 0 4 37 84 83 177 45 93 78 167 72 163 -5 -3 0 7 13
22 12 16 22 37 22 47 0 10 5 21 12 25 7 5 8 3 3 -6 -6 -9 -4 -11 4 -6 7 5 10
14 7 22 -3 7 -1 16 5 19 5 4 7 10 4 15 -3 4 2 11 11 14 9 4 14 9 11 12 -6 7
50 132 70 156 13 14 12 18 -9 29 -28 16 -68 19 -68 6 0 -5 -7 -6 -16 -3 -8 3
-12 2 -9 -4 3 -6 -1 -11 -9 -11 -9 -1 -19 -3 -23 -4 -5 -1 -23 -6 -40 -10 -19
-4 -30 -12 -26 -18 3 -5 2 -7 -4 -4 -6 4 -29 -2 -51 -13 -23 -11 -46 -20 -52
-20 -6 0 -32 -11 -59 -25 -27 -13 -51 -21 -55 -18 -3 4 -6 2 -6 -4 0 -5 -7
-10 -15 -10 -13 0 -30 -6 -142 -55 -23 -10 -47 -18 -52 -18 -6 0 -11 -4 -11
-10 0 -5 -7 -7 -15 -4 -8 4 -15 1 -15 -5 0 -6 -5 -11 -11 -11 -5 0 -31 -10
-57 -22 -26 -12 -53 -23 -60 -24 -8 -1 -20 -11 -29 -21 -8 -10 -11 -11 -7 -3
4 8 -7 2 -24 -14 -18 -17 -32 -35 -32 -42 0 -23 29 -42 59 -40 16 1 28 -1 25
-5 -2 -4 1 -9 7 -11 6 -2 -1 -16 -15 -31 -14 -15 -22 -27 -18 -27 4 0 0 -4 -8
-10 -12 -8 -12 -11 3 -28 9 -10 15 -22 12 -25 -3 -4 -2 -5 2 -2 3 3 12 -7 20
-21 17 -33 17 -34 -4 -34 -15 0 -16 -2 -3 -10 12 -8 10 -10 -10 -10 -48 0 -58
-4 -69 -27 -6 -12 -15 -23 -21 -23 -6 0 -9 -4 -5 -9 6 -11 -44 -53 -55 -46
-12 7 -52 -41 -48 -58 2 -10 -30 -46 -79 -91 -45 -41 -79 -76 -76 -79 2 -3 -5
-8 -16 -12 -11 -3 -34 -22 -50 -41 -17 -19 -31 -32 -31 -28 0 4 -16 -9 -36
-30 -19 -20 -39 -34 -44 -31 -4 3 -7 -3 -6 -13 1 -11 -6 -16 -17 -16 -10 1
-16 0 -13 -3 6 -6 -24 -42 -47 -54 -12 -7 -17 -6 -15 3 4 18 22 37 30 31 4 -2
5 2 2 10 -3 8 2 17 11 21 9 3 13 11 10 16 -4 6 -3 9 2 8 10 -3 73 59 73 72 0
5 -5 12 -10 15 -6 4 -8 10 -5 15 3 5 -7 18 -22 29 -16 11 -39 31 -52 43 -13
13 -21 16 -17 8 4 -8 -1 -5 -10 8 -9 12 -21 22 -26 22 -5 0 -21 13 -37 29 -15
15 -33 30 -40 32 -8 3 -15 23 -18 44 -2 22 -11 51 -19 63 -9 13 -13 26 -11 29
3 2 -1 21 -10 41 -8 20 -17 45 -19 56 -12 66 -29 114 -37 109 -6 -3 -7 -1 -4
4 10 16 -66 297 -102 378 -11 23 -19 48 -18 55 0 3 -12 24 -26 47 -15 24 -27
47 -27 53 0 5 -9 15 -20 22 -11 7 -20 16 -20 21 0 4 4 6 9 2 5 -3 12 -1 15 4
4 5 -2 8 -11 7 -11 -2 -39 19 -70 52 -50 52 -58 65 -54 85 1 5 -3 6 -9 2 -6
-3 -8 -12 -4 -18 3 -7 -4 -1 -15 13 -11 14 -21 22 -21 18 0 -5 -8 0 -18 10
-11 9 -17 21 -14 26 3 5 0 6 -5 3 -11 -7 -30 10 -33 28 -1 6 -4 12 -7 15 -4 3
-3 -1 1 -7 4 -7 3 -13 -3 -13 -5 0 -11 4 -13 8 -10 24 -188 122 -221 122 -8 0
-23 -7 -31 -16z m140 -64 c156 -94 331 -258 396 -370 40 -68 92 -222 158 -470
23 -85 56 -195 75 -243 38 -101 26 -99 -51 10 -56 77 -91 156 -139 308 -20 65
-57 160 -82 210 -46 90 -147 250 -166 262 -11 7 -10 5 42 -77 52 -82 126 -246
149 -330 12 -41 30 -131 42 -200 35 -214 60 -278 140 -355 l41 -40 -34 58
c-30 49 -83 205 -73 214 2 2 15 -14 29 -36 42 -63 156 -173 260 -250 53 -40
97 -75 97 -80 0 -4 -20 -28 -44 -53 -24 -25 -59 -71 -77 -102 -19 -31 -37 -56
-41 -56 -5 0 -8 17 -8 38 0 69 -28 176 -51 195 -31 25 -45 22 -97 -27 l-47
-44 -45 32 c-103 75 -135 132 -175 313 -44 201 -47 207 -246 388 l-150 136
-144 -131 c-202 -183 -209 -194 -248 -370 -37 -171 -61 -226 -122 -285 -28
-27 -63 -56 -78 -64 -25 -13 -29 -12 -71 27 -49 45 -57 48 -87 32 -29 -16 -49
-75 -57 -170 l-7 -85 -58 87 c-32 48 -70 96 -84 106 -16 12 -24 25 -20 34 3 9
47 47 99 86 101 76 237 211 263 262 30 57 28 23 -4 -77 -18 -53 -43 -112 -56
-130 -34 -44 -31 -53 5 -18 40 38 86 110 105 164 8 24 26 109 40 190 14 80 34
179 45 219 26 92 93 238 154 331 25 39 42 71 38 71 -12 0 -127 -180 -170 -265
-22 -44 -58 -138 -81 -210 -54 -168 -95 -253 -166 -343 -31 -40 -59 -72 -61
-69 -2 2 5 21 17 43 24 47 73 203 129 412 55 207 90 300 144 381 78 117 256
273 421 368 48 28 66 25 151 -27z m2158 -506 c-31 -65 -71 -150 -89 -189 -171
-364 -197 -411 -241 -440 -23 -15 -23 -15 -18 14 5 23 1 35 -20 56 -30 30 -47
25 -89 -24 l-25 -30 -16 24 c-9 14 -25 25 -36 25 -26 0 -26 2 12 44 24 28 34
33 45 24 10 -8 18 -6 34 8 28 25 83 23 112 -4 l23 -22 36 68 c19 37 43 92 53
122 22 71 45 118 107 221 28 46 51 90 51 97 0 7 18 27 39 43 21 17 38 35 38
41 0 9 -56 -38 -183 -155 -23 -21 -33 -33 -21 -28 11 5 27 17 34 26 7 9 32 30
54 48 23 17 -15 -29 -84 -103 -69 -74 -147 -160 -173 -190 -26 -30 -47 -50
-47 -44 0 5 4 14 8 20 5 5 24 35 41 67 l33 58 -56 -28 c-31 -15 -56 -31 -56
-35 0 -5 14 -1 31 7 17 9 33 15 35 12 2 -2 -53 -66 -123 -141 -153 -165 -179
-204 -58 -86 103 100 102 88 -3 -28 -72 -80 -109 -100 -106 -59 1 10 -3 16
-10 14 -6 -3 -23 7 -37 20 l-27 25 134 120 c142 127 180 175 66 84 -44 -35
-73 -51 -81 -46 -10 6 -9 13 4 34 10 14 15 37 13 50 -4 22 2 28 61 54 36 17
86 36 110 42 25 7 63 27 85 45 23 18 67 49 98 69 83 52 80 61 -4 15 -94 -52
-156 -79 -179 -79 -10 0 -65 -19 -122 -43 -96 -39 -103 -43 -86 -57 31 -26 34
-64 6 -96 -24 -27 -24 -28 -5 -44 19 -15 18 -16 -21 -52 -32 -29 -41 -33 -41
-19 0 10 -11 30 -25 44 l-26 25 31 30 c34 34 37 53 14 76 -15 16 -39 20 -79
16 -19 -2 -19 0 4 24 13 14 74 46 135 72 168 72 691 282 694 279 1 -1 -23 -55
-54 -121z m-2252 -111 c-8 -3 4 -13 27 -25 23 -11 38 -24 35 -29 -3 -5 -1 -9
5 -9 21 0 241 -216 241 -237 0 -7 5 -13 11 -13 5 0 7 -4 4 -10 -3 -5 -2 -10 3
-10 5 0 9 -6 10 -12 1 -7 6 -35 12 -63 6 -27 12 -59 14 -70 4 -34 37 -137 61
-190 22 -50 85 -125 105 -125 6 0 9 -3 6 -8 -2 -4 13 -17 35 -29 22 -12 37
-18 35 -14 -3 4 1 8 8 8 7 0 13 -6 13 -14 0 -7 -7 -13 -14 -13 -8 0 -11 -4 -8
-10 3 -5 2 -10 -3 -10 -9 0 -24 -13 -119 -101 -21 -19 -51 -44 -66 -53 -15
-10 -27 -25 -27 -33 0 -8 -5 -11 -10 -8 -6 3 -13 -1 -16 -9 -8 -22 -17 -20
-47 10 -38 38 -128 81 -204 99 -61 14 -67 14 -85 -1 -16 -15 -22 -15 -43 -4
-27 14 -114 8 -162 -12 -15 -6 -30 -12 -33 -13 -37 -10 -91 -42 -113 -66 l-27
-30 -25 19 c-13 11 -21 23 -17 27 4 3 3 5 -3 4 -11 -3 -50 29 -120 98 -24 23
-45 41 -47 40 -1 -2 -28 22 -58 52 -30 30 -46 48 -35 39 17 -14 36 -16 78 -9
5 0 5 6 1 13 -4 6 -3 8 3 5 6 -4 36 17 66 46 40 37 65 71 86 120 17 37 28 67
24 67 -3 0 0 6 6 13 6 8 8 16 5 20 -3 3 0 15 6 27 6 11 13 40 16 63 6 53 44
169 59 182 7 6 22 25 34 43 12 17 29 32 37 32 8 0 14 4 14 8 0 5 7 17 16 28 8
10 12 12 9 4 -4 -8 12 4 34 27 23 23 41 40 41 37 0 -3 6 1 14 8 8 7 12 16 9
21 -2 4 2 7 10 7 8 0 29 16 48 35 19 19 39 34 44 34 6 0 4 -3 -3 -6z m2058
-88 c0 -2 -10 -10 -22 -16 -21 -11 -22 -11 -9 4 13 16 31 23 31 12z m-36 -69
c2 -15 -1 -29 -6 -32 -4 -3 -5 -10 -2 -16 4 -6 2 -8 -3 -5 -6 4 -14 0 -17 -9
-4 -9 -2 -13 5 -8 6 4 5 -4 -2 -17 -7 -13 -12 -27 -11 -31 1 -5 -2 -8 -8 -8
-5 0 -10 -6 -10 -14 0 -8 -9 -24 -20 -37 -16 -20 -21 -22 -29 -10 -10 16 -71
19 -108 7 -19 -7 -21 -5 -16 16 8 32 32 58 49 51 14 -5 38 8 84 47 14 12 18
18 10 14 -8 -4 -3 5 12 20 16 17 32 25 39 20 8 -4 9 -3 5 5 -7 11 12 46 21 37
3 -2 6 -16 7 -30z m-2588 -190 c0 -14 -6 -22 -13 -19 -9 4 -9 9 0 24 15 24 15
24 13 -5z m1144 -5 c0 -5 3 -18 7 -28 6 -16 5 -16 -10 -4 -19 15 -23 41 -7 41
6 0 10 -4 10 -9z m-1155 -31 c3 -6 -1 -7 -9 -4 -18 7 -21 14 -7 14 6 0 13 -4
16 -10z m-896 -34 c9 -10 -4 -27 -59 -80 -65 -61 -90 -73 -90 -43 0 12 119
137 131 137 4 0 12 -6 18 -14z m3024 -50 c67 -64 78 -81 55 -89 -23 -8 -155
124 -143 143 10 17 17 12 88 -54z m-2986 3 c9 -9 6 -16 -10 -30 -12 -9 -18
-21 -14 -25 4 -5 12 -2 16 5 5 7 17 11 27 9 16 -3 14 -6 -11 -22 -16 -9 -43
-35 -58 -57 -26 -36 -57 -52 -57 -30 0 16 18 22 23 9 3 -7 6 -1 6 14 1 39 40
138 55 138 6 0 17 -5 23 -11z m2907 -14 c9 -13 16 -31 16 -40 0 -8 4 -15 9
-15 4 0 6 -11 3 -25 -3 -17 1 -27 12 -31 15 -6 23 -34 10 -34 -6 0 -34 29 -58
60 -6 9 -24 24 -39 33 -16 10 -26 21 -23 25 4 3 12 0 18 -6 21 -21 31 -13 15
12 -12 17 -13 26 -4 35 16 16 23 14 41 -14z m-2985 -57 c-11 -41 -37 -62 -56
-47 -17 15 1 39 29 39 10 0 16 5 13 10 -7 12 2 30 15 30 5 0 4 -14 -1 -32z
m3038 15 c4 -10 16 -25 27 -34 27 -22 13 -42 -20 -27 -18 9 -24 17 -20 32 3
11 0 26 -6 33 -7 9 -7 13 1 13 6 0 15 -8 18 -17z m-3317 -32 c0 -16 3 -50 7
-77 7 -46 8 -47 14 -19 4 17 7 54 8 83 1 32 5 52 12 52 9 0 10 -21 6 -72 -8
-86 -25 -154 -36 -142 -22 25 -42 222 -21 209 6 -3 10 -19 10 -34z m440 19 c9
-17 8 -20 -10 -20 -26 0 -100 -74 -100 -100 0 -11 -7 -20 -15 -20 -47 0 -10
82 58 131 47 34 53 35 67 9z m2761 -6 c46 -31 93 -98 85 -119 -8 -23 -33 -18
-40 8 -7 31 -74 97 -98 97 -21 0 -23 11 -6 28 16 16 16 16 59 -14z m349 -8 c0
-18 3 -55 7 -82 l7 -49 7 40 c5 22 8 57 8 77 1 20 6 40 13 44 8 5 10 -12 5
-67 -8 -85 -24 -152 -36 -145 -11 7 -32 143 -29 184 3 42 18 41 18 -2z m-2912
-207 c348 -321 327 -297 329 -362 l2 -57 -192 179 c-106 98 -208 192 -227 209
-26 23 -31 31 -17 32 9 0 17 7 17 15 0 17 -9 19 -29 6 -10 -7 -33 8 -83 52
l-69 62 26 23 c14 12 30 22 36 22 5 0 98 -82 207 -181z m2546 160 l26 -20 -62
-57 c-34 -31 -68 -57 -77 -58 -42 -3 -44 -4 -32 -18 9 -10 -29 -51 -186 -197
-108 -101 -208 -192 -220 -203 l-24 -18 3 56 3 57 260 239 c143 131 265 239
271 240 6 0 23 -9 38 -21z m-2549 -295 c88 -82 199 -184 246 -227 52 -46 89
-88 92 -103 2 -13 2 -24 -1 -24 -3 0 -40 33 -82 73 -41 39 -100 95 -130 122
-404 371 -420 387 -409 402 10 12 21 5 68 -40 31 -29 128 -120 216 -203z
m2593 230 c-2 -7 -107 -109 -234 -226 -381 -351 -398 -366 -390 -338 7 25 60
77 415 408 178 166 218 195 209 156z m32 -39 c0 -2 -12 -15 -26 -28 -23 -21
-25 -32 -27 -104 -1 -44 -7 -86 -14 -94 -7 -9 -11 -52 -11 -114 1 -89 -2 -106
-23 -143 -13 -23 -30 -44 -37 -47 -7 -2 -10 0 -7 5 8 13 -26 71 -37 64 -4 -3
-8 0 -8 5 0 6 -6 11 -14 11 -8 0 -21 6 -28 14 -8 7 -28 21 -46 30 -17 9 -39
28 -48 41 -9 14 -20 22 -25 20 -14 -10 0 40 16 51 8 6 11 14 7 18 -4 4 -2 7 3
6 21 -5 36 0 30 10 -3 6 1 10 10 10 9 0 13 5 10 10 -3 6 -3 10 2 10 4 0 32 23
61 50 29 28 57 50 62 50 5 0 12 5 16 12 5 7 3 8 -7 3 -8 -5 6 10 31 33 25 23
51 41 58 42 6 0 11 6 10 13 -2 6 3 11 10 10 6 -2 12 2 12 7 0 6 5 10 10 10 6
0 10 -2 10 -5z m-2909 -22 c13 -16 12 -17 -3 -4 -10 7 -18 15 -18 17 0 8 8 3
21 -13z m-21 -52 c-3 -60 2 -78 11 -36 6 29 6 21 3 -30 -3 -38 -7 -71 -10 -74
-12 -12 -18 18 -22 101 -4 69 -2 89 7 83 7 -4 12 -23 11 -44z m2950 17 c0 -47
-21 -158 -30 -158 -8 0 -20 74 -20 126 0 52 18 40 23 -13 3 -43 4 -42 5 15 2
62 22 90 22 30z m-2834 -44 c38 -36 68 -70 66 -75 -1 -6 2 -8 8 -4 5 3 21 -5
35 -19 14 -15 30 -26 35 -26 6 0 9 -5 7 -12 -1 -6 10 -18 26 -25 25 -13 32
-24 28 -46 -1 -5 3 -6 8 -3 5 4 12 2 16 -4 3 -5 -1 -10 -10 -10 -9 0 -14 -4
-11 -9 6 -10 -57 -64 -117 -100 -23 -14 -51 -36 -63 -50 -20 -23 -21 -29 -9
-47 11 -17 11 -21 0 -21 -8 0 -12 4 -9 8 2 4 -3 15 -12 23 -8 9 -12 16 -9 16
4 0 -1 8 -12 18 -10 9 -12 13 -3 7 9 -6 7 0 -5 14 -16 18 -19 34 -17 77 3 33
-1 60 -8 69 -9 11 -9 15 -1 15 19 0 13 65 -8 84 -15 14 -17 24 -11 47 9 32 3
97 -12 116 -6 7 -4 13 4 16 7 3 13 6 14 6 0 1 31 -28 70 -65z m-404 39 c24
-21 23 -45 -2 -68 -30 -27 -70 -7 -70 34 0 45 39 64 72 34z m3552 1 c9 -8 16
-24 16 -34 0 -20 -25 -50 -41 -50 -27 0 -49 22 -49 50 0 44 44 65 74 34z
m-2524 -18 c-7 -7 -13 -7 -20 0 -6 6 -3 10 10 10 13 0 16 -4 10 -10z m41 -13
c13 -16 12 -17 -3 -4 -10 7 -18 15 -18 17 0 8 8 3 21 -13z m1434 -10 l18 -28
-21 19 c-12 11 -22 23 -22 28 0 14 7 9 25 -19z m-1492 -2 c-4 -3 -11 -10 -15
-15 -4 -4 -6 1 -5 12 1 12 6 18 15 15 7 -3 10 -9 5 -12z m307 -272 c47 -41 98
-81 113 -89 16 -8 39 -27 52 -42 13 -15 26 -28 30 -28 10 0 -36 82 -60 106
-21 21 -22 24 -6 37 46 41 188 91 243 85 30 -3 34 -7 46 -52 12 -43 12 -57 -3
-111 -15 -57 -15 -66 0 -127 16 -63 16 -69 -3 -142 -18 -70 -18 -80 -5 -138 9
-38 13 -97 11 -148 -3 -79 -6 -89 -40 -140 -20 -31 -42 -76 -47 -100 -17 -74
-11 -79 13 -10 19 57 71 141 86 140 15 -2 71 -95 81 -137 13 -53 35 -89 24
-38 -18 80 -27 104 -44 126 -45 58 -54 89 -46 163 5 58 12 76 36 103 16 19 29
38 29 43 0 6 9 10 20 10 24 0 84 29 77 37 -3 2 -14 0 -25 -6 -12 -6 -30 -11
-40 -11 -11 0 -31 -12 -44 -27 -51 -60 -55 -60 -68 4 -10 49 -10 69 5 133 16
70 16 82 2 144 -11 50 -13 75 -5 99 6 18 11 63 12 101 1 86 12 95 88 79 71
-15 158 -49 186 -73 l23 -19 -29 -38 c-28 -38 -56 -93 -46 -93 2 0 18 16 35
35 17 19 40 37 52 41 22 7 173 141 319 283 l77 75 13 -30 c21 -48 18 -408 -5
-512 l-19 -84 22 -23 21 -23 -35 -63 c-22 -39 -36 -56 -36 -44 0 17 -2 17 -10
5 -5 -8 -9 -37 -9 -65 1 -36 3 -43 8 -25 5 18 10 5 19 -55 7 -44 25 -107 41
-140 l28 -61 -34 -39 c-18 -21 -33 -44 -33 -52 0 -7 -3 -13 -7 -13 -5 0 -8 22
-8 50 0 43 -5 54 -38 88 -51 52 -61 93 -43 173 11 44 12 76 6 102 -12 54 -20
58 -20 10 0 -21 -7 -60 -16 -85 -12 -37 -25 -52 -64 -76 l-48 -30 -23 24 c-12
13 -30 24 -39 24 -8 0 -26 7 -38 16 -13 9 -22 11 -22 4 0 -6 17 -18 38 -26 20
-9 47 -25 59 -36 l21 -20 -24 -55 c-34 -76 -23 -78 17 -3 36 69 85 105 95 73
19 -58 30 -75 55 -88 54 -29 77 -96 45 -138 -13 -17 -14 -16 -19 3 -3 11 -17
25 -31 31 -68 31 -182 -58 -254 -198 -59 -114 -105 -146 -159 -108 -25 18 -40
58 -52 140 l-9 60 -1 -60 c-1 -84 13 -127 60 -175 38 -39 41 -45 35 -84 -16
-105 -23 -236 -15 -291 4 -33 8 -83 8 -112 1 -28 4 -54 9 -56 4 -3 7 59 8 136
0 101 5 155 16 187 l15 45 8 -43 c12 -68 22 -58 12 12 -8 56 -6 68 13 105 22
44 65 71 112 71 42 0 127 58 159 107 25 41 29 56 29 119 0 40 3 79 6 88 9 23
24 9 25 -22 0 -25 1 -25 12 -9 34 53 38 54 32 7 -7 -51 21 -131 52 -148 16
-10 15 -15 -20 -64 -21 -29 -53 -74 -70 -101 -24 -34 -42 -50 -68 -57 -60 -17
-102 -52 -131 -109 -16 -30 -28 -66 -28 -80 0 -14 -12 -44 -25 -66 -14 -22
-25 -48 -25 -57 0 -10 -5 -18 -10 -18 -13 0 -1 99 17 146 4 11 2 15 -4 11 -6
-4 -18 -34 -28 -69 -19 -69 -15 -136 12 -193 16 -34 16 -35 -26 -124 -24 -50
-45 -109 -49 -133 l-5 -43 -14 30 -13 30 4 -30 c21 -127 20 -135 -30 -259 -33
-83 -58 -130 -84 -157 -20 -22 -42 -39 -47 -39 -6 0 -14 17 -18 38 -4 20 -13
44 -20 52 -10 11 -14 52 -16 148 0 73 2 136 5 139 3 4 6 -8 6 -25 0 -34 19
-132 26 -132 2 0 18 15 35 33 29 30 30 31 23 7 -3 -14 -13 -33 -22 -42 -8 -10
-10 -18 -4 -18 18 0 51 50 69 106 14 47 15 67 6 142 -13 99 -2 129 21 56 10
-35 15 -42 15 -23 1 34 -27 115 -45 130 -22 18 -49 -12 -79 -90 -56 -143 -54
-149 -55 214 -1 321 -8 596 -16 604 -2 2 -4 -203 -4 -457 0 -254 -4 -462 -8
-462 -9 0 -17 17 -63 127 -29 71 -46 84 -70 54 -24 -30 -57 -151 -40 -151 4 0
11 17 15 38 6 39 21 70 30 62 2 -3 -2 -43 -10 -90 -14 -81 -14 -88 6 -150 22
-69 54 -120 66 -107 4 4 2 13 -4 19 -7 7 -12 21 -12 32 1 19 3 19 25 -7 l25
-28 10 27 c6 15 12 53 13 86 1 32 5 58 10 58 4 0 7 -65 7 -144 0 -116 -3 -146
-15 -156 -8 -7 -18 -30 -21 -51 -8 -47 -21 -49 -61 -7 -35 37 -59 82 -104 195
-28 70 -31 85 -25 148 3 39 9 81 12 95 4 20 3 22 -5 10 -6 -8 -11 -26 -12 -40
0 -14 -6 0 -13 30 -6 30 -29 92 -51 138 -36 78 -38 86 -26 115 32 78 31 165
-4 238 -8 19 -13 25 -9 14 3 -11 8 -49 10 -85 l4 -65 -15 39 c-8 22 -22 47
-30 56 -8 9 -15 26 -15 37 0 40 -33 116 -66 148 -18 18 -54 40 -81 49 -44 15
-56 26 -116 110 -70 98 -76 111 -54 119 26 10 50 79 48 134 -1 29 0 53 3 53 2
0 13 -15 25 -32 l21 -33 0 27 c0 15 4 29 9 33 13 7 25 -77 17 -110 -4 -17 1
-43 14 -73 36 -82 92 -125 181 -142 87 -17 124 -67 121 -165 l-1 -60 12 40 13
40 14 -65 c10 -41 14 -109 13 -182 -1 -65 2 -118 6 -118 16 0 24 298 11 390
-6 47 -12 87 -12 90 -1 19 6 31 41 67 22 22 44 57 50 79 14 49 14 121 1 129
-6 4 -10 -13 -10 -44 0 -58 -13 -97 -42 -129 -45 -47 -101 -15 -157 89 -66
125 -137 197 -209 216 -31 7 -71 -11 -81 -39 l-8 -22 -12 21 c-6 12 -11 37
-11 56 0 30 8 42 50 77 35 30 51 51 56 76 3 19 9 34 12 34 19 0 76 -59 98
-102 37 -73 40 -52 4 26 -25 53 -39 70 -71 86 -49 25 -71 67 -79 150 l-6 65
-13 -45 c-11 -38 -11 -56 3 -118 18 -85 13 -104 -50 -181 -31 -39 -35 -51 -32
-88 4 -50 -4 -55 -22 -14 -6 16 -22 39 -35 51 l-23 22 25 54 c14 30 33 94 42
142 11 52 20 79 23 67 3 -12 6 -4 7 20 0 22 -4 47 -9 55 -8 12 -10 12 -10 -5
0 -11 -17 13 -37 52 l-37 73 23 24 c22 23 22 25 7 82 -28 107 -40 268 -28 389
5 61 15 123 21 139 l12 29 102 -99 c56 -55 140 -133 187 -175z m-1312 159 l3
-58 -41 0 c-41 0 -49 7 -28 28 8 8 8 12 1 12 -12 0 -12 48 1 68 4 7 20 12 34
10 25 -3 27 -7 30 -60z m3549 -1 l1 -58 -35 3 c-31 3 -36 7 -39 30 -1 15 2 31
8 34 7 4 6 9 -3 14 -21 13 9 42 40 38 24 -3 26 -7 28 -61z m-3235 -24 c23 -21
23 -36 -2 -58 -21 -19 -28 -7 -8 13 9 9 6 12 -15 12 -15 0 -27 -4 -27 -10 0
-5 5 -10 10 -10 6 0 10 -5 10 -11 0 -16 -21 -6 -37 18 -13 19 -12 24 6 42 25
25 39 26 63 4z m2213 8 c3 -5 2 -12 -3 -15 -5 -3 -9 1 -9 9 0 17 3 19 12 6z
m705 -6 c33 -40 -30 -94 -65 -55 -19 21 -19 35 1 54 20 20 48 20 64 1z m-2365
-14 c-3 -6 3 -14 12 -20 10 -6 13 -11 7 -11 -15 0 -36 25 -27 33 10 10 15 8 8
-2z m1755 -15 c0 -2 -8 -10 -17 -17 -16 -13 -17 -12 -4 4 13 16 21 21 21 13z
m-85 -26 c-8 -13 22 -19 35 -7 9 9 9 6 -1 -9 -10 -18 -16 -20 -30 -11 -10 6
-17 19 -16 28 1 10 5 15 9 13 5 -3 6 -9 3 -14z m-1580 -30 c2 -30 -17 -41 -31
-18 -4 7 -3 8 4 4 7 -4 12 -2 12 3 0 6 -4 11 -10 11 -5 0 -10 5 -10 11 0 6 7
9 14 6 11 -4 13 -1 9 11 -3 9 -2 14 2 10 5 -5 9 -21 10 -38z m2518 -125 c-43
-65 -43 -84 1 -22 l34 47 6 -42 c37 -255 33 -661 -8 -905 -7 -40 -9 -73 -6
-73 16 0 46 230 59 447 9 153 0 418 -18 518 l-9 50 40 -45 c45 -51 41 -35 -7
25 -25 31 -33 53 -38 98 -7 74 11 77 37 5 10 -29 35 -82 56 -118 50 -87 92
-171 87 -176 -2 -2 -29 14 -60 36 -32 22 -57 37 -57 33 0 -3 16 -24 36 -46 46
-51 80 -126 92 -202 6 -33 9 -61 7 -63 -1 -1 -14 15 -29 37 -15 22 -37 48 -48
58 -13 11 -7 -2 14 -33 59 -87 61 -99 46 -215 l-13 -104 -28 57 c-15 31 -34
62 -42 68 -9 8 -3 -15 15 -51 18 -38 30 -80 30 -104 0 -51 -11 -115 -19 -115
-3 0 -14 19 -23 42 -10 23 -20 39 -23 36 -3 -2 5 -27 17 -55 l21 -51 -20 -46
-20 -47 -18 41 c-25 55 -38 61 -20 9 23 -63 19 -76 -41 -158 -73 -98 -77 -102
-69 -71 3 14 1 46 -5 70 -23 89 -23 99 -1 136 29 49 21 54 -12 8 l-26 -37 -6
37 c-6 32 -2 44 30 94 l37 57 -46 -45 -46 -44 0 54 c0 48 5 61 35 99 47 59 44
67 -5 11 l-40 -45 0 30 c0 52 19 102 60 157 55 72 50 77 -13 12 l-52 -55 3 83
c3 68 8 89 28 116 79 107 80 109 21 53 l-56 -55 5 40 c11 74 33 139 68 194 19
30 33 56 32 58 -2 1 -23 -16 -47 -37 -24 -22 -45 -38 -47 -36 -10 10 43 180
80 255 l42 85 6 -55 c6 -51 4 -59 -27 -105z m-636 122 c0 -8 -6 -14 -14 -14
-9 0 -10 4 -2 14 6 7 12 13 14 13 1 0 2 -6 2 -13z m-2519 -21 c3 -13 0 -16
-10 -10 -10 6 -10 4 1 -10 13 -15 13 -19 0 -27 -10 -6 -10 -9 -1 -9 6 0 12 -4
12 -10 0 -5 -18 -10 -40 -10 -22 0 -40 5 -40 10 0 9 22 15 43 11 5 -1 6 3 3 8
-3 5 -16 7 -27 4 -16 -4 -20 -2 -17 8 2 7 15 16 29 20 24 7 24 7 -3 8 -16 1
-28 5 -28 9 0 30 73 28 78 -2z m2225 11 c3 -8 0 -14 -7 -14 -7 0 -13 6 -13 14
0 7 4 13 8 13 4 0 9 -6 12 -13z m693 -24 c1 -27 -2 -33 -20 -34 -20 -2 -20 -2
2 -6 39 -8 24 -23 -23 -23 -45 0 -66 19 -22 21 21 0 21 1 -3 10 l-25 10 25 14
25 14 -24 1 c-20 0 -22 2 -11 16 8 9 25 14 44 12 27 -3 31 -7 32 -35z m-2556
-98 c-25 -48 -21 -94 14 -164 41 -81 138 -190 259 -292 25 -21 27 -28 20 -61
l-8 -37 -95 64 c-126 84 -224 176 -305 285 -36 50 -77 97 -91 106 -55 37 -51
49 38 108 46 30 92 64 103 75 l19 22 33 -33 33 -33 -20 -40z m2265 20 c47 -31
87 -60 90 -65 9 -15 -7 -41 -31 -50 -12 -5 -42 -35 -65 -67 -86 -119 -142
-181 -207 -235 -60 -49 -217 -158 -228 -158 -2 0 -4 19 -3 43 1 40 5 46 72
103 131 110 237 264 237 343 0 20 -8 52 -19 71 l-18 35 36 31 c28 25 38 29 44
18 4 -7 46 -38 92 -69z m-2203 28 c2 -5 22 -25 46 -45 23 -21 39 -38 36 -38
-9 0 48 -46 74 -59 20 -11 27 -10 43 5 10 9 22 14 26 11 3 -4 1 -7 -5 -7 -8 0
-6 -13 4 -42 8 -24 16 -55 16 -70 1 -16 5 -28 10 -28 14 0 9 -30 -7 -36 -8 -4
-13 -10 -10 -14 3 -5 1 -11 -5 -15 -5 -3 -8 -18 -5 -33 4 -19 3 -22 -3 -9 -4
10 -11 18 -15 17 -4 0 -14 6 -22 14 -11 11 -12 16 -2 19 6 3 2 6 -9 6 -12 1
-25 8 -28 17 -3 8 -10 13 -14 10 -5 -3 -20 6 -32 19 -19 20 -30 24 -56 19 -27
-5 -33 -2 -39 15 -3 12 -10 21 -15 21 -9 0 -24 49 -21 69 1 7 -1 11 -6 8 -4
-3 -8 14 -8 38 0 25 4 41 9 38 5 -4 7 1 3 10 -4 11 -1 17 7 17 8 0 12 9 11 25
-3 23 9 35 17 18z m2014 -5 c4 -7 3 -8 -4 -4 -17 10 -15 2 8 -37 12 -21 18
-41 13 -52 -4 -12 -3 -16 5 -11 18 11 -3 -46 -51 -141 -14 -26 -23 -29 -30 -9
-8 20 -31 14 -67 -17 -16 -15 -34 -27 -39 -27 -6 0 -14 -6 -18 -13 -4 -8 -16
-17 -27 -20 -11 -4 -16 -13 -12 -22 3 -8 1 -15 -5 -15 -6 0 -7 -5 -3 -12 5 -7
3 -8 -6 -3 -9 5 -10 2 -6 -13 4 -12 1 -26 -8 -35 -14 -13 -12 -27 4 -27 4 0
19 24 34 54 17 34 43 65 68 82 22 15 48 39 59 52 10 14 19 19 19 12 0 -22
-193 -243 -203 -233 -3 2 -8 -8 -11 -23 -9 -35 2 -81 21 -88 9 -4 13 -13 9
-22 -3 -8 -2 -12 4 -9 6 3 10 2 10 -4 0 -5 -5 -13 -10 -16 -8 -5 -8 -11 -1
-19 6 -7 8 -16 4 -19 -16 -17 30 -17 49 -1 15 13 19 14 14 4 -4 -8 6 0 23 18
17 18 31 29 31 25 1 -5 12 6 26 22 25 29 25 29 18 5 -4 -14 -8 -34 -10 -45 -1
-11 -14 -51 -28 -89 -15 -39 -24 -76 -22 -83 3 -7 2 -13 -3 -13 -5 0 -11 -15
-15 -32 -9 -48 -11 -57 -19 -64 -4 -4 -7 -17 -7 -29 0 -13 -7 -28 -15 -35 -8
-7 -12 -16 -9 -21 3 -5 -4 -35 -16 -65 -11 -31 -18 -59 -15 -62 2 -3 0 -11 -6
-18 -15 -18 -5 -68 14 -72 10 -2 17 2 17 8 0 6 5 8 12 4 7 -4 8 -3 4 4 -3 6 3
16 14 22 11 6 20 16 20 22 0 6 8 20 18 31 12 15 13 18 2 12 -8 -4 -1 7 15 25
17 18 23 29 15 25 -10 -5 -9 -2 3 11 10 10 25 28 33 39 14 19 15 17 11 -25 -3
-25 -21 -108 -42 -185 -20 -77 -38 -148 -40 -157 -2 -9 -8 -25 -14 -36 -6 -11
-8 -22 -5 -25 3 -3 -1 -4 -10 -3 -8 1 -19 6 -23 11 -5 4 -1 5 7 0 9 -5 12 -5
7 1 -5 5 -12 9 -15 9 -15 0 -51 32 -44 39 4 4 3 6 -3 4 -11 -3 -57 26 -51 33
2 2 -13 16 -34 31 l-38 26 -45 -43 c-25 -23 -52 -54 -61 -67 -16 -24 -15 -26
8 -43 14 -11 23 -22 20 -26 -2 -4 10 -18 28 -30 68 -47 174 -146 170 -157 -2
-7 2 -11 9 -10 7 2 14 -6 16 -17 2 -16 1 -16 -5 -4 -13 29 -71 5 -70 -29 0 -9
-2 -28 -6 -42 -25 -100 -37 -163 -39 -212 -1 -31 -5 -54 -8 -52 -4 2 -9 -2
-12 -10 -3 -8 -32 -27 -64 -42 -32 -16 -59 -32 -61 -36 -2 -5 -8 -8 -12 -8
-18 0 -145 -65 -157 -80 -6 -8 -15 -12 -19 -7 -4 4 -16 0 -26 -10 -10 -9 -18
-13 -18 -10 0 4 -11 -3 -25 -15 -13 -11 -22 -25 -19 -29 3 -5 -2 -6 -11 -3
-14 6 -14 3 -3 -21 l12 -27 8 23 c6 19 86 64 374 212 202 104 370 185 375 180
4 -4 -70 -48 -164 -97 -95 -48 -263 -135 -374 -193 -112 -57 -203 -110 -203
-118 0 -14 12 -14 42 0 10 4 15 12 11 18 -4 6 0 8 10 4 10 -4 17 -1 17 5 0 6
3 9 6 5 6 -6 23 2 122 58 23 13 39 18 35 12 -3 -6 9 0 28 13 19 13 36 28 38
33 2 5 7 3 12 -4 7 -11 9 -11 9 2 0 9 12 21 28 28 l27 12 -25 -22 c-14 -11
-19 -18 -12 -14 6 3 12 1 12 -5 0 -6 5 -8 13 -4 7 5 6 1 -3 -10 -8 -11 -16
-14 -18 -7 -2 6 -8 11 -13 11 -4 0 -6 -6 -3 -13 3 -8 8 -58 12 -113 l7 -99 29
146 29 146 66 34 c35 19 68 36 73 37 4 2 8 -33 8 -78 0 -65 4 -90 20 -115 27
-44 92 -315 75 -315 -7 0 -24 42 -40 97 -31 107 -62 183 -76 183 -27 0 -70
-119 -89 -248 -13 -87 -11 -84 -84 -97 l-39 -6 5 50 c3 28 2 51 -1 51 -3 0
-15 -24 -26 -53 -19 -48 -23 -52 -60 -58 -22 -4 -41 -6 -42 -5 -5 5 27 172 47
245 12 42 35 100 51 130 33 57 33 103 1 60 -30 -41 -49 -82 -71 -148 -25 -75
-54 -238 -47 -257 3 -7 1 -16 -4 -19 -5 -3 -7 -12 -4 -19 7 -19 -48 -29 -59
-10 -4 8 -19 14 -33 14 -14 0 -23 -4 -20 -9 7 -11 -19 -23 -29 -13 -15 15
-180 19 -198 4 -9 -8 -19 -1 -36 24 -13 19 -35 37 -48 40 -19 5 -21 9 -11 15
7 5 9 9 5 9 -15 0 -96 -87 -89 -96 4 -5 0 -3 -9 4 -9 7 -21 12 -25 10 -5 -1
-28 2 -51 6 -32 6 -48 4 -64 -8 -17 -11 -26 -13 -36 -5 -7 6 -20 9 -29 5 -8
-3 -24 -1 -35 4 -13 8 -25 7 -41 -3 -15 -9 -35 -11 -58 -7 -19 4 -30 8 -25 9
15 2 17 44 4 99 -6 26 -13 56 -15 67 -25 119 -47 192 -69 225 -5 8 -10 17 -10
20 0 3 -11 19 -24 37 -23 31 -46 34 -63 9 -4 -6 -8 4 -8 22 0 24 3 31 13 25 6
-4 19 -8 27 -10 8 -1 22 -10 30 -21 9 -10 23 -18 33 -16 9 1 17 -2 17 -8 0 -6
7 -7 16 -4 12 5 15 2 10 -9 -3 -9 -2 -13 4 -10 5 3 21 -2 35 -11 14 -9 25 -13
25 -8 0 4 10 -1 23 -12 36 -33 77 -55 87 -49 6 3 10 1 10 -6 0 -7 3 -9 7 -6 3
4 12 2 18 -3 8 -7 24 -5 49 5 20 8 35 12 34 8 -2 -11 38 -94 55 -115 8 -10 20
-18 26 -18 7 0 9 -4 6 -10 -3 -5 1 -10 10 -10 9 0 14 -3 12 -7 -3 -5 8 -9 24
-10 32 -2 45 14 52 63 5 38 29 37 34 -1 3 -16 11 -37 20 -47 19 -21 69 -17 67
6 -1 9 2 14 6 11 18 -11 97 114 82 131 -4 4 -1 4 6 0 7 -4 12 -1 12 8 0 28 1
31 17 49 9 9 13 17 9 17 -3 0 1 17 9 37 9 20 16 68 16 107 1 75 27 162 80 268
32 64 35 85 15 113 -16 24 -26 73 -15 77 4 2 9 9 11 17 2 8 11 23 21 33 10 10
15 23 12 28 -4 6 -2 10 2 10 13 0 43 76 38 99 -2 12 0 19 6 16 5 -4 9 2 9 12
0 10 13 33 28 51 26 30 43 39 78 41 6 1 21 10 34 21 13 11 27 20 32 20 4 0 8
6 8 14 0 18 29 48 39 42 4 -3 8 1 8 9 0 8 -5 12 -11 9 -6 -3 4 8 22 24 32 28
72 94 72 118 0 7 -15 25 -32 39 -18 15 -27 24 -21 20 10 -5 11 0 3 20 -20 53
-12 96 23 128 17 16 23 23 12 16 -11 -7 -5 2 13 20 17 18 32 39 32 46 0 21
-23 80 -34 87 -6 4 -8 8 -4 8 4 0 1 15 -7 33 -8 19 -11 44 -8 55 3 13 1 22 -6
22 -6 0 -10 12 -9 28 1 15 -6 39 -16 55 -10 15 -16 27 -12 27 13 0 21 -5 18
-13 -1 -5 2 -5 8 -2 6 4 9 13 6 21 -3 7 -1 16 5 19 5 4 7 11 4 16 -4 5 -1 9 4
9 6 0 11 6 11 14 0 8 7 17 16 20 8 3 12 11 9 16 -4 6 -2 17 4 24 8 10 8 20 -2
40 -8 14 -17 23 -21 19 -4 -4 -4 1 0 11 5 14 4 17 -5 11 -10 -6 -11 -3 -2 12
6 11 7 23 4 27 -3 3 -1 6 6 6 7 0 11 6 8 14 -3 7 1 25 8 40 8 15 9 24 4 20 -7
-4 -7 1 0 15 7 12 9 26 6 31 -3 5 0 12 7 16 7 4 10 4 6 -1 -5 -5 1 -15 12 -22
19 -13 24 -12 56 12 34 26 87 74 128 115 23 23 23 23 32 8z m-2487 -76 c-1
-20 2 -73 6 -117 6 -73 5 -84 -19 -135 -14 -30 -26 -68 -26 -85 l1 -30 15 35
c9 19 25 62 35 95 11 33 17 47 15 30 -5 -30 55 -356 62 -336 2 5 -3 47 -12 93
-8 46 -18 107 -21 136 -4 28 -11 52 -16 52 -5 0 -9 7 -9 16 0 8 4 12 10 9 5
-3 7 0 5 7 -3 7 -9 60 -13 117 l-8 103 23 -26 c12 -14 25 -26 28 -26 4 0 -5
14 -19 31 -14 17 -26 34 -26 39 0 5 -3 15 -6 24 -4 10 -1 16 7 16 11 -1 104
-136 118 -172 2 -5 -15 0 -38 11 -50 26 -52 20 -5 -21 37 -32 61 -71 75 -122
l9 -29 -28 26 c-41 39 -52 33 -13 -7 30 -31 50 -83 51 -130 0 -15 -6 -13 -32
14 -51 50 -78 58 -31 9 23 -24 47 -57 52 -72 11 -28 15 -107 6 -107 -3 0 -20
16 -38 37 -26 28 -36 33 -42 22 -5 -8 -5 -11 -1 -7 12 10 76 -67 76 -92 l0
-23 -25 23 c-30 29 -32 19 -4 -19 18 -25 19 -33 9 -71 -7 -24 -9 -57 -6 -74 6
-30 4 -28 -54 29 -62 61 -69 80 -50 129 5 14 6 26 1 26 -5 0 -14 -13 -20 -30
-5 -16 -12 -30 -14 -30 -3 0 -16 25 -31 55 -30 63 -32 100 -11 152 8 20 13 38
11 40 -6 7 -36 -53 -36 -72 0 -9 -4 -14 -9 -11 -15 10 -23 99 -11 130 14 39 5
45 -15 9 -16 -27 -16 -27 -12 44 3 54 11 82 31 117 34 59 33 68 -5 27 -16 -18
-32 -31 -34 -29 -15 14 70 222 86 212 5 -3 9 -22 8 -42z m2911 27 c0 -12 -14
-40 -32 -63 l-32 -41 32 29 32 30 -3 -86 c-1 -48 3 -95 9 -109 7 -13 20 -52
30 -86 11 -35 23 -63 28 -63 12 0 1 50 -26 118 -20 49 -22 70 -18 142 l5 85
17 -30 c10 -16 17 -25 18 -19 0 5 -7 19 -15 30 -16 21 -21 84 -6 84 14 0 81
-175 81 -214 0 -5 -16 6 -36 25 l-36 34 31 -61 c25 -51 31 -73 30 -125 l-1
-64 -14 34 c-8 18 -17 31 -20 28 -3 -3 -1 -14 5 -25 13 -24 13 -98 2 -127 -8
-17 -11 -14 -26 23 -25 60 -37 52 -14 -9 22 -56 20 -67 -18 -151 l-27 -58 -17
38 -17 37 4 -50 c5 -49 4 -51 -49 -107 -29 -32 -56 -58 -58 -58 -3 0 -3 15 -1
33 2 19 -1 51 -7 72 -9 33 -8 44 9 72 22 38 17 43 -11 11 l-18 -23 -1 26 c0
15 11 35 25 49 14 13 25 28 25 34 0 6 -12 -1 -25 -16 -30 -35 -35 -35 -35 1 0
58 13 92 53 138 43 48 23 46 -27 -4 l-29 -28 6 25 c4 14 7 37 7 52 0 39 56
101 84 92 25 -8 20 -1 -13 16 -13 6 -21 8 -18 3 3 -4 -6 -16 -19 -26 -54 -41
-11 56 52 117 27 25 46 46 42 46 -4 0 -30 -13 -58 -30 -27 -16 -50 -25 -50
-20 0 6 4 10 9 10 5 0 35 40 67 90 33 49 62 90 67 90 4 0 7 -9 7 -21z m-2225
-8 c-3 -6 -11 -11 -17 -11 -6 0 -6 6 2 15 14 17 26 13 15 -4z m1586 -11 c-4
-3 -11 -12 -14 -20 -3 -9 -6 -5 -6 11 -1 30 9 44 20 27 4 -7 4 -15 0 -18z
m525 -72 c4 -7 3 -8 -4 -4 -7 4 -12 1 -12 -8 0 -9 -5 -16 -11 -16 -5 0 -7 -5
-3 -12 5 -8 2 -9 -10 -5 -12 5 -15 3 -9 -5 11 -19 12 -51 1 -71 -5 -10 -12
-30 -14 -45 -3 -14 -8 -30 -12 -36 -3 -6 -7 -18 -7 -26 -6 -71 -8 -83 -12 -68
-8 30 -40 31 -78 2 -19 -14 -35 -31 -35 -36 0 -5 -5 -6 -10 -3 -6 4 -17 1 -25
-5 -12 -10 -13 -8 -10 8 4 21 -85 -45 -224 -166 -64 -57 -79 -55 -34 5 31 40
101 94 183 141 30 18 51 32 46 32 -5 0 -3 7 4 15 7 8 10 15 7 15 -3 0 15 20
40 45 24 25 42 45 39 45 -6 0 28 42 56 69 9 9 27 34 40 56 13 22 30 41 38 43
8 2 21 12 29 22 16 23 17 24 27 8z m-2556 -91 c0 -5 4 -6 9 -2 6 3 8 -3 6 -14
-2 -14 1 -18 10 -14 9 3 19 -6 27 -24 13 -31 58 -90 58 -76 0 4 9 -5 19 -21
11 -16 27 -33 35 -38 9 -5 16 -16 16 -24 0 -8 -4 -12 -10 -9 -5 3 -10 4 -10 1
0 -3 24 -17 53 -32 28 -14 75 -44 104 -66 52 -40 127 -127 118 -137 -3 -3 -34
22 -68 55 -102 99 -188 161 -214 156 -6 -1 -14 2 -18 8 -3 5 -16 10 -27 10
-12 0 -36 12 -55 26 -28 21 -36 24 -49 13 -13 -10 -17 -10 -24 1 -5 8 -6 18
-4 22 3 4 2 14 -3 21 -4 6 -8 26 -8 42 -1 17 -6 41 -12 55 -31 70 -33 81 -22
101 10 19 12 19 40 -13 16 -18 29 -37 29 -41z m382 -113 c8 -5 28 -33 42 -62
15 -30 30 -51 34 -47 10 10 9 29 -2 37 -6 4 -8 10 -4 13 3 4 12 -1 19 -10 8
-8 20 -22 27 -30 11 -12 11 -15 1 -15 -7 0 0 -13 15 -29 17 -18 24 -31 17 -35
-6 -4 -11 -23 -11 -42 0 -20 -4 -43 -9 -52 -5 -9 -11 -30 -14 -47 -6 -37 -18
-68 -28 -75 -5 -3 -11 -24 -15 -47 -6 -39 -4 -43 41 -89 44 -46 46 -51 43 -94
-3 -25 -8 -54 -12 -65 -6 -16 -6 -17 3 -5 6 8 11 10 11 5 0 -6 -12 -22 -27
-35 -27 -24 -40 -70 -21 -70 5 0 6 -4 3 -10 -3 -5 -2 -10 3 -10 5 0 13 -8 18
-19 10 -21 53 -77 103 -133 18 -21 47 -42 65 -47 17 -4 30 -14 28 -20 -1 -7 2
-10 7 -7 31 19 91 -75 91 -142 0 -18 4 -31 8 -28 5 3 17 -15 27 -40 10 -24 24
-49 31 -55 14 -12 12 -39 -8 -107 -12 -40 -11 -46 15 -92 15 -26 27 -55 27
-63 0 -9 6 -22 13 -29 6 -7 14 -20 16 -28 2 -8 8 -31 13 -50 12 -45 16 -140 6
-161 -5 -11 -2 -22 7 -29 8 -7 15 -21 15 -31 0 -11 5 -19 11 -19 5 0 7 -5 4
-10 -3 -5 0 -10 7 -11 10 0 10 -2 0 -6 -6 -2 -9 -10 -5 -16 4 -7 -1 -6 -10 2
-10 8 -15 16 -12 19 6 6 -84 52 -102 52 -7 0 -13 5 -13 11 0 5 -4 8 -9 5 -5
-4 -11 -2 -13 3 -4 10 -148 84 -148 75 0 -3 -17 8 -37 24 -21 16 -50 32 -65
36 -16 3 -28 11 -28 17 0 6 6 7 13 3 9 -6 9 -4 1 7 -6 8 -14 32 -17 54 -8 53
-16 97 -23 114 -2 8 -7 30 -10 50 -9 64 -35 119 -57 125 -17 4 -32 -5 -64 -42
-24 -26 -43 -50 -43 -54 0 -4 9 -42 21 -84 17 -62 18 -78 8 -85 -8 -5 -20 -3
-29 5 -8 7 -23 16 -32 19 -10 3 -15 13 -12 24 3 10 -4 28 -16 41 -17 18 -25
21 -36 11 -7 -6 -11 -15 -8 -20 3 -5 2 -8 -3 -7 -14 4 -54 -23 -48 -32 3 -6 0
-7 -8 -4 -16 6 -18 -5 -16 -106 2 -129 0 -464 -3 -490 -3 -26 -36 -36 -50 -16
-3 5 -14 10 -25 11 -10 0 -33 9 -52 18 -19 9 -41 17 -49 17 -9 0 -23 6 -31 13
-9 8 -37 22 -64 31 -26 10 -70 33 -98 52 -27 19 -55 32 -61 28 -7 -4 -8 -3 -4
4 4 7 2 12 -4 12 -7 0 -9 7 -6 16 3 8 2 12 -3 9 -5 -3 -12 -2 -15 3 -3 5 0 9
7 9 13 0 97 52 97 60 0 2 -5 1 -12 -3 -7 -4 -8 -3 -4 4 4 7 14 12 22 12 8 0
13 4 10 9 -3 4 6 13 19 19 14 7 25 16 25 22 0 5 7 10 16 10 8 0 12 5 9 10 -3
6 -1 10 6 10 7 0 24 13 38 28 45 48 167 152 179 152 6 0 19 12 29 28 9 15 35
45 58 66 22 22 33 35 25 31 -8 -5 4 11 28 36 23 24 42 47 42 51 0 5 7 8 15 8
8 0 12 6 9 14 -3 8 -1 17 5 21 6 3 11 0 11 -7 1 -7 6 -3 13 9 7 12 31 38 55
59 27 22 42 43 40 54 -3 21 189 203 204 194 18 -12 0 -34 -105 -128 -59 -54
-105 -101 -102 -107 7 -10 46 17 103 69 20 17 40 32 45 32 4 0 5 5 2 10 -3 6
-2 10 2 10 5 0 26 16 48 35 26 24 39 45 40 65 1 16 -1 28 -4 27 -8 -2 -34 19
-64 51 -24 26 -64 51 -53 34 3 -5 -4 -13 -17 -16 -27 -7 -119 -90 -110 -99 3
-4 0 -7 -9 -7 -17 0 -60 -34 -53 -42 3 -2 -2 -5 -10 -5 -10 0 -12 4 -6 10 7 7
6 17 -1 31 -6 11 -13 30 -14 41 -2 11 -17 74 -34 140 -16 66 -33 136 -36 155
-10 68 -12 75 -20 95 -7 19 -7 19 9 3 9 -9 17 -21 17 -27 0 -6 5 -11 11 -11 5
0 8 -4 5 -8 -3 -5 2 -18 12 -28 9 -11 24 -28 32 -39 13 -17 13 -18 0 -10 -8 5
4 -14 27 -42 23 -27 40 -53 36 -57 -3 -3 3 -6 14 -6 11 0 25 10 31 25 6 14 8
25 4 25 -4 0 -8 8 -9 18 -2 26 -10 59 -23 81 -6 12 -8 21 -4 21 3 0 1 7 -6 15
-6 8 -9 18 -7 22 3 5 -3 26 -13 48 -11 22 -19 50 -20 63 0 13 -4 21 -8 18 -4
-2 -8 3 -9 12 -4 38 -13 72 -47 176 -36 109 -38 130 -11 120 8 -4 13 -10 10
-14 -3 -4 2 -11 11 -14 8 -3 12 -10 9 -16 -4 -6 1 -7 12 -3 10 3 15 3 11 -2
-13 -14 45 -55 73 -53 22 2 26 6 24 28 -1 14 -6 34 -10 44 -7 15 -5 18 7 13
10 -3 19 0 22 9 3 9 10 13 15 9 5 -3 13 0 17 6 4 8 3 9 -4 5 -8 -5 -10 2 -6
23 4 20 1 37 -7 48 -12 14 -12 16 1 9 8 -4 6 0 -5 9 -11 9 -19 23 -17 32 2 8
-1 13 -6 9 -9 -5 -120 104 -160 158 -36 47 -25 51 21 9 24 -22 50 -44 59 -49z
m-311 -136 c20 -15 45 -28 55 -28 23 0 99 -34 107 -47 3 -5 42 -128 86 -274
43 -145 90 -294 104 -331 13 -38 22 -68 18 -68 -3 0 -36 51 -73 113 -67 110
-140 275 -173 390 -26 88 -29 61 -6 -50 11 -54 36 -181 56 -283 19 -102 50
-239 69 -305 l33 -120 -30 -33 c-17 -17 -34 -29 -37 -25 -4 5 -22 47 -40 95
-19 48 -34 87 -36 85 -1 -1 1 -58 5 -125 l6 -124 -54 -46 c-33 -28 -49 -38
-42 -25 31 59 -11 609 -49 647 -15 15 -23 0 -61 -109 -18 -49 -62 -169 -99
-265 -37 -96 -74 -195 -81 -220 -7 -25 -14 -46 -15 -48 -1 -2 -20 6 -42 17
l-39 20 8 48 c13 78 10 81 -22 26 l-30 -52 -45 21 c-24 12 -43 25 -42 28 2 3
72 142 156 308 174 345 184 377 56 185 -30 -46 -57 -83 -58 -83 -2 0 10 44 26
98 16 53 36 120 44 148 l15 51 46 -23 c69 -35 83 -33 83 17 0 22 10 77 22 122
15 59 22 113 22 194 1 71 5 109 11 105 6 -3 26 -18 46 -34z m-81 -38 c0 -5 -2
-10 -4 -10 -3 0 -8 5 -11 10 -3 6 -1 10 4 10 6 0 11 -4 11 -10z m-1236 -374
c18 -7 48 -32 67 -54 28 -34 35 -38 44 -25 9 13 16 13 33 4 25 -14 29 -31 7
-31 -23 0 -30 -28 -11 -49 9 -9 21 -32 27 -49 6 -18 20 -37 30 -43 10 -5 19
-18 19 -29 0 -16 -5 -18 -28 -14 -21 4 -36 -1 -60 -21 l-31 -26 -5 23 c-3 13
-7 44 -10 69 -13 112 -63 202 -121 218 -55 15 -105 -4 -105 -39 0 -25 29 -33
56 -15 22 14 27 14 55 0 l30 -16 -24 -19 c-52 -41 -121 -34 -147 16 -41 75 75
141 174 100z m1951 -8 c6 -1 9 -7 7 -11 -1 -5 3 -7 10 -5 13 5 17 3 62 -37 16
-14 25 -25 20 -25 -5 0 -1 -5 9 -11 9 -5 17 -20 17 -32 0 -18 2 -19 10 -7 8
12 10 11 10 -7 0 -13 5 -23 11 -23 5 0 7 -4 4 -10 -3 -5 -2 -10 3 -10 6 0 13
-12 17 -27 3 -16 22 -42 40 -60 18 -17 30 -35 27 -39 -4 -4 1 -4 10 -1 21 7
31 -19 23 -61 -3 -17 -1 -34 5 -37 13 -8 13 -25 -1 -25 -5 0 -8 4 -5 8 8 13
-65 86 -101 101 -18 7 -39 11 -48 7 -8 -3 -15 -1 -15 3 0 5 -13 14 -30 20 -16
5 -30 7 -30 4 0 -3 -13 10 -29 30 -15 20 -31 33 -35 29 -4 -3 -4 1 0 11 3 9 2
17 -3 17 -5 0 -10 10 -11 23 -18 190 -18 196 -2 187 8 -4 20 -10 25 -12z
m3118 13 c77 -29 87 -104 20 -139 -32 -17 -53 -15 -97 12 l-40 24 30 15 c25
13 33 13 56 1 32 -17 58 -9 58 18 0 12 -12 24 -34 33 -94 39 -178 -59 -193
-225 -7 -84 -9 -85 -45 -55 -24 20 -39 25 -60 21 -23 -4 -28 -2 -28 14 0 11 9
24 20 30 23 12 73 108 66 127 -3 7 -12 13 -20 13 -19 0 -10 26 11 34 9 4 22 1
29 -5 10 -8 21 -2 46 27 51 58 119 78 181 55z m-2028 -28 c-10 -10 -14 -36
-14 -87 1 -81 -8 -104 -60 -153 -29 -29 -101 -60 -124 -55 -13 4 -62 -26 -96
-57 -18 -17 -34 -31 -36 -31 -1 0 0 11 3 25 2 14 -2 33 -9 43 -7 9 -10 14 -5
10 5 -4 16 1 25 10 9 10 12 12 7 5 -6 -10 -4 -12 8 -7 9 3 16 11 16 18 0 6 9
17 21 24 12 7 19 16 16 19 -3 3 3 14 13 26 11 11 17 24 14 29 -3 4 0 8 7 8 7
0 10 3 6 6 -3 4 5 21 18 39 14 17 22 35 18 38 -3 4 -1 7 5 7 7 0 12 7 12 15 0
8 25 31 56 53 42 28 65 37 85 34 25 -4 26 -6 14 -19z m400 -72 c3 -5 2 -12 -3
-15 -5 -3 -9 1 -9 9 0 17 3 19 12 6z m-2119 -207 c10 -61 16 -169 16 -281 1
-101 5 -183 9 -183 4 0 6 -9 4 -21 -3 -14 2 -23 15 -26 15 -4 16 -8 7 -18 -7
-7 -14 -11 -17 -10 -3 2 -23 -14 -44 -35 l-38 -39 -22 22 c-23 24 -141 87
-162 87 -18 0 -18 4 5 48 11 21 36 87 56 147 20 59 45 127 55 149 26 59 54
132 76 203 10 34 20 60 22 59 1 -2 10 -48 18 -102z m2331 74 c-2 -7 4 -30 14
-50 10 -20 16 -43 13 -51 -2 -8 2 -20 11 -27 8 -7 15 -23 15 -35 0 -12 7 -28
15 -35 8 -7 12 -16 9 -22 -3 -5 5 -32 19 -61 33 -71 52 -121 49 -129 -1 -5 2
-8 8 -8 6 0 10 -10 10 -23 0 -12 9 -40 19 -61 11 -21 17 -45 14 -53 -4 -11 -2
-14 5 -9 8 5 10 2 6 -8 -3 -9 -12 -16 -20 -16 -8 0 -22 -4 -32 -10 -9 -5 -28
-14 -42 -20 -14 -5 -42 -21 -62 -35 l-37 -25 -35 30 c-18 17 -38 30 -44 30
-10 0 -11 17 -1 35 3 6 7 60 9 120 1 61 4 126 5 145 2 19 6 85 10 145 8 136 8
140 23 157 6 8 9 18 5 21 -3 4 -1 7 6 7 7 0 11 -6 8 -12z m-3463 -87 c9 -15
-18 -31 -34 -20 -13 8 -13 10 0 19 19 12 27 12 34 1z m4627 -19 c25 -22 29
-32 24 -55 -4 -15 -11 -27 -16 -27 -13 0 -11 14 4 29 10 11 9 13 -5 8 -9 -3
-22 1 -28 8 -10 12 -8 16 6 22 16 6 14 8 -10 13 -16 3 -31 11 -34 18 -7 22 27
13 59 -16z m-4661 -37 c-6 -7 -20 -11 -30 -8 -23 6 -25 14 -8 31 17 17 53 -4
38 -23z m92 18 c22 -20 24 -45 3 -37 -8 4 -15 12 -15 20 0 8 -4 14 -9 14 -12
0 -81 -106 -81 -125 0 -19 -14 -19 -30 0 -9 11 -5 22 21 57 75 96 80 100 111
71z m4503 9 c12 -8 95 -119 95 -126 0 -3 -9 -10 -21 -16 -16 -9 -20 -8 -17 2
3 15 -63 118 -76 118 -5 0 -15 -8 -22 -17 -19 -27 -29 -7 -10 22 17 25 33 31
51 17z m-3802 -417 c212 -108 305 -161 298 -168 -7 -7 -14 -7 -23 0 -7 5 -157
83 -333 173 -435 221 -608 311 -619 321 -16 14 -26 10 -19 -7 5 -14 3 -14 -15
-3 -24 15 -35 36 -27 50 3 5 101 -40 218 -100 117 -59 351 -179 520 -266z
m3794 341 c-3 -8 -16 -20 -28 -27 -19 -10 -21 -9 -16 4 4 10 -90 -33 -226
-102 -128 -65 -353 -180 -501 -255 -148 -76 -273 -133 -277 -129 -4 4 159 93
364 197 205 104 440 225 522 267 141 73 176 83 162 45z m-4607 14 c0 -5 -4
-10 -10 -10 -5 0 -10 5 -10 10 0 6 5 10 10 10 6 0 10 -4 10 -10z m80 -47 c11
-10 20 -23 20 -29 0 -7 21 -77 46 -156 105 -325 254 -563 430 -684 l54 -37
-43 -48 c-23 -26 -45 -47 -48 -48 -11 -2 -126 104 -178 164 -143 163 -230 352
-306 660 -34 137 -35 146 -19 170 19 30 18 30 44 8z m4574 -63 c-4 -19 -21
-94 -40 -166 -75 -297 -179 -496 -346 -661 -125 -124 -116 -121 -175 -64 l-50
48 46 29 c122 76 248 230 335 407 50 103 156 395 156 431 0 8 10 25 22 36 l22
21 18 -23 c13 -17 16 -33 12 -58z m-2931 25 l27 -24 -52 -48 c-133 -122 -368
-370 -368 -389 0 -17 -490 -456 -503 -451 -6 2 -12 7 -13 13 -1 5 77 80 174
166 211 188 370 337 360 338 -4 0 -132 -112 -285 -249 l-278 -248 -33 25 c-18
14 -31 28 -30 32 2 4 107 99 233 212 127 113 268 240 315 282 47 42 90 74 96
72 15 -6 56 32 49 44 -5 7 262 250 275 250 3 0 17 -12 33 -25z m1448 -133 c96
-86 305 -274 465 -416 159 -142 297 -266 307 -276 17 -15 16 -18 -19 -42 l-36
-26 -301 271 c-165 150 -338 306 -384 347 -46 41 -83 83 -83 92 0 9 -4 20 -10
23 -5 3 -10 1 -10 -5 0 -14 -29 9 -112 85 l-61 57 29 24 c16 13 31 23 34 23 3
0 84 -70 181 -157z m-2966 126 c5 4 5 1 1 -6 -5 -8 2 -14 23 -18 17 -4 31 -11
31 -16 0 -6 7 -8 15 -5 8 4 17 1 21 -5 5 -7 2 -8 -6 -3 -9 5 -11 4 -6 -4 4 -6
16 -9 25 -6 10 3 24 -1 30 -9 7 -8 45 -31 84 -52 40 -20 85 -46 101 -57 18
-13 26 -15 21 -6 -8 12 -6 12 9 -1 10 -8 25 -15 33 -16 32 -5 61 -54 31 -54
-6 0 -8 -3 -5 -7 4 -3 -2 -12 -13 -20 -11 -8 -20 -19 -20 -25 0 -6 -8 -17 -17
-25 -12 -10 -13 -12 -3 -8 13 6 13 4 0 -7 -29 -24 -60 -85 -60 -117 0 -17 -5
-31 -12 -31 -6 0 -8 -3 -5 -7 4 -3 3 -11 -3 -17 -12 -15 5 -45 18 -31 5 6 19
42 30 80 16 52 37 91 83 151 l62 81 43 -24 c24 -14 44 -27 44 -30 0 -21 -43
-69 -85 -92 -53 -30 -128 -104 -147 -146 -6 -14 -15 -25 -20 -25 -4 0 -8 -4
-8 -10 0 -20 23 -9 56 27 19 20 36 44 39 52 4 14 63 59 90 70 26 10 65 44 60
52 -4 5 1 6 10 3 11 -5 14 -2 9 10 -4 10 0 18 10 22 9 3 14 9 11 13 -2 4 2 8
10 8 13 0 13 -16 0 -58 -4 -10 -2 -19 4 -19 7 0 7 -9 0 -27 -15 -46 1 -199 26
-235 11 -16 13 -16 34 -1 18 12 20 17 10 24 -10 6 -11 9 -1 9 6 0 12 12 12 28
1 15 7 54 15 87 8 32 12 61 10 64 -3 2 3 13 12 24 13 15 14 18 3 12 -13 -7
-13 -6 -2 7 11 14 17 13 55 -5 23 -12 47 -26 52 -33 6 -6 23 -15 38 -18 l29
-7 -34 -27 c-30 -24 -105 -93 -133 -122 -5 -6 -16 -16 -24 -23 -7 -6 -26 -24
-42 -39 -16 -14 -29 -24 -29 -20 0 4 -13 -7 -28 -23 -42 -44 -86 -80 -95 -77
-5 1 -6 -2 -2 -8 3 -5 -1 -13 -9 -16 -9 -3 -16 -10 -16 -16 0 -5 4 -7 8 -4 5
3 9 -1 9 -9 0 -12 -4 -12 -20 2 -10 10 -27 17 -36 15 -9 -1 -27 7 -39 18 -12
11 -22 18 -22 16 0 -11 -153 141 -165 164 -7 14 -22 34 -32 45 -11 11 -22 27
-26 35 -4 8 -21 38 -37 65 -16 28 -33 57 -36 65 -3 8 -14 33 -23 55 -10 22
-24 56 -31 75 -7 19 -17 40 -20 45 -4 6 -10 27 -14 48 -4 20 -11 37 -15 37 -5
0 -9 10 -9 23 0 12 -9 47 -20 77 -24 69 -20 85 18 65 15 -8 31 -11 35 -7z
m4348 16 c4 -4 3 -12 0 -18 -4 -6 -8 -15 -9 -21 -1 -5 -15 -48 -30 -95 -15
-47 -27 -91 -25 -99 1 -7 -2 -10 -8 -6 -7 3 -11 -2 -11 -14 0 -26 -73 -189
-111 -250 -16 -25 -29 -50 -29 -55 0 -6 -18 -31 -40 -55 -22 -24 -38 -46 -36
-48 2 -3 -24 -30 -57 -61 -34 -31 -63 -60 -65 -64 -2 -4 -10 -8 -18 -8 -8 0
-17 -6 -20 -14 -3 -8 -17 -19 -32 -24 -29 -12 -106 -26 -84 -16 9 4 -12 30
-63 80 -76 73 -93 86 -79 62 4 -7 4 -10 0 -6 -4 3 -8 9 -7 12 0 13 -63 71 -76
68 -7 -2 -12 1 -11 5 3 7 -45 54 -117 114 -16 14 -31 32 -33 40 -2 7 -1 11 3
7 4 -4 23 3 43 14 21 12 53 29 72 39 34 17 35 17 38 -2 2 -11 7 -17 12 -14 4
3 7 -1 7 -8 -3 -31 16 -153 26 -165 7 -9 6 -11 -7 -6 -14 5 -13 1 5 -30 11
-20 24 -36 28 -36 15 0 42 38 47 66 9 44 11 196 4 224 -3 14 -4 33 -2 43 4 18
5 17 28 -4 18 -17 21 -25 12 -36 -8 -10 -7 -12 5 -8 8 4 21 -1 28 -12 8 -10
21 -19 29 -21 28 -6 61 -33 54 -44 -4 -7 -3 -8 4 -4 7 4 20 2 29 -3 10 -6 14
-11 8 -11 -6 0 -6 -3 0 -8 23 -16 54 -65 48 -75 -3 -5 -1 -7 5 -3 6 3 18 -1
27 -10 22 -22 38 -5 38 38 -1 43 -31 129 -52 146 -12 10 -12 12 -1 7 8 -4 5 2
-7 13 -13 11 -23 23 -23 27 0 4 -16 26 -36 51 -30 36 -33 45 -20 50 9 3 13 11
9 17 -3 6 -1 7 6 3 6 -4 9 -13 5 -19 -3 -7 0 -5 8 3 21 25 66 50 87 50 11 0
25 8 30 18 5 9 30 23 55 31 25 7 46 17 46 22 0 5 9 9 21 9 11 0 17 5 14 10 -3
6 -3 10 2 11 39 3 107 35 151 70 14 10 28 16 33 13 5 -3 9 0 9 5 0 12 23 15
33 5z m-1392 -270 c96 -87 295 -267 442 -398 146 -132 264 -243 261 -248 -3
-4 -11 -8 -17 -8 -12 0 -157 128 -528 464 -90 82 -224 203 -297 269 -108 98
-130 122 -121 134 10 12 18 8 48 -20 20 -19 115 -105 212 -193z m164 62 c0
-14 -4 -28 -8 -32 -4 -5 -5 -1 -1 9 4 12 1 17 -10 17 -16 0 -22 21 -10 33 12
12 30 -4 29 -27z m-1942 18 c12 -4 12 -10 3 -30 -15 -33 -34 -30 -32 6 1 31 4
34 29 24z m2683 -157 c39 -53 66 -102 76 -137 9 -30 19 -64 23 -75 4 -14 -1
-10 -17 10 -54 69 -121 133 -156 149 -30 14 -82 71 -82 91 0 6 72 44 85 44 6
1 37 -36 71 -82z m-906 -7 c6 -11 8 -20 6 -20 -3 0 -10 9 -16 20 -6 11 -8 20
-6 20 3 0 10 -9 16 -20z m-2289 -6 c24 -12 29 -19 23 -37 -22 -69 -35 -130
-40 -194 -4 -40 -10 -70 -14 -68 -17 11 -20 315 -3 315 2 0 17 -7 34 -16z
m2273 -167 l-26 -107 -45 -25 c-25 -14 -47 -25 -48 -25 -3 0 31 176 51 269
l16 73 40 -39 39 -39 -27 -107z m699 101 c6 -80 -3 -211 -15 -223 -3 -3 -8 25
-11 62 -4 38 -15 101 -26 141 l-19 72 27 15 c14 8 29 14 32 15 3 0 9 -37 12
-82z m-2229 -83 c15 -71 29 -140 31 -153 l6 -23 -49 25 -48 24 -28 108 -28
109 38 32 c27 22 41 28 45 20 4 -7 19 -70 33 -142z m1585 128 c-3 -21 3 -31
19 -29 9 0 16 -5 15 -11 -2 -7 1 -13 7 -13 5 0 18 -10 30 -22 20 -22 20 -22 0
-43 -11 -12 -20 -30 -20 -41 0 -17 -33 -48 -52 -49 -3 0 -10 -3 -14 -7 -27
-28 -25 4 11 153 5 17 1 31 -9 42 -15 14 -13 18 12 26 1 1 1 -2 1 -6z m134
-127 c17 -13 17 -14 0 -20 -10 -4 -14 -4 -10 0 4 4 -1 13 -11 20 -9 7 -12 13
-7 13 6 0 18 -6 28 -13z m-1936 -43 c-3 -3 -11 -2 -17 2 -8 5 -7 11 2 22 12
15 13 14 16 -1 2 -10 1 -20 -1 -23z m1902 23 c9 -11 8 -15 -5 -20 -23 -9 -24
-8 -24 14 0 23 13 26 29 6z m-1068 -22 c2 2 5 -10 6 -27 1 -17 7 -33 12 -37 6
-3 12 -15 14 -27 1 -11 11 -28 20 -38 10 -9 15 -25 13 -34 -3 -9 -7 -39 -8
-66 l-3 -50 -33 10 c-48 15 -60 70 -35 173 13 57 13 65 -1 87 -19 29 -21 47
-2 23 7 -10 15 -16 17 -14z m230 -13 c-13 -23 -14 -78 -3 -85 5 -3 10 -32 11
-66 2 -56 0 -63 -29 -92 -18 -17 -35 -27 -39 -22 -16 17 -20 131 -5 152 7 11
10 22 7 26 -3 3 -2 6 3 6 9 0 38 63 39 85 0 6 5 17 10 25 13 21 19 -5 6 -29z
m-384 -374 c13 -11 21 -22 20 -24 -2 -1 -100 47 -218 108 -118 61 -289 149
-381 196 -93 47 -165 89 -162 94 6 11 707 -342 741 -374z m1328 371 c5 4 5 2
2 -4 -3 -6 5 -17 18 -24 13 -7 23 -16 21 -19 -1 -3 9 -17 22 -31 14 -14 21
-18 17 -10 -8 13 -7 13 9 1 9 -8 15 -20 12 -28 -4 -9 -1 -11 6 -7 6 4 16 0 23
-9 6 -9 37 -36 68 -60 31 -24 53 -48 49 -52 -4 -5 1 -5 11 -2 10 4 16 3 13 -1
-2 -4 11 -21 29 -37 19 -17 53 -48 77 -70 23 -22 38 -33 33 -25 -8 13 -6 13 8
2 9 -8 22 -11 29 -7 7 4 5 0 -4 -8 -10 -8 -15 -16 -12 -19 2 -3 -11 -13 -29
-22 -19 -8 -40 -22 -47 -31 -7 -8 -16 -12 -21 -9 -5 3 -9 0 -9 -5 0 -6 -7 -11
-15 -11 -25 0 -65 -22 -58 -33 3 -6 1 -7 -5 -3 -5 3 -41 -8 -79 -26 -37 -17
-73 -31 -80 -31 -7 0 -10 -4 -7 -8 2 -4 -8 -7 -23 -6 -16 2 -34 -3 -41 -10 -9
-9 -18 -10 -30 -2 -15 10 -17 35 -15 262 2 139 3 252 4 252 8 0 4 47 -6 72
-13 31 -13 33 4 23 10 -5 22 -6 26 -2z m-2008 -223 c-7 -209 -27 -395 -43
-395 -37 0 -40 8 -31 93 9 84 2 444 -9 485 l-6 23 46 -23 47 -23 -4 -160z
m1951 60 c-8 -126 -3 -386 8 -426 3 -10 -5 -20 -20 -27 -22 -10 -24 -8 -30 21
-14 76 -27 223 -33 368 l-6 156 44 25 c24 13 45 24 45 24 1 -1 -2 -64 -8 -141z
m-1882 56 c29 -24 34 -144 6 -161 -16 -11 -16 -11 1 -6 21 7 23 -10 2 -18 -8
-3 -12 -12 -9 -19 3 -8 -2 -17 -11 -21 -10 -3 -15 -12 -12 -19 3 -7 0 -23 -7
-35 -10 -20 -12 -16 -11 30 0 29 4 59 9 67 6 9 6 16 0 18 -10 3 -6 183 4 183
4 -1 17 -9 28 -19z m1769 -13 c10 -30 12 -207 2 -201 -6 4 -7 1 -2 -8 5 -7 10
-27 11 -44 2 -27 1 -26 -18 15 -11 25 -24 47 -28 50 -4 3 -8 43 -9 90 -1 49
-7 87 -13 89 -14 5 12 21 35 21 10 0 20 -6 22 -12z m-1549 -222 c15 -81 32
-146 37 -146 5 0 6 8 2 17 -3 10 -3 57 1 106 l7 89 27 -50 c43 -80 60 -129 86
-255 13 -66 24 -125 24 -131 0 -7 -14 -10 -38 -8 -35 3 -41 9 -66 55 l-26 52
6 -48 6 -49 -31 6 c-17 3 -44 9 -60 12 -27 5 -29 9 -36 62 -14 117 -63 272
-86 272 -17 0 -39 -47 -75 -162 -22 -69 -43 -118 -50 -118 -10 0 -11 7 -4 28
4 15 18 71 30 125 12 54 34 122 49 151 20 36 27 62 23 84 -2 18 -1 52 2 77 l7
45 68 -35 68 -34 29 -145z m-1012 28 c24 -9 20 -23 -24 -66 -22 -23 -43 -51
-46 -64 -3 -13 -8 -24 -11 -24 -14 0 -43 23 -43 35 0 11 95 125 105 125 2 0
10 -3 19 -6z m3382 -26 c17 -18 40 -46 52 -62 21 -27 21 -30 6 -48 -23 -24
-30 -23 -43 10 -13 31 -51 75 -78 91 -17 10 -17 12 1 26 26 20 28 20 62 -17z
m-118 2 c-7 -11 -17 -20 -22 -20 -5 0 -1 9 9 20 10 11 20 20 22 20 2 0 -2 -9
-9 -20z m-3153 -61 c11 -2 24 -14 30 -26 12 -27 244 -145 389 -198 192 -70
582 -155 715 -155 26 0 32 -3 27 -16 -3 -9 -6 -36 -6 -61 l0 -46 -66 7 c-340
35 -739 153 -1056 312 -98 49 -99 53 -40 117 14 15 21 27 16 27 -16 0 -51 -42
-67 -78 -13 -33 -14 -33 -36 -15 l-22 18 25 38 c14 21 26 41 26 44 0 12 -40
-30 -45 -48 -8 -24 -17 -24 -46 0 l-22 18 22 36 c12 20 34 46 48 57 l26 20 31
-24 c18 -13 40 -25 51 -27z m-5 47 c0 -3 -4 -8 -10 -11 -5 -3 -10 -1 -10 4 0
6 5 11 10 11 6 0 10 -2 10 -4z m3270 -76 l20 -39 -30 -21 c-17 -12 -30 -16
-30 -10 0 16 -39 70 -50 70 -5 0 2 -16 15 -36 30 -44 31 -60 6 -74 -16 -8 -21
-6 -26 13 -9 28 -53 87 -66 87 -5 0 4 -19 21 -42 16 -22 30 -46 30 -53 0 -29
-367 -183 -594 -250 -180 -53 -586 -130 -600 -114 -2 2 -6 29 -9 60 l-5 56
111 12 c300 32 615 123 871 251 88 44 134 73 141 88 6 13 21 26 35 29 14 3 38
16 54 29 l30 23 28 -21 c16 -11 37 -37 48 -58z m-894 -17 c4 -21 13 -51 21
-66 7 -15 11 -32 7 -38 -3 -6 0 -18 8 -27 8 -9 14 -24 14 -32 -1 -8 7 -23 17
-33 23 -23 14 -37 -24 -37 -17 0 -39 -5 -50 -10 -24 -14 -89 -19 -89 -8 0 4 3
8 8 8 6 0 12 51 16 132 0 14 4 24 9 21 4 -2 8 6 9 19 2 44 25 108 39 108 4 0
11 -17 15 -37z m-1597 -13 c11 -22 14 -37 8 -33 -9 5 -9 3 0 -8 9 -11 33 -141
33 -179 0 -16 -37 -16 -104 0 -65 15 -68 17 -52 33 10 9 14 17 9 17 -4 0 -3 4
2 8 16 11 39 56 25 47 -9 -6 -9 -2 -1 12 5 11 12 31 15 44 2 13 10 38 17 54 7
17 12 33 11 38 -1 4 2 7 8 7 5 0 18 -18 29 -40z m815 -278 c58 -79 88 -148 81
-183 -5 -23 -64 -111 -112 -169 -12 -13 -123 156 -123 187 0 13 7 38 16 56 14
29 96 157 101 157 1 0 17 -22 37 -48z m-759 28 c3 -6 -1 -7 -9 -4 -18 7 -21
14 -7 14 6 0 13 -4 16 -10z m390 -107 l-5 -58 12 44 c14 47 36 68 60 58 13 -4
14 -12 5 -46 -8 -28 -8 -50 0 -75 10 -31 9 -36 -8 -41 -10 -4 -24 -3 -31 1 -7
5 -29 8 -48 9 l-35 0 1 66 c1 79 7 99 34 99 19 0 20 -5 15 -57z m223 43 c12
-1 22 -2 22 -2 0 -1 -12 -23 -26 -48 -21 -37 -25 -56 -21 -87 l5 -40 -36 3
c-28 2 -38 8 -40 23 -2 11 -8 25 -14 30 -6 7 -7 0 -2 -19 5 -20 4 -27 -4 -22
-16 10 -25 70 -18 111 10 51 31 68 75 59 20 -4 46 -8 59 -8z m345 -26 c13 -25
17 -47 12 -80 -6 -54 -25 -78 -26 -34 l-1 29 -10 -32 c-9 -28 -15 -33 -44 -33
-32 0 -33 1 -27 33 4 24 -2 48 -21 85 -30 59 -31 63 -13 57 6 -3 26 -1 42 4
49 15 69 9 88 -29z m137 21 c5 -11 11 -48 13 -83 l2 -63 -35 0 c-19 -1 -41 -4
-48 -9 -7 -4 -20 -5 -30 -2 -14 5 -17 19 -17 86 0 75 1 80 21 80 28 0 40 -16
52 -70 9 -40 10 -42 11 -13 1 17 -3 43 -8 56 -15 39 19 54 39 18z m-1402 -49
c18 -12 -35 -152 -57 -152 -11 0 -12 3 -4 8 9 6 33 108 33 145 0 9 12 9 28 -1z
m2087 -29 c4 -21 10 -57 14 -80 13 -64 -1 -52 -31 29 -20 54 -24 74 -15 80 21
13 26 9 32 -29z m-1632 -69 c56 -8 111 -17 123 -20 14 -2 32 -25 54 -68 53
-106 108 -138 120 -71 6 29 6 28 33 -29 38 -81 90 -168 159 -260 32 -43 57
-80 54 -83 -2 -2 -52 43 -110 101 -58 58 -112 106 -121 106 -21 0 -19 -33 5
-80 11 -22 17 -40 12 -40 -15 0 -277 274 -317 332 -59 85 -76 87 -99 10 l-14
-47 -6 50 c-4 28 -8 65 -11 83 -4 37 -12 36 118 16z m1263 -30 c-3 -26 -6 -62
-6 -81 0 -42 -15 -35 -24 11 -7 37 -29 62 -46 51 -6 -4 -36 -41 -67 -82 -50
-68 -292 -317 -300 -309 -2 1 4 19 12 39 18 44 19 77 3 77 -7 0 -61 -48 -119
-106 -64 -64 -109 -102 -113 -95 -4 6 -3 11 3 11 15 0 161 224 201 308 28 61
36 70 40 51 3 -12 13 -27 22 -33 24 -14 57 19 99 97 17 34 33 64 35 66 4 4
209 37 248 40 17 1 18 -4 12 -45z"/>
<path d="M2630 5236 c0 -2 8 -10 18 -17 15 -13 16 -12 3 4 -13 16 -21 21 -21
13z"/>
<path d="M3361 5227 c-8 -10 -7 -14 2 -14 8 0 14 6 14 14 0 7 -1 13 -2 13 -2
0 -8 -6 -14 -13z"/>
<path d="M2990 5146 c0 -21 -74 -108 -232 -272 -75 -77 -143 -154 -151 -170
-18 -35 -50 -154 -44 -161 3 -2 13 21 23 53 25 79 77 146 257 325 l157 155
169 -170 c175 -177 224 -241 243 -313 6 -24 14 -43 18 -43 13 0 -30 142 -53
175 -12 17 -94 105 -183 198 -89 92 -169 183 -178 202 -18 37 -26 44 -26 21z"/>
<path d="M3105 5099 c-4 -6 -5 -12 -2 -15 2 -3 7 2 10 11 7 17 1 20 -8 4z"/>
<path d="M3170 5036 c0 -2 8 -10 18 -17 15 -13 16 -12 3 4 -13 16 -21 21 -21
13z"/>
<path d="M2905 4941 c-3 -5 -2 -12 3 -15 5 -3 9 1 9 9 0 17 -3 19 -12 6z"/>
<path d="M3523 4385 c0 -8 4 -12 9 -9 5 3 6 10 3 15 -9 13 -12 11 -12 -6z"/>
<path d="M4905 4820 c-3 -6 1 -7 9 -4 18 7 21 14 7 14 -6 0 -13 -4 -16 -10z"/>
<path d="M4663 4565 c0 -8 4 -12 9 -9 5 3 6 10 3 15 -9 13 -12 11 -12 -6z"/>
<path d="M4010 3970 c-6 -11 -8 -20 -6 -20 3 0 10 9 16 20 6 11 8 20 6 20 -3
0 -10 -9 -16 -20z"/>
<path d="M1200 4099 c0 -5 11 -9 25 -9 14 0 25 4 25 9 0 5 -11 9 -25 9 -14 0
-25 -4 -25 -9z"/>
<path d="M4750 4101 c0 -11 21 -19 38 -14 21 8 13 23 -13 23 -14 0 -25 -4 -25
-9z"/>
<path d="M2292 3901 c-4 -121 11 -219 44 -290 22 -50 23 -53 4 -36 -25 23 -25
9 0 -57 11 -29 20 -62 20 -73 0 -15 11 -9 49 31 l49 51 4 -34 c2 -19 -2 -51
-9 -71 -17 -49 -17 -49 11 -23 35 33 56 83 55 128 l-1 38 -9 -44 c-12 -62 -29
-76 -30 -25 -3 93 -7 117 -38 186 -18 40 -42 94 -53 120 -12 27 -24 45 -27 42
-7 -7 -8 -64 -1 -64 3 0 12 -17 22 -38 25 -57 31 -76 29 -90 -1 -7 5 -15 14
-18 10 -4 15 -20 15 -49 0 -34 -5 -48 -25 -63 -13 -11 -21 -23 -17 -28 4 -5
-1 -2 -10 5 -19 14 -24 46 -9 55 14 9 7 34 -15 52 -10 8 -13 12 -6 9 10 -5 10
1 -2 24 -9 17 -19 52 -22 78 -3 27 -7 61 -9 76 -3 17 -1 26 5 22 15 -9 12 2
-6 19 -10 10 -11 16 -4 16 7 0 10 6 7 14 -3 8 0 16 7 19 14 6 84 -87 122 -161
30 -60 43 -64 19 -6 -13 31 -151 250 -174 276 -3 4 -7 -37 -9 -91z"/>
<path d="M3690 3991 c0 -5 -31 -56 -69 -113 -75 -114 -126 -208 -112 -208 5 0
12 8 15 18 11 28 88 153 93 149 2 -2 -10 -35 -26 -73 -16 -38 -38 -91 -50
-119 -11 -27 -23 -81 -27 -120 -5 -50 -9 -64 -15 -50 -4 11 -8 32 -8 48 -1 15
-5 27 -11 27 -29 0 9 -109 50 -145 l23 -20 -7 20 c-13 34 -19 115 -10 115 5 0
31 -21 57 -47 37 -36 47 -42 47 -27 0 10 9 43 20 72 26 69 25 76 -7 44 -15
-15 -28 -36 -28 -46 0 -11 -7 -21 -15 -23 -13 -4 -13 -3 0 6 11 8 11 11 3 12
-7 1 -17 2 -21 3 -21 3 -37 35 -37 73 0 23 4 41 9 40 5 -1 11 4 14 12 2 8 1
11 -4 8 -5 -3 5 25 23 61 18 37 35 81 36 99 2 17 9 38 16 46 6 8 10 19 9 23
-2 5 2 9 7 9 16 0 6 -163 -14 -222 -10 -29 -21 -50 -25 -46 -4 4 -4 0 -1 -9 4
-9 2 -19 -4 -23 -6 -3 -11 -16 -11 -28 1 -21 2 -20 24 7 48 58 78 206 74 353
-2 46 -6 83 -10 83 -5 0 -8 -4 -8 -9z"/>
<path d="M2340 3860 c0 -5 5 -10 11 -10 5 0 7 5 4 10 -3 6 -8 10 -11 10 -2 0
-4 -4 -4 -10z"/>
<path d="M3336 3698 c3 -5 10 -6 15 -3 13 9 11 12 -6 12 -8 0 -12 -4 -9 -9z"/>
<path d="M2531 3390 c-13 -11 -19 -20 -14 -20 6 0 18 9 28 20 23 25 17 25 -14
0z"/>
<path d="M3569 3393 c-13 -16 -12 -17 4 -4 16 13 21 21 13 21 -2 0 -10 -8 -17
-17z"/>
<path d="M2356 3373 c-6 -14 -5 -15 5 -6 7 7 10 15 7 18 -3 3 -9 -2 -12 -12z"/>
<path d="M2459 3363 c-13 -16 -12 -17 4 -4 9 7 17 15 17 17 0 8 -8 3 -21 -13z"/>
<path d="M3644 3104 c-18 -14 -18 -15 4 -4 12 6 22 13 22 15 0 8 -5 6 -26 -11z"/>
<path d="M2344 3088 l-19 -23 23 19 c21 18 27 26 19 26 -2 0 -12 -10 -23 -22z"/>
<path d="M3480 3066 c0 -2 8 -10 18 -17 15 -13 16 -12 3 4 -13 16 -21 21 -21
13z"/>
<path d="M2620 2955 c0 -5 17 -29 38 -54 21 -25 47 -59 57 -74 10 -15 20 -25
23 -23 3 3 -12 30 -33 60 -39 57 -85 106 -85 91z"/>
<path d="M3329 2912 c-48 -54 -85 -112 -72 -112 5 0 17 15 28 32 10 18 37 52
58 76 22 23 38 45 35 48 -3 2 -25 -17 -49 -44z"/>
<path d="M2585 2941 c-3 -5 -2 -12 3 -15 5 -3 9 1 9 9 0 17 -3 19 -12 6z"/>
<path d="M3165 2711 c-3 -5 -2 -12 3 -15 5 -3 9 1 9 9 0 17 -3 19 -12 6z"/>
<path d="M2375 2631 c-3 -5 -2 -12 3 -15 5 -3 9 1 9 9 0 17 -3 19 -12 6z"/>
<path d="M3605 2611 c-3 -5 -2 -12 3 -15 5 -3 9 1 9 9 0 17 -3 19 -12 6z"/>
<path d="M2515 2509 c59 -33 99 -67 122 -106 36 -61 39 -47 6 22 -25 51 -33
59 -78 76 -55 21 -82 25 -50 8z"/>
<path d="M3428 2502 c-26 -9 -51 -21 -56 -27 -9 -11 -53 -125 -48 -125 2 0 17
23 34 50 20 32 50 62 82 82 70 44 67 48 -12 20z"/>
<path d="M2751 2014 c0 -11 3 -14 6 -6 3 7 2 16 -1 19 -3 4 -6 -2 -5 -13z"/>
<path d="M3170 1951 c0 -6 4 -13 10 -16 6 -3 7 1 4 9 -7 18 -14 21 -14 7z"/>
<path d="M4433 3936 c4 -14 47 -21 47 -8 0 5 -11 12 -25 15 -16 3 -24 0 -22
-7z"/>
<path d="M4693 3528 c-23 -30 -24 -41 -2 -21 12 12 20 25 17 28 -3 3 -10 0
-15 -7z"/>
<path d="M1807 3629 c7 -7 15 -10 18 -7 3 3 -2 9 -12 12 -14 6 -15 5 -6 -5z"/>
<path d="M4180 3681 c0 -6 4 -13 10 -16 6 -3 7 1 4 9 -7 18 -14 21 -14 7z"/>
<path d="M1501 3672 c-17 -31 -13 -40 5 -14 9 13 14 26 11 29 -3 2 -10 -4 -16
-15z"/>
<path d="M4431 3480 c-1 -14 -16 -93 -34 -177 -19 -84 -30 -150 -26 -148 3 3
9 15 12 27 44 199 57 274 54 296 l-4 27 -2 -25z"/>
<path d="M1706 3611 c-4 -7 -5 -15 -2 -18 9 -9 19 4 14 18 -4 11 -6 11 -12 0z"/>
<path d="M1686 2523 c-6 -14 -5 -15 5 -6 7 7 10 15 7 18 -3 3 -9 -2 -12 -12z"/>
<path d="M1445 2251 c-3 -5 -2 -12 3 -15 5 -3 9 1 9 9 0 17 -3 19 -12 6z"/>
<path d="M2096 2153 c-6 -14 -5 -15 5 -6 7 7 10 15 7 18 -3 3 -9 -2 -12 -12z"/>
<path d="M1875 1980 c-3 -6 1 -7 9 -4 18 7 21 14 7 14 -6 0 -13 -4 -16 -10z"/>
<path d="M3749 2293 c-13 -16 -12 -17 4 -4 16 13 21 21 13 21 -2 0 -10 -8 -17
-17z"/>
<path d="M3963 2107 c0 -8 6 -14 14 -14 9 0 10 4 2 14 -6 7 -12 13 -14 13 -1
0 -2 -6 -2 -13z"/>
<path d="M4035 2039 c-4 -6 -4 -13 -1 -16 3 -4 6 -1 6 6 0 7 5 9 12 5 7 -4 8
-3 4 4 -9 15 -13 15 -21 1z"/>
<path d="M4196 1892 c-3 -5 1 -15 8 -21 11 -10 14 -9 12 3 -3 21 -13 29 -20
18z"/>
<path d="M1343 2113 c4 -3 -3 -18 -15 -32 l-23 -26 27 24 c24 21 29 41 11 41
-4 0 -3 -3 0 -7z"/>
<path d="M4639 2098 c7 -9 9 -23 5 -30 -6 -10 -4 -11 7 0 11 10 10 15 -6 30
-17 15 -18 15 -6 0z"/>
<path d="M4385 1271 c-3 -5 -2 -12 3 -15 5 -3 9 1 9 9 0 17 -3 19 -12 6z"/>
<path d="M2907 964 c-6 -6 83 -133 93 -134 10 0 89 123 84 132 -9 14 -19 9
-32 -19 -7 -16 -22 -39 -33 -52 l-20 -24 -29 34 c-16 19 -32 42 -35 52 -6 17
-17 22 -28 11z"/>
<path d="M2456 872 c-3 -5 1 -15 8 -21 11 -10 14 -9 12 3 -3 21 -13 29 -20 18z"/>
<path d="M2736 670 c5 -8 9 -18 9 -22 0 -5 4 -8 8 -9 18 -2 16 9 -5 27 -13 11
-18 13 -12 4z"/>
<path d="M1036 4842 c-3 -5 1 -9 9 -9 8 0 12 4 9 9 -3 4 -7 8 -9 8 -2 0 -6 -4
-9 -8z"/>
<path d="M1070 4792 c0 -15 87 -144 95 -142 4 1 11 -2 14 -7 17 -23 203 -196
195 -181 -5 9 -57 68 -116 131 -59 63 -120 130 -135 148 l-28 33 50 -29 c33
-18 45 -22 36 -11 -18 21 -111 70 -111 58z"/>
<path d="M1414 4792 c3 -5 0 -13 -6 -15 -9 -4 -10 -6 -1 -6 17 -1 25 16 12 25
-7 4 -9 3 -5 -4z"/>
<path d="M4495 4711 c-3 -5 -2 -12 3 -15 5 -3 9 1 9 9 0 17 -3 19 -12 6z"/>
<path d="M1158 3748 c-13 -18 -28 -40 -33 -48 -15 -25 22 8 47 42 28 41 16 46
-14 6z"/>
<path d="M1295 3517 c10 -15 20 -25 23 -22 3 3 -5 16 -17 28 l-23 22 17 -28z"/>
<path d="M1246 3042 c-3 -5 1 -9 9 -9 8 0 12 4 9 9 -3 4 -7 8 -9 8 -2 0 -6 -4
-9 -8z"/>
<path d="M1140 2935 c-7 -9 -11 -17 -9 -20 3 -2 10 5 17 15 14 24 10 26 -8 5z"/>
<path d="M4380 2330 c-9 -6 -10 -10 -3 -10 6 0 15 5 18 10 8 12 4 12 -15 0z"/>
</g>
</svg>
